<?xml version="1.0" encoding="UTF-8"?>
<svg version="1.1" xmlns="http://www.w3.org/2000/svg" width="1672" height="941">
<path d="M0 0 C551.76 0 1103.52 0 1672 0 C1672 310.53 1672 621.06 1672 941 C1120.24 941 568.48 941 0 941 C0 630.47 0 319.94 0 0 Z " fill="#000E2B" transform="translate(0,0)"/>
<path d="M0 0 C0 150.15 0 300.3 0 455 C-151.14 455 -302.28 455 -458 455 C-454.382405 450.7794725 -450.92664601 446.79956523 -447.03613281 442.89086914 C-446.35201073 442.20170914 -446.35201073 442.20170914 -445.65406799 441.49862671 C-444.17300594 440.00820319 -442.68833305 438.52144752 -441.203125 437.03515625 C-440.16266817 435.99148098 -439.12228448 434.94773278 -438.08197021 433.90391541 C-435.91529826 431.73129267 -433.74660726 429.5607088 -431.57666016 427.39135742 C-428.79173664 424.60653633 -426.01380323 421.81485031 -423.23750687 419.02143192 C-421.09799881 416.87084181 -418.95399831 414.72477505 -416.80867767 412.57998466 C-415.78157745 411.55170246 -414.75610284 410.5217939 -413.73227692 409.49025154 C-412.30834374 408.05657788 -410.87748808 406.62978957 -409.44628906 405.20336914 C-408.63387756 404.38953262 -407.82146606 403.57569611 -406.98443604 402.73719788 C-405 401 -405 401 -403 401 C-402.814375 400.154375 -402.62875 399.30875 -402.4375 398.4375 C-400.05378876 392.73732094 -396.26267906 388.94621124 -390.5625 386.5625 C-389.716875 386.376875 -388.87125 386.19125 -388 386 C-388 384.68 -388 383.36 -388 382 C-387.34 382 -386.68 382 -386 382 C-385.62875 380.7934375 -385.62875 380.7934375 -385.25 379.5625 C-384 377 -384 377 -381.875 376.1875 C-381.25625 376.125625 -380.6375 376.06375 -380 376 C-380 375.34 -380 374.68 -380 374 C-379.34 374 -378.68 374 -378 374 C-377.67 373.34 -377.34 372.68 -377 372 C-375.43961165 370.01772887 -373.86035859 368.06580789 -372.25 366.125 C-371.81945313 365.59519531 -371.38890625 365.06539062 -370.9453125 364.51953125 C-368.22192184 361.23352395 -365.35606058 358.6167885 -362 356 C-361.67 355.34 -361.34 354.68 -361 354 C-360.34 354 -359.68 354 -359 354 C-359 353.01 -359 352.02 -359 351 C-357.37946188 349.61096733 -355.70294787 348.28667172 -354 347 C-349.53223803 342.86732017 -346.11781589 338.33008292 -342.8671875 333.21875 C-341.95391032 331.78456658 -340.9818526 330.38813644 -340 329 C-339.34 329 -338.68 329 -338 329 C-337.9071875 328.13375 -337.9071875 328.13375 -337.8125 327.25 C-336.66615826 324.07551517 -334.74043158 322.87151425 -332 321 C-331.34 321 -330.68 321 -330 321 C-329.67 320.01 -329.34 319.02 -329 318 C-328.505 317.54625 -328.01 317.0925 -327.5 316.625 C-325.78478246 315.08907796 -325.78478246 315.08907796 -325.75 312.75 C-324.57868858 308.45519146 -321.48104584 305.68105394 -318 303 C-316.67312045 302.64183867 -315.34035909 302.30385259 -314 302 C-312.75825204 300.0998823 -312.75825204 300.0998823 -312 298 C-311.67 297.34 -311.34 296.68 -311 296 C-311.66 295.67 -312.32 295.34 -313 295 C-312.27039062 294.29875 -311.54078125 293.5975 -310.7890625 292.875 C-308.03154756 290.11554178 -305.70172163 287.13427793 -303.375 284 C-302.61960937 282.989375 -301.86421875 281.97875 -301.0859375 280.9375 C-298.96717849 278.08843256 -298.96717849 278.08843256 -297.4765625 275.125 C-296.98929688 274.42375 -296.50203125 273.7225 -296 273 C-294.68 273 -293.36 273 -292 273 C-291.6596875 271.7934375 -291.6596875 271.7934375 -291.3125 270.5625 C-290.6628125 269.2940625 -290.6628125 269.2940625 -290 268 C-289.2575 267.87625 -288.515 267.7525 -287.75 267.625 C-283.95554753 266.76262444 -282.8306717 264.66017717 -280.4609375 261.70703125 C-278.5481697 259.47205925 -276.62580137 258.31290068 -274 257 C-273.34515625 256.649375 -272.6903125 256.29875 -272.015625 255.9375 C-266.42621528 253 -266.42621528 253 -263 253 C-262.9175 252.401875 -262.835 251.80375 -262.75 251.1875 C-261.79055618 248.38912218 -260.3258784 247.7444088 -258 246 C-257.835 245.319375 -257.67 244.63875 -257.5 243.9375 C-257.335 243.298125 -257.17 242.65875 -257 242 C-255.0625 240.875 -255.0625 240.875 -253 240 C-252.34 239.34 -251.68 238.68 -251 238 C-249.865625 237.54625 -248.73125 237.0925 -247.5625 236.625 C-244.04023092 235.01835095 -243.0398191 234.11340811 -241 231 C-240.34 231 -239.68 231 -239 231 C-239 230.34 -239 229.68 -239 229 C-238.34 229 -237.68 229 -237 229 C-236.67 228.01 -236.34 227.02 -236 226 C-234.2578125 225.15625 -234.2578125 225.15625 -232.125 224.5 C-228.97764586 223.52443636 -227.10810416 222.57516915 -225 220 C-224.67 219.01 -224.34 218.02 -224 217 C-223.01 216.67 -222.02 216.34 -221 216 C-221 216.66 -221 217.32 -221 218 C-215.35813488 213.20093434 -210.06076858 208.16068705 -204.875 202.875 C-197.36397477 195.22090763 -197.36397477 195.22090763 -193.8203125 192.3203125 C-191.01745548 190.01436088 -188.55223085 187.58110051 -186 185 C-184.83340928 183.83122086 -183.66613331 182.66312546 -182.49834061 181.49554729 C-181.12626528 180.12217768 -179.75419942 178.74879861 -178.38214111 177.37541199 C-176.80431967 175.79612385 -175.22649457 174.21683937 -173.64866638 172.63755798 C-172.80858976 171.79670591 -171.96851315 170.95585384 -171.10297966 170.08952141 C-152.38052984 151.34995554 -133.65554719 132.61292265 -114.92875828 113.87769295 C-112.16488875 111.11257287 -109.40104112 108.3474309 -106.63720703 105.58227539 C-106.08703312 105.03183917 -105.5368592 104.48140294 -104.97001335 103.91428683 C-96.03611034 94.97602034 -87.10397372 86.03599063 -78.17247477 77.09532198 C-69.00410575 67.91761847 -59.83385411 58.74179926 -50.66183352 49.56774503 C-45.00243388 43.90697069 -39.34452523 38.24471439 -33.68849245 32.58057598 C-29.36304072 28.24923914 -25.03497889 23.92051937 -20.70590782 19.59280014 C-18.92518207 17.8117978 -17.1453221 16.02992935 -15.36636543 14.24715996 C-12.94983437 11.82570096 -10.53029333 9.40729164 -8.10992432 6.9896698 C-7.39642232 6.27325496 -6.68292033 5.55684013 -5.94779706 4.81871575 C-5.30446132 4.17737106 -4.66112559 3.53602638 -3.99829483 2.875247 C-3.43939883 2.31597128 -2.88050282 1.75669555 -2.30467057 1.18047208 C-1 0 -1 0 0 0 Z " fill="#001946" transform="translate(1672,486)"/>
<path d="M0 0 C0 75.57 0 151.14 0 229 C-99.33 229 -198.66 229 -301 229 C-299.02 226.69 -297.04 224.38 -295 222 C-294.40574219 221.278125 -293.81148437 220.55625 -293.19921875 219.8125 C-289.51497754 215.39521855 -285.61101174 211.96856599 -280.91796875 208.640625 C-278.92795367 207.17615484 -278.92795367 207.17615484 -278.21826172 205.24560547 C-276.52790524 202.12979406 -274.1048943 199.87855837 -271.58984375 197.4296875 C-271.06234024 196.90738556 -270.53483673 196.38508362 -269.99134827 195.84695435 C-268.3114287 194.18479666 -266.62495728 192.52950195 -264.9375 190.875 C-263.24736984 189.21249027 -261.5587228 187.54854046 -259.87294006 185.88162231 C-258.82509029 184.8460278 -257.77457886 183.81311817 -256.72117615 182.78317261 C-254.01638571 180.15409686 -254.01638571 180.15409686 -252 177 C-251.34 177 -250.68 177 -250 177 C-250 176.34 -250 175.68 -250 175 C-249.34 175 -248.68 175 -248 175 C-248 174.34 -248 173.68 -248 173 C-247.34 173 -246.68 173 -246 173 C-246 172.34 -246 171.68 -246 171 C-245.34 171 -244.68 171 -244 171 C-244 170.34 -244 169.68 -244 169 C-241.93240761 166.62609762 -240.04168954 165.0242381 -237.3125 163.4375 C-234.69589558 162.15227904 -234.69589558 162.15227904 -234 159 C-232.43359375 157.4921875 -232.43359375 157.4921875 -230.4375 155.875 C-226.57210249 152.64698186 -223.55441571 149.14046566 -220.54296875 145.11328125 C-211.51252146 137.60871599 -199.94156333 138.42964819 -188.875 138.4375 C-171.08949989 138.60267438 -171.08949989 138.60267438 -156 130 C-153.75 129.3125 -153.75 129.3125 -152 129 C-149.87022029 127.15361367 -149.87022029 127.15361367 -149.16526985 124.68697643 C-147.73586107 121.39092641 -145.90302967 119.53971948 -143.35568237 117.00837708 C-142.88028145 116.53182401 -142.40488053 116.05527094 -141.91507351 115.56427687 C-140.32524412 113.97418999 -138.72496146 112.39506521 -137.12451172 110.81567383 C-135.9807156 109.67599925 -134.83759459 108.53564678 -133.69509888 107.39466858 C-131.23632053 104.94197941 -128.77291138 102.49407285 -126.30581284 100.04975319 C-122.40809775 96.18782267 -118.5213089 92.31502035 -114.63601685 88.44059753 C-107.09300051 80.92170467 -99.53874037 73.41416567 -91.98344421 65.90761566 C-82.35771233 56.34273294 -72.73761061 46.77220512 -63.12648213 37.19264811 C-59.2592888 33.33887812 -55.38690714 29.4904196 -51.51042533 25.64599383 C-49.10588665 23.25949787 -46.70540245 20.86895536 -44.30598068 18.4773159 C-43.18862721 17.36532545 -42.06953595 16.25507818 -40.94863129 15.14666748 C-39.42461187 13.63920038 -37.90676789 12.12578002 -36.39035034 10.610672 C-35.53752409 9.76358579 -34.68469784 8.91649958 -33.80602837 8.04374409 C-31.77927228 6.20478348 -31.77927228 6.20478348 -32 4 C-22 0 -22 0 0 0 Z " fill="#000E2D" transform="translate(1672,712)"/>
<path d="M0 0 C0 3 0 3 -1.20316017 4.57230365 C-1.7731754 5.13955351 -2.34319063 5.70680336 -2.93047905 6.2912426 C-3.58412402 6.94901062 -4.23776899 7.60677864 -4.91122139 8.28447902 C-5.64135543 9.00382818 -6.37148947 9.72317734 -7.12374878 10.46432495 C-8.27319385 11.61443989 -8.27319385 11.61443989 -9.44586003 12.78778946 C-12.03221337 15.3720485 -14.62915014 17.94540984 -17.22607422 20.51904297 C-19.07568574 22.36290089 -20.92461825 24.20744016 -22.7729187 26.0526123 C-26.76250317 30.03352501 -30.75737892 34.00906343 -34.75570297 37.98119736 C-40.54033152 43.72821265 -46.31527192 49.48488516 -52.08757891 55.2442732 C-61.45727932 64.59275589 -70.8325599 73.93561963 -80.21240234 83.27392578 C-80.7741133 83.8331533 -81.33582426 84.39238082 -81.91455676 84.96855463 C-86.47141213 89.50517945 -91.0285371 94.04153343 -95.58568001 98.57786942 C-99.56619636 102.54023187 -103.54660722 106.50270026 -107.52685547 110.46533203 C-108.08727983 111.02327201 -108.64770419 111.581212 -109.22511111 112.15605925 C-118.56660049 121.45650192 -127.90220899 130.76282612 -137.23362744 140.07337296 C-142.99196995 145.81826377 -148.75559731 151.55775423 -154.52610995 157.29042102 C-158.94684182 161.68290603 -163.35996088 166.08296509 -167.77031326 170.48587036 C-169.58256689 172.29249484 -171.39741837 174.09651757 -173.2150116 175.89776993 C-175.69104351 178.35223522 -178.15773107 180.81572445 -180.62228394 183.28170776 C-181.71079283 184.35403933 -181.71079283 184.35403933 -182.8212918 185.44803417 C-186.13159453 188.77905227 -188.65165581 191.38348434 -190 196 C-191.27658081 197.61042786 -191.27658081 197.61042786 -192.73388672 199.01098633 C-193.28140594 199.54536819 -193.82892517 200.07975006 -194.39303589 200.63032532 C-194.98263092 201.19188828 -195.57222595 201.75345123 -196.1796875 202.33203125 C-197.43109515 203.55523055 -198.68239379 204.77854138 -199.93359375 206.00195312 C-201.90098273 207.90735588 -203.87163516 209.80926233 -205.84521484 211.70825195 C-207.75709246 213.55326897 -209.65621064 215.41074222 -211.5546875 217.26953125 C-212.14023407 217.82502151 -212.72578064 218.38051178 -213.32907104 218.95283508 C-216.85108831 222.4113519 -219.14424537 225.71265709 -221.14941406 230.23179626 C-222.39029308 232.81134387 -224.15401132 234.69657453 -226.125 236.75 C-228.67443621 239.42450289 -230.41053973 241.6850167 -232 245 C-233.27665227 246.9407283 -234.59227237 248.85615999 -235.9375 250.75 C-236.62714844 251.73484375 -237.31679687 252.7196875 -238.02734375 253.734375 C-239.00380859 254.85585938 -239.00380859 254.85585938 -240 256 C-240.99 256 -241.98 256 -243 256 C-245.56259041 257.96599106 -245.56259041 257.96599106 -248.125 260.5625 C-249.01445313 261.40941406 -249.90390625 262.25632812 -250.8203125 263.12890625 C-253.96212788 267.26731899 -254 270.93976818 -254 276 C-255.72265625 277.98046875 -255.72265625 277.98046875 -258.0625 280.1875 C-261.11232796 283.12720858 -264.00965285 286.08215701 -266.75 289.3125 C-269.2796113 292.24614644 -271.75262536 294.83508357 -275 297 C-275.99 297 -276.98 297 -278 297 C-280.01858306 298.29766054 -281.77623251 299.80078555 -283.56640625 301.39453125 C-286.46850507 303.95902573 -289.17991481 306.2061539 -292.625 308 C-296.35138957 310.20823086 -298.25535851 312.69235513 -301 316 C-303.65938547 317.57392201 -305.89848617 318.80093124 -308.9453125 319.3515625 C-311.63270019 320.19967344 -312.86640922 321.53713872 -314.8125 323.5625 C-315.49957031 324.27535156 -316.18664063 324.98820312 -316.89453125 325.72265625 C-320.00380893 329.08575252 -323.03159654 332.51212594 -326 336 C-326.99 335.34 -327.98 334.68 -329 334 C-329.70125 334.71285156 -330.4025 335.42570312 -331.125 336.16015625 C-346.20102004 351.41482739 -346.20102004 351.41482739 -350.2434082 352.72973633 C-353.83512816 354.38483499 -356.24189304 356.86823765 -358.95703125 359.6640625 C-359.50485764 360.21613373 -360.05268402 360.76820496 -360.61711121 361.33700562 C-362.35610823 363.09272422 -364.08435158 364.85860863 -365.8125 366.625 C-366.99344477 367.821 -368.17507823 369.01632039 -369.35742188 370.2109375 C-372.24631632 373.13281462 -375.12561481 376.06385116 -378 379 C-378.66 378.67 -379.32 378.34 -380 378 C-379.1028125 377.195625 -379.1028125 377.195625 -378.1875 376.375 C-375.88773465 374.11211647 -375.88773465 374.11211647 -374.6875 371.25 C-371.43337339 364.98279319 -366.57313956 360.26181261 -361 356 C-360.67 355.34 -360.34 354.68 -360 354 C-359.34 354 -358.68 354 -358 354 C-358 353.01 -358 352.02 -358 351 C-356.37946188 349.61096733 -354.70294787 348.28667172 -353 347 C-348.53223803 342.86732017 -345.11781589 338.33008292 -341.8671875 333.21875 C-340.95391032 331.78456658 -339.9818526 330.38813644 -339 329 C-338.34 329 -337.68 329 -337 329 C-336.9071875 328.13375 -336.9071875 328.13375 -336.8125 327.25 C-335.66615826 324.07551517 -333.74043158 322.87151425 -331 321 C-330.34 321 -329.68 321 -329 321 C-328.67 320.01 -328.34 319.02 -328 318 C-327.505 317.54625 -327.01 317.0925 -326.5 316.625 C-324.78478246 315.08907796 -324.78478246 315.08907796 -324.75 312.75 C-323.57868858 308.45519146 -320.48104584 305.68105394 -317 303 C-315.67312045 302.64183867 -314.34035909 302.30385259 -313 302 C-311.75825204 300.0998823 -311.75825204 300.0998823 -311 298 C-310.67 297.34 -310.34 296.68 -310 296 C-310.66 295.67 -311.32 295.34 -312 295 C-311.27039062 294.29875 -310.54078125 293.5975 -309.7890625 292.875 C-307.03154756 290.11554178 -304.70172163 287.13427793 -302.375 284 C-301.61960937 282.989375 -300.86421875 281.97875 -300.0859375 280.9375 C-297.96717849 278.08843256 -297.96717849 278.08843256 -296.4765625 275.125 C-295.98929688 274.42375 -295.50203125 273.7225 -295 273 C-293.68 273 -292.36 273 -291 273 C-290.773125 272.195625 -290.54625 271.39125 -290.3125 270.5625 C-289.879375 269.716875 -289.44625 268.87125 -289 268 C-288.2575 267.87625 -287.515 267.7525 -286.75 267.625 C-282.95554753 266.76262444 -281.8306717 264.66017717 -279.4609375 261.70703125 C-277.5481697 259.47205925 -275.62580137 258.31290068 -273 257 C-272.34515625 256.649375 -271.6903125 256.29875 -271.015625 255.9375 C-265.42621528 253 -265.42621528 253 -262 253 C-261.9175 252.401875 -261.835 251.80375 -261.75 251.1875 C-260.79055618 248.38912218 -259.3258784 247.7444088 -257 246 C-256.835 245.319375 -256.67 244.63875 -256.5 243.9375 C-256.335 243.298125 -256.17 242.65875 -256 242 C-254.0625 240.875 -254.0625 240.875 -252 240 C-251.34 239.34 -250.68 238.68 -250 238 C-248.865625 237.54625 -247.73125 237.0925 -246.5625 236.625 C-243.04023092 235.01835095 -242.0398191 234.11340811 -240 231 C-239.34 231 -238.68 231 -238 231 C-238 230.34 -238 229.68 -238 229 C-237.34 229 -236.68 229 -236 229 C-235.67 228.01 -235.34 227.02 -235 226 C-233.2578125 225.15625 -233.2578125 225.15625 -231.125 224.5 C-227.97764586 223.52443636 -226.10810416 222.57516915 -224 220 C-223.67 219.01 -223.34 218.02 -223 217 C-222.01 216.67 -221.02 216.34 -220 216 C-220 216.66 -220 217.32 -220 218 C-214.35813488 213.20093434 -209.06076858 208.16068705 -203.875 202.875 C-196.36397477 195.22090763 -196.36397477 195.22090763 -192.8203125 192.3203125 C-190.0174957 190.01439397 -187.55238669 187.58087043 -185 185 C-183.8325321 183.83116649 -182.66432013 182.66307593 -181.49554729 181.49554729 C-180.84116387 180.84116387 -180.18678045 180.18678045 -179.51256722 179.51256722 C-123.56997788 123.56997788 -67.62738854 67.62738854 0 0 Z M-319 323 C-319.99 324.485 -319.99 324.485 -321 326 C-319.68 325.34 -318.36 324.68 -317 324 C-317.66 323.67 -318.32 323.34 -319 323 Z " fill="#0047AC" transform="translate(1671,486)"/>
<path d="M0 0 C0.99 0.495 0.99 0.495 2 1 C1.58637207 1.39791748 1.17274414 1.79583496 0.74658203 2.20581055 C-1.13523816 4.02500909 -3.00511595 5.85603822 -4.875 7.6875 C-5.85146484 8.62625977 -5.85146484 8.62625977 -6.84765625 9.58398438 C-10.20985209 12.8941875 -12.53334423 15.42077477 -14 20 C-15.64488294 21.68816933 -17.31337542 23.35353315 -19 25 C-20.37843192 26.96918846 -21.71810412 28.96664791 -23 31 C-23.66 31.99 -24.32 32.98 -25 34 C-25.66 34 -26.32 34 -27 34 C-27.35384766 35.32257812 -27.35384766 35.32257812 -27.71484375 36.671875 C-29.14259429 40.36927153 -30.83771612 42.39838027 -33.5625 45.25 C-36.64656631 48.36863347 -36.64656631 48.36863347 -39 52 C-39.66 52 -40.32 52 -41 52 C-41.01417969 53.21171875 -41.02835938 54.4234375 -41.04296875 55.671875 C-41.36905549 58.2645787 -41.63092635 59.60271126 -43.42431641 61.53320312 C-45.3337038 62.8962436 -47.27335613 64.090225 -49.3125 65.25 C-50.66530795 66.0634868 -52.01564173 66.88110441 -53.36328125 67.703125 C-53.99830566 68.08533203 -54.63333008 68.46753906 -55.28759766 68.86132812 C-57.4724467 70.31415617 -59.18324571 72.11851574 -61 74 C-61.66 74 -62.32 74 -63 74 C-63 74.66 -63 75.32 -63 76 C-63.61746094 76.1959375 -64.23492188 76.391875 -64.87109375 76.59375 C-71.06979622 78.78263732 -75.17711977 81.52265931 -79.796875 86.1953125 C-82 88 -82 88 -84.74514771 88.74862671 C-88.80660541 90.31011068 -91.30383712 92.77172966 -94.28076172 95.82666016 C-94.87660568 96.42192001 -95.47244965 97.01717987 -96.08634949 97.63047791 C-98.04376618 99.59067029 -99.98665043 101.56462421 -101.9296875 103.5390625 C-103.28787143 104.9047106 -104.64694409 106.26947536 -106.00686646 107.63339233 C-109.5765918 111.21835991 -113.13413955 114.81517816 -116.68927002 118.41461182 C-120.32201549 122.08833992 -123.96616934 125.75071268 -127.609375 129.4140625 C-134.75078405 136.5983176 -141.87937757 143.79514602 -149 151 C-149.66 150.67 -150.32 150.34 -151 150 C-150.19011627 149.19677811 -149.38023254 148.39355621 -148.54580688 147.56599426 C-140.91561492 139.9966088 -133.2933502 132.41932077 -125.67878151 124.83421803 C-121.76377156 120.93486602 -117.84601912 117.03835469 -113.921875 113.14819336 C-110.13519824 109.39410471 -106.35588997 105.63274201 -102.58158493 101.86621666 C-101.14010162 100.43027777 -99.69597971 98.99698267 -98.2491951 97.56638527 C-96.2237036 95.56266002 -94.20778519 93.54975234 -92.19384766 91.53442383 C-91.5932402 90.9446022 -90.99263275 90.35478058 -90.37382507 89.74708557 C-87.29714382 86.64732097 -85.40186516 84.21947047 -84 80 C-81.94140625 77.75390625 -81.94140625 77.75390625 -79.5625 75.5625 C-76.0875176 72.22053128 -74.00502432 69.4110535 -72 65 C-71.154375 64.175 -70.30875 63.35 -69.4375 62.5 C-66.69454076 59.68670847 -66.13487456 57.70725689 -65 54 C-61.87745357 48.53554375 -58.04031289 44.75837159 -52.58203125 41.6015625 C-49.94975217 39.96883266 -47.87794813 38.18124724 -45.625 36.0625 C-42.97877836 33.64847993 -40.57619305 31.60780642 -37.375 30 C-32.94825802 27.37674549 -30.2295657 23.93683206 -27 20 C-24.8549618 17.8549618 -22.83517124 16.99806185 -20.046875 15.87890625 C-19.37140625 15.58886719 -18.6959375 15.29882812 -18 15 C-16.59621094 14.40058594 -16.59621094 14.40058594 -15.1640625 13.7890625 C-11.3262029 11.61901349 -8.64762792 8.98066185 -5.625 5.8125 C-5.07972656 5.25369141 -4.53445313 4.69488281 -3.97265625 4.11914062 C-2.64143231 2.75288448 -1.3197169 1.37737443 0 0 Z " fill="#026AD2" transform="translate(1442,714)"/>
<path d="M0 0 C0.66 0 1.32 0 2 0 C0.87648117 6.06700167 -2.61690495 9.853829 -7 14 C-6.505 14.495 -6.505 14.495 -6 15 C-5.34 14.67 -4.68 14.34 -4 14 C-4.31195313 14.5671875 -4.62390625 15.134375 -4.9453125 15.71875 C-6.01366173 18.02954982 -6.40183141 20.00963899 -6.875 22.5 C-8.8863538 29.60818752 -14.35329988 33.79679094 -19.60791016 38.63647461 C-21.60817652 40.59569728 -23.26760115 42.8044124 -25 45 C-27.92141683 47.82935537 -30.93734196 50.72961411 -35.0859375 51.2734375 C-37.05764726 51.19033862 -39.02884608 51.09537842 -41 51 C-45.94810225 52.71668853 -48.86359393 55.66512564 -52.2890625 59.4765625 C-54 61 -54 61 -55.9453125 61.45703125 C-58.86199703 62.22779009 -60.19012313 63.89962929 -62.25 66.0625 C-62.95640625 66.79597656 -63.6628125 67.52945313 -64.390625 68.28515625 C-64.92171875 68.85105469 -65.4528125 69.41695313 -66 70 C-66.66 69.67 -67.32 69.34 -68 69 C-65.34370993 63.37417811 -61.75205245 58.22404461 -56.875 54.3125 C-52.48042001 50.77772914 -50.17812939 47.9250953 -48.75 42.5 C-47.60872207 38.63623227 -46.46886408 37.29657109 -42.9375 35.375 C-42.22722656 35.00246094 -41.51695312 34.62992188 -40.78515625 34.24609375 C-37.91642313 32.24363015 -37.8329924 29.27247016 -37 26 C-34.11504434 23.63958173 -31.30303281 22.14223989 -27.9375 20.5625 C-24.90056632 19.1551632 -24.90056632 19.1551632 -22.8125 16.625 C-20.02558505 14.02387938 -18.21816371 13.14884211 -14.75 11.75 C-9.2132467 9.41991844 -5.77085264 6.21976974 -1.77734375 1.79296875 C-1.19082031 1.20128906 -0.60429687 0.60960937 0 0 Z " fill="#0048A3" transform="translate(202,157)"/>
<path d="M0 0 C0.99 1.485 0.99 1.485 2 3 C-1.13424784 6.23371134 -4.281874 9.45362326 -7.44213867 12.66186523 C-8.51355032 13.75329422 -9.58133271 14.84829901 -10.64526367 15.94702148 C-12.1822958 17.53300826 -13.73226722 19.10533539 -15.28515625 20.67578125 C-15.75212418 21.16339432 -16.2190921 21.65100739 -16.70021057 22.15339661 C-20.23302722 25.68853384 -23.39879281 27.28818207 -28 29 C-32.39508241 30.68322305 -34.7270949 32.69992071 -37.6875 36.25 C-41.43558077 40.68738299 -45.43325879 43.35920281 -50.39453125 46.30859375 C-53.52538101 48.34106444 -55.8463268 50.71648577 -58.375 53.43359375 C-60.93845587 55.90461732 -63.87450732 57.3170424 -67 59 C-70.50722922 61.88093829 -72.58361917 65.52665245 -73.8125 69.875 C-75.17605587 73.46330493 -77.01196862 75.54596913 -79.56640625 78.3515625 C-81.12719055 80.03482702 -81.12719055 80.03482702 -82.375 82.4375 C-84.50530115 85.79682105 -87.24754348 88.24726549 -90.16015625 90.9375 C-92.11656231 92.85966226 -92.11656231 92.85966226 -92.76229858 95.25492859 C-94.38637961 98.85694304 -96.86302921 101.25867395 -99.64306641 103.98364258 C-100.21881912 104.55983337 -100.79457184 105.13602417 -101.38777161 105.72967529 C-103.28534191 107.62516197 -105.19330306 109.50981128 -107.1015625 111.39453125 C-108.42215225 112.70952356 -109.74207954 114.02518145 -111.06137085 115.34147644 C-114.53015373 118.79882236 -118.00785214 122.24706308 -121.48748779 125.69348145 C-125.03875664 129.21402488 -128.5815148 132.74310974 -132.125 136.27148438 C-139.07503283 143.18937328 -146.03451479 150.09767247 -153 157 C-153.33 156.34 -153.66 155.68 -154 155 C-152.61087093 153.2446735 -151.21338227 151.49596093 -149.8125 149.75 C-149.03519531 148.77546875 -148.25789063 147.8009375 -147.45703125 146.796875 C-145.1429118 144.16267862 -142.75367965 142.14967738 -140 140 C-139.505 139.01 -139.505 139.01 -139 138 C-138.34 138 -137.68 138 -137 138 C-137 137.01 -137 136.02 -137 135 C-135.37946188 133.61096733 -133.70294787 132.28667172 -132 131 C-127.53223803 126.86732017 -124.11781589 122.33008292 -120.8671875 117.21875 C-119.95391032 115.78456658 -118.9818526 114.38813644 -118 113 C-117.34 113 -116.68 113 -116 113 C-115.9071875 112.13375 -115.9071875 112.13375 -115.8125 111.25 C-114.66615826 108.07551517 -112.74043158 106.87151425 -110 105 C-109.34 105 -108.68 105 -108 105 C-107.505 103.515 -107.505 103.515 -107 102 C-106.505 101.54625 -106.01 101.0925 -105.5 100.625 C-103.78478246 99.08907796 -103.78478246 99.08907796 -103.75 96.75 C-102.57868858 92.45519146 -99.48104584 89.68105394 -96 87 C-94.67312045 86.64183867 -93.34035909 86.30385259 -92 86 C-90.75825204 84.0998823 -90.75825204 84.0998823 -90 82 C-89.67 81.34 -89.34 80.68 -89 80 C-89.99 79.505 -89.99 79.505 -91 79 C-89.90558594 77.948125 -89.90558594 77.948125 -88.7890625 76.875 C-86.03154756 74.11554178 -83.70172163 71.13427793 -81.375 68 C-80.61960937 66.989375 -79.86421875 65.97875 -79.0859375 64.9375 C-76.96717849 62.08843256 -76.96717849 62.08843256 -75.4765625 59.125 C-74.98929688 58.42375 -74.50203125 57.7225 -74 57 C-72.68 57 -71.36 57 -70 57 C-69.773125 56.195625 -69.54625 55.39125 -69.3125 54.5625 C-68.879375 53.716875 -68.44625 52.87125 -68 52 C-66.88625 51.814375 -66.88625 51.814375 -65.75 51.625 C-61.95554753 50.76262444 -60.8306717 48.66017717 -58.4609375 45.70703125 C-56.5481697 43.47205925 -54.62580137 42.31290068 -52 41 C-51.34515625 40.649375 -50.6903125 40.29875 -50.015625 39.9375 C-44.42621528 37 -44.42621528 37 -41 37 C-40.9175 36.401875 -40.835 35.80375 -40.75 35.1875 C-39.79055618 32.38912218 -38.3258784 31.7444088 -36 30 C-35.835 29.319375 -35.67 28.63875 -35.5 27.9375 C-35.335 27.298125 -35.17 26.65875 -35 26 C-33.0625 24.875 -33.0625 24.875 -31 24 C-30.34 23.34 -29.68 22.68 -29 22 C-27.865625 21.54625 -26.73125 21.0925 -25.5625 20.625 C-22.04023092 19.01835095 -21.0398191 18.11340811 -19 15 C-18.34 15 -17.68 15 -17 15 C-17 14.34 -17 13.68 -17 13 C-16.34 13 -15.68 13 -15 13 C-14.67 12.01 -14.34 11.02 -14 10 C-12.2578125 9.15625 -12.2578125 9.15625 -10.125 8.5 C-6.97764586 7.52443636 -5.10810416 6.57516915 -3 4 C-2.67 3.01 -2.34 2.02 -2 1 C-1.34 0.67 -0.68 0.34 0 0 Z " fill="#0044A1" transform="translate(1450,702)"/>
<path d="M0 0 C0 4.85089963 -2.40896448 7.38147446 -5.6875 10.8125 C-6.450625 11.534375 -7.21375 12.25625 -8 13 C-7.505 13.495 -7.505 13.495 -7 14 C-6.34 13.67 -5.68 13.34 -5 13 C-5.31195313 13.5671875 -5.62390625 14.134375 -5.9453125 14.71875 C-7.01366173 17.02954982 -7.40183141 19.00963899 -7.875 21.5 C-9.8863538 28.60818752 -15.35329988 32.79679094 -20.60791016 37.63647461 C-22.60817652 39.59569728 -24.26760115 41.8044124 -26 44 C-28.92141683 46.82935537 -31.93734196 49.72961411 -36.0859375 50.2734375 C-38.05764726 50.19033862 -40.02884608 50.09537842 -42 50 C-46.99352991 51.73244915 -49.9821933 54.76441298 -53.484375 58.57421875 C-55 60 -55 60 -57 60 C-55.65090356 57.01873413 -54.12791358 54.84197361 -51.8828125 52.46875 C-51.27566406 51.82292969 -50.66851562 51.17710937 -50.04296875 50.51171875 C-49.41003906 49.84785156 -48.77710938 49.18398437 -48.125 48.5 C-47.49980469 47.83613281 -46.87460938 47.17226562 -46.23046875 46.48828125 C-45.0235358 45.20990195 -43.81133948 43.93646587 -42.59326172 42.66870117 C-41.31416269 41.329038 -40.06585451 39.96000708 -38.828125 38.58203125 C-36.67553931 36.71921671 -35.42294682 36.47711204 -32.625 36.1875 C-28.14783623 35.30962475 -26.17444981 33.88624167 -23.42578125 30.29296875 C-21.76024362 27.6144192 -20.4408444 24.83694683 -19.0625 22 C-14.5095339 13.11136845 -7.25984784 6.71378407 0 0 Z " fill="#003381" transform="translate(203,158)"/>
<path d="M0 0 C0.99 0.495 0.99 0.495 2 1 C1.58637207 1.39791748 1.17274414 1.79583496 0.74658203 2.20581055 C-1.13523816 4.02500909 -3.00511595 5.85603822 -4.875 7.6875 C-5.52597656 8.31333984 -6.17695312 8.93917969 -6.84765625 9.58398438 C-10.26929294 12.95270916 -12.32695902 15.45565895 -14 20 C-16.296875 22.49609375 -16.296875 22.49609375 -19 25 C-20.75369938 26.68365517 -22.50373634 28.37113385 -24.25 30.0625 C-25.12140625 30.89910156 -25.9928125 31.73570312 -26.890625 32.59765625 C-28.99712081 34.99672092 -29.35692542 36.01563447 -30 39 C-31.41796875 40.45703125 -31.41796875 40.45703125 -33.1875 41.8125 C-38.25487636 45.95570321 -42.29147114 50.14423918 -44.9375 56.1875 C-47.01256553 60.67766281 -49.51262222 62.04187151 -54 64 C-54.99 64 -55.98 64 -57 64 C-57 64.66 -57 65.32 -57 66 C-57.66 66 -58.32 66 -59 66 C-59 66.66 -59 67.32 -59 68 C-59.66 68 -60.32 68 -61 68 C-61.24234375 68.61875 -61.4846875 69.2375 -61.734375 69.875 C-63.29544853 72.49606173 -64.43386959 72.92718842 -67.25 74 C-73.07134792 76.39207876 -77.69526879 79.36413562 -82 84 C-82.66 83.67 -83.32 83.34 -84 83 C-79.45039225 78.42485803 -74.89672678 73.85378313 -70.34033203 69.28540039 C-68.79351499 67.73358112 -67.24759993 66.18086219 -65.70263672 64.62719727 C-63.47084213 62.3831559 -61.23573155 60.14246196 -59 57.90234375 C-58.31945557 57.21663803 -57.63891113 56.53093231 -56.93774414 55.82444763 C-53.75903834 52.6453781 -50.54748065 49.56649705 -47.13671875 46.63671875 C-42.1196184 42.30517329 -37.48381813 37.60828465 -32.8125 32.91015625 C-31.86008388 31.95587007 -30.90744305 31.00180812 -29.95458984 30.04795837 C-27.47333075 27.5629203 -24.99509209 25.07489204 -22.51751709 22.58618164 C-19.97837515 20.03672504 -17.43632354 17.49017312 -14.89453125 14.94335938 C-9.92687118 9.96504369 -4.96240314 4.98355629 0 0 Z " fill="#139FF4" transform="translate(1442,714)"/>
<path d="M0 0 C-1.36892937 3.09703328 -2.92117359 5.11761608 -5.375 7.4375 C-7.41081474 9.40642965 -9.19765352 11.2550368 -10.9375 13.5 C-12.73138701 15.6744085 -14.41975118 17.26241749 -16.5625 19.0625 C-21.25020737 23.05670759 -25.28213164 27.55869976 -29.38671875 32.1328125 C-31.85275162 34.83844497 -34.39918323 37.42468144 -37 40 C-37.62003906 40.65484375 -38.24007812 41.3096875 -38.87890625 41.984375 C-39.43449219 42.56703125 -39.99007812 43.1496875 -40.5625 43.75 C-41.12066406 44.34296875 -41.67882812 44.9359375 -42.25390625 45.546875 C-44 47 -44 47 -45.9609375 47.4375 C-48.8890161 48.24524582 -50.06617816 49.99620862 -52.0625 52.25 C-56.17640339 56.54011671 -59.97412554 58.61830168 -65.43359375 60.8203125 C-68.61976534 62.28488452 -70.7902039 64.20844708 -73.30859375 66.60546875 C-75.19715202 68.16254797 -76.99349533 68.94536922 -79.25 69.875 C-81.66453411 70.97587954 -82.74302067 71.49648765 -83.9609375 73.8828125 C-84.39946832 75.28095195 -84.82045467 76.68473009 -85.22265625 78.09375 C-86.53478077 81.31142219 -89.01855017 82.47755754 -92 84 C-92.66 84 -93.32 84 -94 84 C-94.144375 85.27875 -94.28875 86.5575 -94.4375 87.875 C-95.81750457 94.40148778 -100.38678678 98.45323224 -105 103 C-105 99.74126195 -104.4187858 98.83757161 -103 96 C-102.71125 94.845 -102.4225 93.69 -102.125 92.5 C-100.92681211 88.77230433 -99.82929219 87.57208381 -97 85 C-95.98133771 83.34467377 -94.98189187 81.67739862 -94 80 C-92.67189785 78.32916181 -91.33827304 76.66270287 -90 75 C-89.360625 74.01 -88.72125 73.02 -88.0625 72 C-82.71739849 64.2253069 -74.08056492 57.8301094 -65 55 C-64.01 55.33 -63.02 55.66 -62 56 C-61.505 55.01 -61.505 55.01 -61 54 C-59.2578125 52.74609375 -59.2578125 52.74609375 -57.125 51.4375 C-56.42632812 51.00308594 -55.72765625 50.56867188 -55.0078125 50.12109375 C-53 49 -53 49 -50 48 C-49.32096483 46.67292296 -48.65599456 45.33861621 -48 44 C-46.16015625 42.18359375 -46.16015625 42.18359375 -44.0625 40.4375 C-41.1497409 37.9960553 -41.1497409 37.9960553 -38.40234375 35.375 C-37 34 -37 34 -34.5 32.5625 C-31.92751794 30.95469871 -30.75312049 29.42097591 -29 27 C-28.34 27 -27.68 27 -27 27 C-27 26.34 -27 25.68 -27 25 C-25.71484375 23.7734375 -25.71484375 23.7734375 -23.9375 22.375 C-21.28419899 20.17715585 -18.97801554 17.93972414 -16.75 15.3125 C-13.69771319 11.73179908 -10.49370533 8.3444367 -7.1875 5 C-6.70700195 4.50669189 -6.22650391 4.01338379 -5.73144531 3.50512695 C-2.23685916 0 -2.23685916 0 0 0 Z " fill="#003480" transform="translate(249,111)"/>
<path d="M0 0 C0 3 0 3 -1.25396442 4.62771058 C-1.84806708 5.22121615 -2.44216974 5.81472172 -3.05427551 6.42621231 C-3.73557085 7.11409749 -4.41686619 7.80198267 -5.11880684 8.51071286 C-5.8798667 9.26371631 -6.64092655 10.01671977 -7.42504883 10.7925415 C-8.22386412 11.59462563 -9.02267941 12.39670976 -9.84570122 13.22309947 C-12.54237201 15.92709214 -15.24968953 18.6201711 -17.95703125 21.31347656 C-19.8863831 23.24195651 -21.81347869 25.17268541 -23.74067688 27.10331726 C-28.44559232 31.81387712 -33.15846371 36.51639986 -37.8739863 41.21633872 C-43.36682992 46.69166295 -48.85162567 52.17501918 -54.33604383 57.65878066 C-64.12731088 67.44835789 -73.92563049 77.23084558 -83.72802734 87.00927734 C-93.23312917 96.49115781 -102.73370753 105.97753829 -112.22900391 115.46923828 C-112.81291881 116.05293042 -113.39683371 116.63662255 -113.99844301 117.23800233 C-115.17480103 118.41391774 -116.35115876 119.58983344 -117.52751619 120.76574944 C-118.10785464 121.34586832 -118.68819309 121.92598721 -119.28611755 122.52368546 C-119.86501541 123.10236732 -120.44391326 123.68104919 -121.04035348 124.27726687 C-130.09344686 133.32665223 -139.15036571 142.37220836 -148.20780557 151.41724308 C-151.48687255 154.69188356 -154.76544709 157.96701613 -158.0436781 161.24249348 C-163.24936251 166.44373167 -168.45672644 171.64327641 -173.66743785 176.83947882 C-176.0473064 179.21277036 -178.42615685 181.58705733 -180.80340004 183.96298027 C-183.38632443 186.54414894 -185.97230345 189.12221863 -188.55908203 191.69952393 C-189.30229611 192.44360449 -190.0455102 193.18768506 -190.81124592 193.95431352 C-194.83878335 197.95981834 -198.95749951 201.79665696 -203.269804 205.49470305 C-205.74690869 207.64982197 -208.06118629 209.94906871 -210.375 212.27734375 C-211.29667969 213.20224609 -212.21835938 214.12714844 -213.16796875 215.08007812 C-214.11203607 216.03249568 -215.05604582 216.98497031 -216 217.9375 C-216.97502386 218.9175531 -217.9502828 219.8973724 -218.92578125 220.87695312 C-221.28616618 223.24902313 -223.64416905 225.6234086 -226 228 C-226.66 227.67 -227.32 227.34 -228 227 C-223.55614999 222.53068893 -219.10830037 218.06538694 -214.65771484 213.6027832 C-213.14573388 212.08578925 -211.63465366 210.56789695 -210.12451172 209.04907227 C-207.94738057 206.85974229 -205.76697634 204.67371753 -203.5859375 202.48828125 C-202.91694427 201.81412674 -202.24795105 201.13997223 -201.5586853 200.44538879 C-198.73859934 197.62497012 -195.92496289 194.87335151 -192.83837891 192.34448242 C-190.03351981 190.02768715 -187.55842314 187.58663709 -185 185 C-183.8325238 183.83117479 -182.66431251 182.66308356 -181.49554729 181.49554729 C-180.84116387 180.84116387 -180.18678045 180.18678045 -179.51256722 179.51256722 C-123.56997788 123.56997788 -67.62738854 67.62738854 0 0 Z " fill="#035BB1" transform="translate(1671,486)"/>
<path d="M0 0 C-1.34647648 6.16711512 -4.82729646 9.36456294 -9.18432617 13.62255859 C-9.92439911 14.36160934 -10.66447205 15.1006601 -11.42697144 15.86210632 C-13.87308977 18.30034829 -16.33295954 20.72421798 -18.79296875 23.1484375 C-20.50064486 24.84610608 -22.20736242 26.54473936 -23.91316223 28.24429321 C-28.40804123 32.71823681 -32.91434611 37.18048812 -37.42358398 41.63995361 C-44.62594863 48.76708819 -51.80990272 55.91279062 -58.99572182 63.05659866 C-61.5001668 65.54343647 -64.00883639 68.02594461 -66.51835632 70.50765991 C-68.06852817 72.0446 -69.61864593 73.58159466 -71.16870117 75.11865234 C-71.86039902 75.80047073 -72.55209686 76.48228912 -73.26475525 77.18476868 C-77.14601778 81.03990813 -80.81048123 85.01324114 -84.38352108 89.15502357 C-86.61802078 91.70538116 -88.98427948 94.10391236 -91.38452148 96.49804688 C-91.8732222 96.98689362 -92.36192291 97.47574036 -92.86543274 97.97940063 C-94.4482892 99.56157189 -96.03463474 101.14019185 -97.62109375 102.71875 C-98.73232123 103.82810833 -99.84332512 104.93769067 -100.95411682 106.04748535 C-103.85344371 108.94302616 -106.75576272 111.83554907 -109.65875244 114.72741699 C-112.63046306 117.68882864 -115.59928267 120.65313554 -118.56835938 123.6171875 C-124.3761082 129.4142681 -130.18702673 135.2081582 -136 141 C-136 138 -136 138 -134.18334961 135.85864258 C-133.34811768 135.04548584 -132.51288574 134.2323291 -131.65234375 133.39453125 C-130.27852539 132.04198242 -130.27852539 132.04198242 -128.87695312 130.66210938 C-127.89757269 129.71178873 -126.91775212 128.76192148 -125.9375 127.8125 C-120.28914858 122.29541581 -114.68780351 116.82360444 -109.55786133 110.81616211 C-106.59945428 107.36723717 -103.46574896 104.07673145 -100.36328125 100.7578125 C-97.11619617 97.26486458 -94.03720421 93.67688934 -91 90 C-87.7993825 86.54670217 -84.48498649 83.86048081 -80.64453125 81.19140625 C-77.33373649 78.79284947 -75.2979802 76.89394059 -74 73 C-72.64247685 72.11880076 -71.28244244 71.24131475 -69.91259766 70.37939453 C-65.5750531 67.2510914 -61.93921976 63.22823848 -58.1875 59.4375 C-57.29474365 58.54087646 -56.4019873 57.64425293 -55.48217773 56.72045898 C-50.25651462 51.42577858 -45.26873697 46.11041758 -40.75390625 40.19140625 C-38.67777125 37.59739348 -36.35937188 35.33704344 -34 33 C-32.40935497 31.14364903 -30.86842381 29.25670387 -29.33203125 27.35546875 C-28.89246094 26.90816406 -28.45289062 26.46085937 -28 26 C-27.34 26 -26.68 26 -26 26 C-25.62875 25.13375 -25.62875 25.13375 -25.25 24.25 C-23.81700012 21.67060021 -22.21575324 19.93878408 -20 18 C-19.34 18 -18.68 18 -18 18 C-18 17.34 -18 16.68 -18 16 C-17.34 16 -16.68 16 -16 16 C-16 15.34 -16 14.68 -16 14 C-15.34 14 -14.68 14 -14 14 C-13.34 12.68 -12.68 11.36 -12 10 C-11.34 10 -10.68 10 -10 10 C-9.79375 9.46375 -9.5875 8.9275 -9.375 8.375 C-7.43786251 5.02903524 -4.15282732 0 0 0 Z " fill="#02377A" transform="translate(137,222)"/>
<path d="M0 0 C0.495 1.485 0.495 1.485 1 3 C0.14245117 3.83660156 -0.71509766 4.67320312 -1.59863281 5.53515625 C-4.79953848 8.66326502 -7.9868628 11.80491866 -11.17041016 14.95068359 C-12.5460144 16.30626261 -13.92519899 17.65821889 -15.30810547 19.00634766 C-17.30364624 20.95297106 -19.28563598 22.91257504 -21.265625 24.875 C-21.87931946 25.46804932 -22.49301392 26.06109863 -23.12530518 26.67211914 C-26.69814692 30.24310074 -29.11287283 33.61635325 -31.15957642 38.2456665 C-32.39355966 40.82153204 -34.15871833 42.70147841 -36.125 44.75 C-38.67443621 47.42450289 -40.41053973 49.6850167 -42 53 C-43.27665227 54.9407283 -44.59227237 56.85615999 -45.9375 58.75 C-46.62714844 59.73484375 -47.31679687 60.7196875 -48.02734375 61.734375 C-49.00380859 62.85585938 -49.00380859 62.85585938 -50 64 C-50.99 64 -51.98 64 -53 64 C-55.58618137 66.22068712 -55.58618137 66.22068712 -58.1875 69 C-59.08855469 69.928125 -59.98960938 70.85625 -60.91796875 71.8125 C-61.94857422 72.8953125 -61.94857422 72.8953125 -63 74 C-63 69.82278665 -60.70325289 67.91686143 -58 65 C-56.33333333 63.33333333 -54.66666667 61.66666667 -53 60 C-50.70369007 57.44854452 -50.02364071 56.11390524 -49.3125 52.6875 C-47.48659394 47.55757346 -44.17497034 45.296487 -40 42 C-37.87274215 40.1674559 -37.87274215 40.1674559 -37.23876953 37.75927734 C-35.58736252 34.08087725 -33.01985539 31.62856631 -30.1796875 28.8515625 C-29.60219757 28.27594574 -29.02470764 27.70032898 -28.42971802 27.10726929 C-27.20761967 25.89187887 -25.98193589 24.68008442 -24.75292969 23.47167969 C-22.89529876 21.64496097 -21.04831823 19.80802283 -19.203125 17.96875 C-13.30209176 12.10720189 -7.35471187 6.37355349 -1 1 C-0.67 0.67 -0.34 0.34 0 0 Z " fill="#003F9E" transform="translate(1481,678)"/>
<path d="M0 0 C0.66 0 1.32 0 2 0 C1.73864047 6.40330849 -0.40147535 9.60944882 -5 14 C-5.721875 14.495 -6.44375 14.99 -7.1875 15.5 C-9.98533635 17.81545077 -10.72825841 20.62988478 -12 24 C-12.66 24 -13.32 24 -14 24 C-14 24.66 -14 25.32 -14 26 C-14.66 26 -15.32 26 -16 26 C-16.5 23.5 -16.5 23.5 -16 20 C-12.66373075 15.63901948 -9.44404788 12.17582028 -4 11 C-2.75825204 9.0998823 -2.75825204 9.0998823 -2 7 C-1.67 6.34 -1.34 5.68 -1 5 C-1.66 4.67 -2.32 4.34 -3 4 C-1.625 2 -1.625 2 0 0 Z M-17 26 C-16.505 26.99 -16.505 26.99 -16 28 C-17.91622824 31.94517578 -20.67507169 35.03385761 -23.59765625 38.25390625 C-25.05815066 39.92716531 -25.05815066 39.92716531 -25.85543823 41.86273193 C-27.18090036 44.33779965 -28.72407461 45.96431253 -30.71533203 47.94238281 C-31.47596954 48.70286926 -32.23660706 49.46335571 -33.02029419 50.24688721 C-33.84117523 51.05744568 -34.66205627 51.86800415 -35.5078125 52.703125 C-36.34843231 53.54091492 -37.18905212 54.37870483 -38.05514526 55.24188232 C-40.74044001 57.91598431 -43.43260655 60.58304724 -46.125 63.25 C-47.94707155 65.06204062 -49.76869177 66.87453518 -51.58984375 68.6875 C-56.05467252 73.13028036 -60.52516283 77.56730165 -65 82 C-65.33 81.34 -65.66 80.68 -66 80 C-64.61087093 78.2446735 -63.21338227 76.49596093 -61.8125 74.75 C-60.64654297 73.28820312 -60.64654297 73.28820312 -59.45703125 71.796875 C-57.1429118 69.16267862 -54.75367965 67.14967738 -52 65 C-51.67 64.34 -51.34 63.68 -51 63 C-50.34 63 -49.68 63 -49 63 C-49 62.01 -49 61.02 -49 60 C-47.37946188 58.61096733 -45.70294787 57.28667172 -44 56 C-39.53223803 51.86732017 -36.11781589 47.33008292 -32.8671875 42.21875 C-31.95391032 40.78456658 -30.9818526 39.38813644 -30 38 C-29.34 38 -28.68 38 -28 38 C-27.9071875 37.13375 -27.9071875 37.13375 -27.8125 36.25 C-26.66615826 33.07551517 -24.74043158 31.87151425 -22 30 C-21.34 30 -20.68 30 -20 30 C-19.67 29.01 -19.34 28.02 -19 27 C-18.34 26.67 -17.68 26.34 -17 26 Z " fill="#00398D" transform="translate(1362,777)"/>
<path d="M0 0 C0.66 0.33 1.32 0.66 2 1 C1.32795532 1.61705811 1.32795532 1.61705811 0.64233398 2.24658203 C-7.94187433 10.21960621 -14.88462386 17.29239626 -19.640625 28.0546875 C-21.56874275 32.23227597 -23.25813337 34.30585603 -27 37 C-29.23805944 37.57080782 -31.46137074 37.94126268 -33.7421875 38.30078125 C-37.83433163 39.56807156 -40.32682838 42.78531773 -43 46 C-43 43 -43 43 -41.50390625 41.421875 C-40.54291016 40.59429687 -40.54291016 40.59429687 -39.5625 39.75 C-35.9010222 36.27853901 -35.54849761 34.02789476 -35 29 C-31.81016178 24.16967355 -29.43569975 22.61914461 -24 21 C-22.64631404 19.68733482 -21.31200404 18.35432675 -20 17 C-19.21278564 16.7004541 -18.42557129 16.4009082 -17.61450195 16.09228516 C-14.80280598 14.91761639 -13.34359967 13.69169358 -11.23046875 11.5234375 C-10.56982422 10.853125 -9.90917969 10.1828125 -9.22851562 9.4921875 C-8.55498047 8.79351562 -7.88144531 8.09484375 -7.1875 7.375 C-6.49462891 6.66859375 -5.80175781 5.9621875 -5.08789062 5.234375 C-3.38493121 3.49618194 -1.68938808 1.75136939 0 0 Z " fill="#0160C5" transform="translate(202,157)"/>
<path d="M0 0 C-0.7425 0.721875 -1.485 1.44375 -2.25 2.1875 C-4.99083376 4.86132695 -4.99083376 4.86132695 -6.9375 7.625 C-9.69351828 10.79859681 -12.78302728 12.59570237 -16.94921875 13.35546875 C-19.63578271 14.19981742 -20.86784589 15.53863391 -22.8125 17.5625 C-23.84310547 18.63177734 -23.84310547 18.63177734 -24.89453125 19.72265625 C-28.00380893 23.08575252 -31.03159654 26.51212594 -34 30 C-34.66 29.01 -35.32 28.02 -36 27 C-33 24 -30 21 -27 18 C-27.33 17.34 -27.66 16.68 -28 16 C-22.77281769 12.15962116 -17.5708279 8.59747564 -11.625 5.9375 C-9.64235617 5.03325133 -9.64235617 5.03325133 -9 2 C-5.99208089 -0.04108797 -3.57804656 -0.19878036 0 0 Z M-30 18 C-29.34 18.33 -28.68 18.66 -28 19 C-31.16239582 22.19176092 -34.33068759 25.3776081 -37.5 28.5625 C-38.386875 29.45775391 -39.27375 30.35300781 -40.1875 31.27539062 C-52.28012297 43.41247177 -52.28012297 43.41247177 -56 46 C-56.99 46 -57.98 46 -59 46 C-54.54013009 40.66769857 -49.84968379 35.66677033 -44.9375 30.75 C-44.24333984 30.04359375 -43.54917969 29.3371875 -42.83398438 28.609375 C-39.41812597 25.1837848 -36.29941744 22.30354109 -32 20 C-31.34 19.34 -30.68 18.68 -30 18 Z " fill="#0048AF" transform="translate(1379,792)"/>
<path d="M0 0 C0.66 0.99 1.32 1.98 2 3 C-1.13424784 6.23371134 -4.281874 9.45362326 -7.44213867 12.66186523 C-8.51355032 13.75329422 -9.58133271 14.84829901 -10.64526367 15.94702148 C-12.1822958 17.53300826 -13.73226722 19.10533539 -15.28515625 20.67578125 C-15.75212418 21.16339432 -16.2190921 21.65100739 -16.70021057 22.15339661 C-20.23396992 25.68947716 -23.40126471 27.28032045 -28 29 C-31.95978029 30.64990845 -34.49222129 32.39546908 -37.375 35.5 C-40.93969038 39.24729144 -44.02147031 40.64989025 -49 42 C-49.66 41.67 -50.32 41.34 -51 41 C-44.375 37 -44.375 37 -41 37 C-40.9175 36.401875 -40.835 35.80375 -40.75 35.1875 C-39.79055618 32.38912218 -38.3258784 31.7444088 -36 30 C-35.835 29.319375 -35.67 28.63875 -35.5 27.9375 C-35.335 27.298125 -35.17 26.65875 -35 26 C-33.0625 24.875 -33.0625 24.875 -31 24 C-30.34 23.34 -29.68 22.68 -29 22 C-27.865625 21.54625 -26.73125 21.0925 -25.5625 20.625 C-22.04023092 19.01835095 -21.0398191 18.11340811 -19 15 C-18.34 15 -17.68 15 -17 15 C-17 14.34 -17 13.68 -17 13 C-16.34 13 -15.68 13 -15 13 C-14.67 12.01 -14.34 11.02 -14 10 C-12.2578125 9.15625 -12.2578125 9.15625 -10.125 8.5 C-6.97764586 7.52443636 -5.10810416 6.57516915 -3 4 C-2.67 3.01 -2.34 2.02 -2 1 C-1.34 0.67 -0.68 0.34 0 0 Z " fill="#003E98" transform="translate(1450,702)"/>
<path d="M0 0 C0.495 1.485 0.495 1.485 1 3 C-0.28965176 4.37562854 -1.62689293 5.70766393 -3 7 C-3.66 7 -4.32 7 -5 7 C-5.268125 7.639375 -5.53625 8.27875 -5.8125 8.9375 C-7 11 -7 11 -10 12 C-10.020625 12.969375 -10.04125 13.93875 -10.0625 14.9375 C-11.10825919 22.40937366 -17.93182039 27.93182039 -23 33 C-24.04892238 34.63631892 -25.04906703 36.30485863 -26 38 C-29.05009177 43.04438255 -32.7865368 47.20527019 -36.78125 51.53515625 C-38.95697423 53.952202 -40.99346402 56.44166662 -43 59 C-43.125 53.25 -43.125 53.25 -42 51 C-41.34 51 -40.68 51 -40 51 C-39.74089844 50.41992188 -39.48179688 49.83984375 -39.21484375 49.2421875 C-37.91114559 46.83600505 -36.42702444 45.12184553 -34.5625 43.125 C-31.6582695 39.89404357 -29.69413806 36.98620719 -28 33 C-27.34 33 -26.68 33 -26 33 C-25.7525 32.46375 -25.505 31.9275 -25.25 31.375 C-21.0212766 23.34042553 -21.0212766 23.34042553 -17 22 C-15.76983289 19.97384241 -15.01750697 18.06016031 -14.35546875 15.78515625 C-12.42727034 11.82318084 -9.53085704 9.211863 -6.375 6.1875 C-5.76398438 5.59001953 -5.15296875 4.99253906 -4.5234375 4.37695312 C-3.02235161 2.91104894 -1.51207138 1.45457007 0 0 Z M-43 59 C-43.99766109 61.49415272 -44.68616685 62.78740335 -46.9375 64.3125 C-49 65 -49 65 -52 64 C-50.87926138 63.16094435 -49.75325453 62.32892169 -48.625 61.5 C-47.99851562 61.0359375 -47.37203125 60.571875 -46.7265625 60.09375 C-45 59 -45 59 -43 59 Z M-53 66 C-53 66.66 -53 67.32 -53 68 C-56.46153846 71 -56.46153846 71 -59 71 C-56.74193548 66 -56.74193548 66 -53 66 Z " fill="#0054C3" transform="translate(1443,715)"/>
<path d="M0 0 C0 3 0 3 -1.25104046 4.62297726 C-2.1372821 5.50701906 -2.1372821 5.50701906 -3.04142761 6.40892029 C-3.71574829 7.08881012 -4.39006897 7.76869995 -5.08482361 8.4691925 C-5.8343782 9.20953232 -6.5839328 9.94987213 -7.35620117 10.71264648 C-8.5292128 11.88872467 -8.5292128 11.88872467 -9.72592163 13.08856201 C-12.32440062 15.69005973 -14.93349512 18.28062811 -17.54296875 20.87109375 C-19.34761254 22.67268085 -21.15166698 24.47485848 -22.95515442 26.27760315 C-26.74299133 30.06082958 -30.53549977 33.8392765 -34.33227539 37.61352539 C-39.19733857 42.44978118 -44.05316656 47.29519901 -48.90607738 52.14364529 C-52.63448056 55.86848698 -56.3663079 59.58989146 -60.09887123 63.31056404 C-61.88987685 65.09587388 -63.68041588 66.88165193 -65.47047997 68.66790581 C-67.97667012 71.16721097 -70.48620749 73.66310341 -72.99682617 76.15795898 C-74.10597633 77.26543236 -74.10597633 77.26543236 -75.23753357 78.39527893 C-78.69088034 81.81998168 -82.16187161 85.00209532 -86 88 C-87.76323505 90.12603185 -87.76323505 90.12603185 -89 92 C-89.66 91.67 -90.32 91.34 -91 91 C-84.65411532 83.41589391 -77.63161144 76.5370429 -70.60644531 69.59057617 C-69.59990157 68.59397549 -68.59959248 67.59099412 -67.60870361 66.5788269 C-66.01534446 65.01505949 -64.36080107 63.58705575 -62.65429688 62.14819336 C-56.31205001 56.62379196 -50.46260895 50.58571696 -44.53125 44.62890625 C-43.24252928 43.33831715 -41.95358515 42.0479511 -40.66442871 40.75779724 C-37.29542172 37.38499816 -33.92943045 34.00920538 -30.56408691 30.63275146 C-27.12008377 27.17846255 -23.67319751 23.72705315 -20.2265625 20.27539062 C-13.48157161 13.51972087 -6.73976742 6.76088066 0 0 Z " fill="#013D87" transform="translate(1535,704)"/>
<path d="M0 0 C0.99 0.99 0.99 0.99 2 2 C-20.33333333 24.33333333 -42.66666667 46.66666667 -65 69 C-65 66 -65 66 -63.44287109 64.11816406 C-62.72695801 63.42432617 -62.01104492 62.73048828 -61.2734375 62.015625 C-60.48839844 61.24476563 -59.70335937 60.47390625 -58.89453125 59.6796875 C-58.06308594 58.87789062 -57.23164062 58.07609375 -56.375 57.25 C-49.13925335 50.23719013 -49.13925335 50.23719013 -42.47119141 42.69433594 C-40.43093716 40.34462394 -38.21177916 38.18603726 -36 36 C-34.70853018 34.70992723 -33.41782919 33.41908457 -32.12768555 32.12768555 C-21.41845703 21.41845703 -10.70922852 10.70922852 0 0 Z " fill="#001740" transform="translate(1430,521)"/>
<path d="M0 0 C0 3 0 3 -1.25341797 4.54638672 C-1.82721191 5.08537598 -2.40100586 5.62436523 -2.9921875 6.1796875 C-3.61480469 6.77910156 -4.23742188 7.37851562 -4.87890625 7.99609375 C-6.20159403 9.24112863 -7.52450794 10.48592331 -8.84765625 11.73046875 C-12.22137939 14.97898154 -14.60786697 17.41320331 -16 22 C-19.37623762 26.79207921 -19.37623762 26.79207921 -23 28 C-24.68997323 29.64302953 -26.35216394 31.31471312 -28 33 C-29.15380739 34.05589254 -30.32104652 35.09726012 -31.5 36.125 C-32.0465625 36.60195313 -32.593125 37.07890625 -33.15625 37.5703125 C-35 39 -35 39 -37.38671875 40.35546875 C-40.47444475 42.29856688 -42.76940801 44.57659222 -45.3125 47.1875 C-46.19550781 48.08855469 -47.07851562 48.98960937 -47.98828125 49.91796875 C-48.65214844 50.60503906 -49.31601563 51.29210937 -50 52 C-50.66 51.67 -51.32 51.34 -52 51 C-47.45039225 46.42485803 -42.89672678 41.85378313 -38.34033203 37.28540039 C-36.79351499 35.73358112 -35.24759993 34.18086219 -33.70263672 32.62719727 C-31.47084213 30.3831559 -29.23573155 28.14246196 -27 25.90234375 C-26.31945557 25.21663803 -25.63891113 24.53093231 -24.93774414 23.82444763 C-21.01589556 19.90215029 -16.9927853 16.16396588 -12.7800293 12.55517578 C-10.06180978 10.18032208 -7.52788595 7.63667118 -5 5.0625 C-4.26716797 4.32290039 -4.26716797 4.32290039 -3.51953125 3.56835938 C-2.34396475 2.38126771 -1.17161174 1.19099502 0 0 Z " fill="#1CBCFC" transform="translate(1410,746)"/>
<path d="M0 0 C0.66 0.99 1.32 1.98 2 3 C-16.66666667 21.66666667 -35.33333333 40.33333333 -54 59 C-54 56 -54 56 -52.18334961 53.85864258 C-51.34811768 53.04548584 -50.51288574 52.2323291 -49.65234375 51.39453125 C-48.73646484 50.49283203 -47.82058594 49.59113281 -46.87695312 48.66210938 C-45.89757269 47.71178873 -44.91775212 46.76192148 -43.9375 45.8125 C-38.28914858 40.29541581 -32.68780351 34.82360444 -27.55786133 28.81616211 C-24.59945428 25.36723717 -21.46574896 22.07673145 -18.36328125 18.7578125 C-15.93670238 16.14749789 -13.56608544 13.51521361 -11.29296875 10.76953125 C-7.90170995 6.67344524 -4.35484632 3.06452148 0 0 Z " fill="#012254" transform="translate(55,304)"/>
<path d="M0 0 C0 3 0 3 -1.84436035 5.21185303 C-2.70847534 6.07232239 -3.57259033 6.93279175 -4.46289062 7.81933594 C-5.1751329 8.53464478 -5.1751329 8.53464478 -5.90176392 9.2644043 C-7.47942846 10.84508528 -9.06760584 12.41473525 -10.65625 13.984375 C-11.75868026 15.083746 -12.86051928 16.18371017 -13.96179199 17.28424072 C-16.27762125 19.59545977 -18.59827965 21.90167635 -20.92285156 24.20410156 C-23.8838014 27.13696733 -26.83619413 30.07825263 -29.7853775 33.0229454 C-32.6142015 35.84657272 -35.44767384 38.66551814 -38.28125 41.484375 C-38.81357742 42.0148217 -39.34590485 42.5452684 -39.8943634 43.09178925 C-45.22536652 48.39850727 -50.58115241 53.61949419 -56.29577637 58.51791382 C-58.76445281 60.66481002 -61.06950167 62.95743606 -63.375 65.27734375 C-64.29667969 66.20224609 -65.21835938 67.12714844 -66.16796875 68.08007812 C-67.11203607 69.03249568 -68.05604582 69.98497031 -69 70.9375 C-69.97502386 71.9175531 -70.9502828 72.8973724 -71.92578125 73.87695312 C-74.28616618 76.24902313 -76.64416905 78.6234086 -79 81 C-79.66 80.67 -80.32 80.34 -81 80 C-76.55614999 75.53068893 -72.10830037 71.06538694 -67.65771484 66.6027832 C-66.14573388 65.08578925 -64.63465366 63.56789695 -63.12451172 62.04907227 C-60.94738057 59.85974229 -58.76697634 57.67371753 -56.5859375 55.48828125 C-55.91694427 54.81412674 -55.24795105 54.13997223 -54.5586853 53.44538879 C-51.73859934 50.62497012 -48.92496289 47.87335151 -45.83837891 45.34448242 C-43.03385636 43.02796513 -40.54186378 40.60125203 -38 38 C-36.64942069 36.64664194 -35.29728576 35.29483553 -33.9440918 33.9440918 C-33.18368088 33.18368088 -32.42326996 32.42326996 -31.63981628 31.63981628 C-21.09321086 21.09321086 -10.54660543 10.54660543 0 0 Z " fill="#0678CB" transform="translate(1524,633)"/>
<path d="M0 0 C0.99 0.33 1.98 0.66 3 1 C2.52949219 1.51949219 2.05898437 2.03898438 1.57421875 2.57421875 C-2.25245723 6.7993724 -2.25245723 6.7993724 -5.4375 11.5 C-7.52835695 14.84537113 -10.27206263 17.2699126 -13.16015625 19.9375 C-15.12011314 21.87852807 -15.12011314 21.87852807 -15.85668945 24.35229492 C-17.18069988 27.41846897 -18.75211305 29.09537827 -21.1328125 31.42578125 C-22.34130859 32.61977539 -22.34130859 32.61977539 -23.57421875 33.83789062 C-24.41597656 34.65451172 -25.25773437 35.47113281 -26.125 36.3125 C-26.97449219 37.14845703 -27.82398438 37.98441406 -28.69921875 38.84570312 C-30.79287141 40.9040695 -32.89320824 42.95509803 -35 45 C-35.66 44.34 -36.32 43.68 -37 43 C-36.33411865 42.36553955 -36.33411865 42.36553955 -35.65478516 41.71826172 C-33.6342284 39.78125586 -31.62966088 37.82844691 -29.625 35.875 C-28.92632813 35.20984375 -28.22765625 34.5446875 -27.5078125 33.859375 C-23.72231986 30.1466803 -21.12065171 27.36909252 -20 22 C-19.34 22 -18.68 22 -18 22 C-18 21.34 -18 20.68 -18 20 C-17.24589844 19.41089844 -16.49179688 18.82179688 -15.71484375 18.21484375 C-12.82783395 15.85954223 -11.41664055 13.76834014 -9.5625 10.5625 C-6.79811956 6.06360634 -4.46864412 2.84368262 0 0 Z " fill="#004EB3" transform="translate(1373,773)"/>
<path d="M0 0 C0.99 0.33 1.98 0.66 3 1 C-11.86546195 16.05418363 -11.86546195 16.05418363 -18.015625 21.23828125 C-22.55261857 25.26620271 -26.74691282 29.67654925 -31 34 C-31.495 32.515 -31.495 32.515 -32 31 C-30.671875 29.1328125 -30.671875 29.1328125 -28.75 27.125 C-26.05518919 24.21183495 -24.02892962 21.41229072 -22 18 C-19.5 15.1875 -19.5 15.1875 -17 13 C-16.01 13 -15.02 13 -14 13 C-14 12.34 -14 11.68 -14 11 C-13.05125 10.7525 -12.1025 10.505 -11.125 10.25 C-7.91306809 9.3142923 -7.91306809 9.3142923 -6.625 6.875 C-6.315625 5.946875 -6.315625 5.946875 -6 5 C-5.34 5 -4.68 5 -4 5 C-3.67 4.01 -3.34 3.02 -3 2 C-2.01 1.34 -1.02 0.68 0 0 Z " fill="#0A86EF" transform="translate(1405,748)"/>
<path d="M0 0 C0.495 1.485 0.495 1.485 1 3 C0.15695312 3.78503906 -0.68609375 4.57007813 -1.5546875 5.37890625 C-2.66212 6.43941365 -3.76885417 7.50065063 -4.875 8.5625 C-5.43058594 9.07619141 -5.98617188 9.58988281 -6.55859375 10.11914062 C-10.39056822 13.83569418 -11.72408247 16.70945306 -13 22 C-15.5 23.75 -15.5 23.75 -18 25 C-18.66 25.99 -19.32 26.98 -20 28 C-20.99 28 -21.98 28 -23 28 C-23 28.66 -23 29.32 -23 30 C-23.66 30 -24.32 30 -25 30 C-25 30.66 -25 31.32 -25 32 C-25.66 32 -26.32 32 -27 32 C-27.23847656 32.61359375 -27.47695312 33.2271875 -27.72265625 33.859375 C-29.31040628 36.52019156 -30.60317853 37.07717732 -33.4375 38.25 C-34.21996094 38.58515625 -35.00242187 38.9203125 -35.80859375 39.265625 C-38 40 -38 40 -41 40 C-37.56919448 36.26647635 -34.49421531 34.24710766 -30 32 C-28.31384218 30.35305515 -26.64429829 28.68873879 -25 27 C-24.01 26.67 -23.02 26.34 -22 26 C-21.67 25.01 -21.34 24.02 -21 23 C-19.66666667 22.33333333 -18.33333333 21.66666667 -17 21 C-15.17594483 18.96547693 -14.11627162 17.37077728 -13.296875 14.7578125 C-11.51537874 10.96944997 -8.87608897 8.55280884 -5.875 5.6875 C-5.31167969 5.13771484 -4.74835938 4.58792969 -4.16796875 4.02148438 C-2.78537942 2.67404562 -1.39359084 1.33605727 0 0 Z " fill="#02A5FA" transform="translate(1408,750)"/>
<path d="M0 0 C-2.91591449 2.55142518 -5.57563999 4.28310582 -9.125 5.75 C-11.56211454 6.89580758 -12.72928088 7.47166107 -13.96875 9.890625 C-14.40307874 11.28668165 -14.82134428 12.68784662 -15.22265625 14.09375 C-16.53478077 17.31142219 -19.01855017 18.47755754 -22 20 C-22.66 20 -23.32 20 -24 20 C-24.144375 21.27875 -24.28875 22.5575 -24.4375 23.875 C-25.81750457 30.40148778 -30.38678678 34.45323224 -35 39 C-35 35.74126195 -34.4187858 34.83757161 -33 32 C-32.76152344 30.91847656 -32.52304688 29.83695313 -32.27734375 28.72265625 C-30.81940326 24.47367373 -28.6783036 22.12953553 -25.4375 19.1875 C-21.76261047 15.95550208 -21.76261047 15.95550208 -19 12 C-18.34 12 -17.68 12 -17 12 C-16.731875 11.236875 -16.46375 10.47375 -16.1875 9.6875 C-14.29201796 5.39772485 -11.52208547 3.52918177 -7.5 1.25 C-6.7265625 0.80140625 -5.953125 0.3528125 -5.15625 -0.109375 C-3 -1 -3 -1 0 0 Z " fill="#003A89" transform="translate(179,175)"/>
<path d="M0 0 C0.66 0.33 1.32 0.66 2 1 C-8.90304047 15.71910463 -8.90304047 15.71910463 -15.26586914 19.26147461 C-18.50485033 21.3210143 -21.06891001 23.81839569 -23.73828125 26.54296875 C-24.26391159 27.07142899 -24.78954193 27.59988922 -25.33110046 28.1443634 C-26.99635248 29.82074262 -28.65448492 31.50396589 -30.3125 33.1875 C-31.44549917 34.33053861 -32.57895809 35.47312169 -33.71289062 36.61523438 C-36.48060828 39.40491332 -39.24196548 42.20074873 -42 45 C-42 41.17283102 -40.52887096 40.16793462 -37.9347229 37.54353333 C-37.35040497 36.96842514 -36.76608704 36.39331696 -36.1640625 35.80078125 C-35.56951263 35.20573288 -34.97496277 34.61068451 -34.36239624 33.99760437 C-33.1032594 32.74080931 -31.84042502 31.4877095 -30.57421875 30.23803711 C-28.63103431 28.31846099 -26.70152297 26.38590083 -24.7734375 24.45117188 C-23.55026985 23.23358018 -22.32633695 22.01675665 -21.1015625 20.80078125 C-20.52129303 20.21960037 -19.94102356 19.63841949 -19.34317017 19.03962708 C-15.23101073 15 -15.23101073 15 -13 15 C-12.814375 14.154375 -12.62875 13.30875 -12.4375 12.4375 C-10.2973288 7.3196993 -6.6529654 3.59769664 -1.8984375 0.734375 C-1.27195312 0.49203125 -0.64546875 0.2496875 0 0 Z " fill="#012D6B" transform="translate(1282,872)"/>
<path d="M0 0 C-0.38961069 5.84416037 -0.62222404 7.93888053 -5 12 C-6.12624117 13.42027149 -7.23030785 14.858385 -8.3125 16.3125 C-12.81706572 22.16747086 -17.38851492 27.5106051 -24 31 C-24.99 31.66 -25.98 32.32 -27 33 C-29.32387947 33.39387788 -31.65793749 33.73486085 -34 34 C-30.15286815 28.72957028 -27.56587953 26.43255553 -21 25 C-13.39940736 21.28808266 -10.461357 14.29334956 -6.78125 7.05859375 C-2.67049808 0 -2.67049808 0 0 0 Z " fill="#0043A2" transform="translate(193,169)"/>
<path d="M0 0 C0.66 0.66 1.32 1.32 2 2 C-3.5222536 7.61361441 -9.03609226 13.13221639 -15.02734375 18.25 C-18.86110401 21.6510388 -22.405382 25.35029207 -26 29 C-26.928125 29.9075 -27.85625 30.815 -28.8125 31.75 C-31.02979909 33.94124379 -31.02979909 33.94124379 -32.8125 36.375 C-35.25168562 39.30202275 -37.9365774 41.61833861 -40.828125 44.0859375 C-44.38604826 47.22151735 -47.68783904 50.60855859 -51 54 C-51.66 53.67 -52.32 53.34 -53 53 C-35.51 35.51 -18.02 18.02 0 0 Z M-56 56 C-56 56.99 -56 57.98 -56 59 C-56.66 59.66 -57.32 60.32 -58 61 C-58 58 -58 58 -56 56 Z " fill="#001342" transform="translate(145,217)"/>
<path d="M0 0 C0 3.90230961 -1.62862812 5.02031282 -4.27929688 7.68945312 C-4.86775391 8.26630859 -5.45621094 8.84316406 -6.0625 9.4375 C-6.90458008 10.29698242 -6.90458008 10.29698242 -7.76367188 11.17382812 C-12.38908288 15.76752203 -17.06010896 18.65254994 -23 21.375 C-26.20909484 23.1132597 -28.62002421 25.13537444 -31.2890625 27.59765625 C-33.0943098 29.07729958 -34.88235989 30.03365331 -37 31 C-34.18409345 24.52647571 -28.66879185 17.68733465 -22.22265625 14.72265625 C-19.5625 14 -19.5625 14 -17.12890625 13.5625 C-14.60680265 12.89610932 -13.71360167 11.91607334 -12 10 C-11.2575 9.5875 -10.515 9.175 -9.75 8.75 C-5.96831313 6.34347199 -3.07640306 3.23598593 0 0 Z " fill="#003C94" transform="translate(183,187)"/>
<path d="M0 0 C-1.31664371 6.42416091 -5.32724686 9.84154473 -9.8515625 14.2421875 C-10.62559418 15.01055939 -11.39962585 15.77893127 -12.19711304 16.57058716 C-14.66382319 19.01496345 -17.14409531 21.44503989 -19.625 23.875 C-21.30299779 25.53292915 -22.98009206 27.19177329 -24.65625 28.8515625 C-28.76042037 32.91170505 -32.87580517 36.96020481 -37 41 C-37.66 40.67 -38.32 40.34 -39 40 C-38.3387915 39.35450195 -37.67758301 38.70900391 -36.99633789 38.04394531 C-34.54332283 35.64210221 -32.09724108 33.23361303 -29.65551758 30.8203125 C-28.59799071 29.77785843 -27.5377851 28.73811451 -26.47485352 27.70117188 C-24.94613211 26.20889965 -23.42735665 24.70709824 -21.91015625 23.203125 C-20.99371338 22.30239258 -20.07727051 21.40166016 -19.13305664 20.47363281 C-17.13537919 18.15699462 -16.34399111 16.98328576 -16 14 C-15.34 14 -14.68 14 -14 14 C-13.34 12.68 -12.68 11.36 -12 10 C-11.34 10 -10.68 10 -10 10 C-9.690625 9.195625 -9.690625 9.195625 -9.375 8.375 C-7.43786251 5.02903524 -4.15282732 0 0 0 Z " fill="#013F8C" transform="translate(137,222)"/>
<path d="M0 0 C0 0.66 0 1.32 0 2 C-1.65848177 3.01351664 -3.32665961 4.01120795 -5 5 C-8.07601751 7.7141331 -9.91509877 10.49736594 -12 14 C-12.845625 14.99 -13.69125 15.98 -14.5625 17 C-17.05124657 19.68854477 -17.05124657 19.68854477 -17.70703125 22.23046875 C-19.65468732 26.40233629 -22.83502568 29.1495643 -26.125 32.3125 C-26.78371094 32.95767578 -27.44242188 33.60285156 -28.12109375 34.26757812 C-29.74080144 35.85207478 -31.36710005 37.42912099 -33 39 C-33.495 37.515 -33.495 37.515 -34 36 C-32.96939453 35.02160156 -32.96939453 35.02160156 -31.91796875 34.0234375 C-30.56638672 32.71246094 -30.56638672 32.71246094 -29.1875 31.375 C-28.29417969 30.51648438 -27.40085937 29.65796875 -26.48046875 28.7734375 C-23.9704287 25.96693602 -22.6435207 23.35928406 -21 20 C-19.09765625 17.9453125 -19.09765625 17.9453125 -17.0625 16.125 C-13.70852232 12.92459273 -11.66153289 10.02993032 -9.88671875 5.76171875 C-8.47938625 2.96565285 -6.91603403 1.30534468 -3.9375 0.3125 C-2 0 -2 0 0 0 Z " fill="#0164D0" transform="translate(1391,759)"/>
<path d="M0 0 C0.66 0.99 1.32 1.98 2 3 C-4.89715536 10.68490153 -4.89715536 10.68490153 -9.5 12 C-10.325 12 -11.15 12 -12 12 C-12 12.66 -12 13.32 -12 14 C-12.66 14 -13.32 14 -14 14 C-14.226875 14.5775 -14.45375 15.155 -14.6875 15.75 C-16.34848222 18.59739809 -18.31524561 20.12067193 -21 22 C-21.66 22 -22.32 22 -23 22 C-23 22.66 -23 23.32 -23 24 C-24.051875 24.268125 -25.10375 24.53625 -26.1875 24.8125 C-29.57519246 25.8676829 -32.07089567 27.04726378 -35 29 C-35 28.01 -35 27.02 -35 26 C-34.38125 25.71125 -33.7625 25.4225 -33.125 25.125 C-30.86674235 24.06279958 -30.86674235 24.06279958 -29 22 C-27.2984375 21.319375 -27.2984375 21.319375 -25.5625 20.625 C-22.04023092 19.01835095 -21.0398191 18.11340811 -19 15 C-18.34 15 -17.68 15 -17 15 C-17 14.34 -17 13.68 -17 13 C-16.34 13 -15.68 13 -15 13 C-14.67 12.01 -14.34 11.02 -14 10 C-12.2578125 9.15625 -12.2578125 9.15625 -10.125 8.5 C-6.97764586 7.52443636 -5.10810416 6.57516915 -3 4 C-2.67 3.01 -2.34 2.02 -2 1 C-1.34 0.67 -0.68 0.34 0 0 Z " fill="#003483" transform="translate(1450,702)"/>
<path d="M0 0 C0.99 0 1.98 0 3 0 C1.65788398 4.02634805 -0.03685485 6.03685485 -3 9 C-3.71779308 10.16943816 -4.40384938 11.35875922 -5.0625 12.5625 C-7.39681667 16.70402957 -8.51282937 18.50427646 -13 20 C-13.66 20.99 -14.32 21.98 -15 23 C-15.66 22.67 -16.32 22.34 -17 22 C-9.92538618 9.16088604 -9.92538618 9.16088604 -5 5 C-4.01 5 -3.02 5 -2 5 C-1.34 3.35 -0.68 1.7 0 0 Z " fill="#003D93" transform="translate(1382,754)"/>
<path d="M0 0 C0 3.31548235 -0.69259402 4.97232299 -2 8 C-2.40734375 9.09570312 -2.8146875 10.19140625 -3.234375 11.3203125 C-4.9075396 15.22112958 -7.34204226 17.71014563 -10.4375 20.625 C-13.16216271 23.21250281 -15.74824123 25.68211323 -18.08203125 28.62890625 C-19.97659249 30.9710624 -21.81097102 32.56452923 -24.25 34.3125 C-24.95640625 34.82425781 -25.6628125 35.33601563 -26.390625 35.86328125 C-26.92171875 36.23839844 -27.4528125 36.61351562 -28 37 C-28.66 36.67 -29.32 36.34 -30 36 C-28.37660195 34.29115995 -26.70680947 32.62553283 -25 31 C-24.34 31 -23.68 31 -23 31 C-22.62875 30.071875 -22.62875 30.071875 -22.25 29.125 C-20.79371361 26.64931313 -19.62187494 26.04874998 -17 25 C-17 24.34 -17 23.68 -17 23 C-16.34 23 -15.68 23 -15 23 C-15 22.34 -15 21.68 -15 21 C-14.34 21 -13.68 21 -13 21 C-13 20.34 -13 19.68 -13 19 C-12.01 18.34 -11.02 17.68 -10 17 C-7.41774226 13.2950215 -5.7659122 9.24510228 -4.0625 5.0859375 C-2.96686965 2.93495732 -1.79100162 1.59765485 0 0 Z " fill="#002C71" transform="translate(197,171)"/>
<path d="M0 0 C0 9.41944351 -12.5057482 20.5554328 -18.875 26.9375 C-19.91414487 27.96090025 -20.9548769 28.98270562 -22 30 C-22.66 29.67 -23.32 29.34 -24 29 C-21.34370993 23.37417811 -17.75205245 18.22404461 -12.875 14.3125 C-10.09225137 12.07420219 -8.1560954 9.82522846 -6 7 C-5 6 -4 5 -3 4 C-1.98199424 2.68036291 -0.97751635 1.34990354 0 0 Z " fill="#014AA4" transform="translate(158,197)"/>
<path d="M0 0 C-1.36892937 3.09703328 -2.92117359 5.11761608 -5.375 7.4375 C-7.41081474 9.40642965 -9.19765352 11.2550368 -10.9375 13.5 C-12.77562768 15.72803356 -14.55710437 17.3934903 -16.75 19.25 C-21.28751774 23.11371341 -25.13954795 27.47218257 -29 32 C-29.66 31.01 -30.32 30.02 -31 29 C-29.68 28.34 -28.36 27.68 -27 27 C-27 26.34 -27 25.68 -27 25 C-25.71484375 23.7734375 -25.71484375 23.7734375 -23.9375 22.375 C-21.28419899 20.17715585 -18.97801554 17.93972414 -16.75 15.3125 C-13.69771319 11.73179908 -10.49370533 8.3444367 -7.1875 5 C-6.70700195 4.50669189 -6.22650391 4.01338379 -5.73144531 3.50512695 C-2.23685916 0 -2.23685916 0 0 0 Z M-34 35 C-34 35.99 -34 36.98 -34 38 C-34.66 37.67 -35.32 37.34 -36 37 C-35.34 36.34 -34.68 35.68 -34 35 Z " fill="#00245B" transform="translate(249,111)"/>
<path d="M0 0 C0.33 0.99 0.66 1.98 1 3 C0.44570312 3.38929688 -0.10859375 3.77859375 -0.6796875 4.1796875 C-4.96420489 7.48837175 -7.39043495 9.71385464 -8.25 15.1875 C-8.35828125 16.03441406 -8.4665625 16.88132812 -8.578125 17.75390625 C-9.15671348 20.83435416 -10.44934327 22.2464235 -13 24 C-13.66 24 -14.32 24 -15 24 C-16.75814477 25.61403455 -18.45886727 27.29114592 -20.125 29 C-21.03507812 29.928125 -21.94515625 30.85625 -22.8828125 31.8125 C-23.58148437 32.534375 -24.28015625 33.25625 -25 34 C-25 29.82278665 -22.70325289 27.91686143 -20 25 C-18.33333333 23.33333333 -16.66666667 21.66666667 -15 20 C-12.70369007 17.44854452 -12.02364071 16.11390524 -11.3125 12.6875 C-9.48659394 7.55757346 -6.17497034 5.296487 -2 2 C-1.34 1.34 -0.68 0.68 0 0 Z " fill="#0046AC" transform="translate(1443,718)"/>
<path d="M0 0 C0.66 0.33 1.32 0.66 2 1 C1.28972656 1.69867188 0.57945312 2.39734375 -0.15234375 3.1171875 C-1.07144531 4.02726563 -1.99054688 4.93734375 -2.9375 5.875 C-3.85402344 6.77992188 -4.77054688 7.68484375 -5.71484375 8.6171875 C-8.01187627 10.77682255 -8.01187627 10.77682255 -9 13 C-9.66 13 -10.32 13 -11 13 C-11.20367187 13.54140625 -11.40734375 14.0828125 -11.6171875 14.640625 C-13.55312808 17.94375526 -16.28699336 20.24122847 -19.125 22.75 C-19.68832031 23.25660156 -20.25164062 23.76320312 -20.83203125 24.28515625 C-22.21651531 25.52884532 -23.60761488 26.76516305 -25 28 C-25 25 -25 25 -23.57421875 23.421875 C-22.64029297 22.59429687 -22.64029297 22.59429687 -21.6875 21.75 C-19.19203566 19.38455985 -17.56396717 17.54565635 -16.375 14.3125 C-14.80400351 10.52782663 -13.41245084 9.1937184 -10 7 C-9.175 6.690625 -8.35 6.38125 -7.5 6.0625 C-4.24868882 4.68069275 -2.37131591 2.57457156 0 0 Z " fill="#0794F3" transform="translate(184,175)"/>
<path d="M0 0 C-1.15173355 2.46800047 -2.04783565 4.04783565 -4 6 C-5.7015625 6.2784375 -5.7015625 6.2784375 -7.4375 6.5625 C-12.82760848 7.76792426 -16.28593007 11.27371498 -20.37890625 14.8046875 C-24.28345802 18.07496782 -28.1461246 20.38204153 -33 22 C-33 22.66 -33 23.32 -33 24 C-34.95927063 25.7143618 -36.95880212 27.38405168 -39 29 C-39.66 28.67 -40.32 28.34 -41 28 C-39.13720481 26.02869247 -37.26123726 24.07366592 -35.375 22.125 C-34.85292969 21.56941406 -34.33085938 21.01382813 -33.79296875 20.44140625 C-30.35529391 16.91885055 -27.78772926 15.42859664 -23 14 C-20.47053336 12.15105147 -20.47053336 12.15105147 -18.125 10 C-13.75360478 6.343924 -10.60646312 4.83058713 -5 4 C-5 3.34 -5 2.68 -5 2 C-2 0 -2 0 0 0 Z " fill="#0052BF" transform="translate(1384,786)"/>
<path d="M0 0 C0 3.82693531 -1.46984516 4.83082029 -4.06384277 7.45503235 C-4.65121216 8.03319199 -5.23858154 8.61135162 -5.84375 9.20703125 C-6.44626587 9.81004562 -7.04878174 10.41306 -7.66955566 11.03434753 C-8.95059495 12.31304275 -10.23533725 13.58803711 -11.5234375 14.85961914 C-13.47300942 16.7858328 -15.40916955 18.72475909 -17.34375 20.66601562 C-18.59296383 21.90964437 -19.84294121 23.15250669 -21.09375 24.39453125 C-21.66492554 24.96661819 -22.23610107 25.53870514 -22.82458496 26.12812805 C-26.93514149 30.16871404 -31.31704058 33.64352192 -36 37 C-34.5680465 34.01440849 -33.16148902 31.913942 -30.8046875 29.57421875 C-30.17530273 28.94612305 -29.54591797 28.31802734 -28.89746094 27.67089844 C-28.23004883 27.01637695 -27.56263672 26.36185547 -26.875 25.6875 C-26.19211914 25.01106445 -25.50923828 24.33462891 -24.80566406 23.63769531 C-20.9779893 19.86843046 -17.09279212 16.22478716 -12.984375 12.76171875 C-8.44738143 8.73379729 -4.25308718 4.32345075 0 0 Z " fill="#64E5FD" transform="translate(1410,746)"/>
<path d="M0 0 C0.66 0.33 1.32 0.66 2 1 C0.5738115 5.50207264 -1.66192205 8.01257856 -5.0078125 11.30078125 C-5.49329559 11.7820195 -5.97877869 12.26325775 -6.47897339 12.75907898 C-8.02071064 14.28411586 -9.57257891 15.79834789 -11.125 17.3125 C-12.17646955 18.34891154 -13.2272585 19.38601405 -14.27734375 20.42382812 C-16.8437337 22.95726395 -19.4193129 25.48112008 -22 28 C-22.33 27.34 -22.66 26.68 -23 26 C-21.61087093 24.2446735 -20.21338227 22.49596093 -18.8125 20.75 C-18.03519531 19.77546875 -17.25789063 18.8009375 -16.45703125 17.796875 C-14.1429118 15.16267862 -11.75367965 13.14967738 -9 11 C-8.67 10.34 -8.34 9.68 -8 9 C-7.34 9 -6.68 9 -6 9 C-6 8.01 -6 7.02 -6 6 C-4.37064759 4.62131719 -2.70250393 3.28725907 -1 2 C-0.67 1.34 -0.34 0.68 0 0 Z " fill="#002B6F" transform="translate(1319,831)"/>
<path d="M0 0 C0.66 0.33 1.32 0.66 2 1 C1.29875 1.639375 0.5975 2.27875 -0.125 2.9375 C-3.71571279 6.50775289 -6.28747067 10.7522268 -9 15 C-9.99 16.485 -9.99 16.485 -11 18 C-11.29648438 18.65484375 -11.59296875 19.3096875 -11.8984375 19.984375 C-13.1712018 22.31326286 -14.57505451 23.57967404 -16.625 25.25 C-17.25664063 25.77078125 -17.88828125 26.2915625 -18.5390625 26.828125 C-19.02117187 27.21484375 -19.50328125 27.6015625 -20 28 C-19.48167109 23.91017188 -18.41622075 21.94271412 -15.5625 19 C-12.84456144 16.07213936 -11.42927291 13.73809839 -10 10 C-8.67479497 9.31731862 -7.34187818 8.6492959 -6 8 C-5.855625 7.38125 -5.71125 6.7625 -5.5625 6.125 C-4.72369267 2.95617231 -2.58547117 1.85623571 0 0 Z " fill="#00337F" transform="translate(1340,807)"/>
<path d="M0 0 C0 3 0 3 -1.17687988 4.53764343 C-2.00294739 5.35371819 -2.00294739 5.35371819 -2.84570312 6.1862793 C-3.46634644 6.80669601 -4.08698975 7.42711273 -4.72644043 8.06632996 C-5.40452759 8.72893326 -6.08261475 9.39153656 -6.78125 10.07421875 C-7.46932739 10.7580513 -8.15740479 11.44188385 -8.86633301 12.1464386 C-11.07063179 14.33391366 -13.28512144 16.51074286 -15.5 18.6875 C-16.99417133 20.16662934 -18.48766988 21.64643865 -19.98046875 23.12695312 C-23.64587892 26.75924493 -27.32046381 30.38202091 -31 34 C-31.66 33.34 -32.32 32.68 -33 32 C-23.60781149 22.4345949 -23.60781149 22.4345949 -19.3125 18.8125 C-12.47991485 12.98429072 -6.30548895 6.3855391 0 0 Z " fill="#001640" transform="translate(281,78)"/>
<path d="M0 0 C2.18896484 0.34375 2.18896484 0.34375 4 1 C-12.06850064 17.30952815 -12.06850064 17.30952815 -16 20 C-16.99 20 -17.98 20 -19 20 C-15.02279724 15.11372232 -10.75148106 10.52800519 -6.375 6 C-5.81272705 5.39969971 -5.2504541 4.79939941 -4.67114258 4.1809082 C-3.0234375 2.5 -3.0234375 2.5 0 0 Z " fill="#00368D" transform="translate(1339,818)"/>
<path d="M0 0 C0.99 0.33 1.98 0.66 3 1 C-0.06299307 4.2075998 -3.15345492 7.38730537 -6.25 10.5625 C-7.12269531 11.47708984 -7.99539063 12.39167969 -8.89453125 13.33398438 C-10.16103516 14.6246582 -10.16103516 14.6246582 -11.453125 15.94140625 C-12.22817383 16.74263916 -13.00322266 17.54387207 -13.80175781 18.36938477 C-16 20 -16 20 -18.28417969 19.75366211 C-18.85040039 19.50495361 -19.41662109 19.25624512 -20 19 C-19.50628906 18.59007812 -19.01257812 18.18015625 -18.50390625 17.7578125 C-17.86324219 17.21898437 -17.22257812 16.68015625 -16.5625 16.125 C-15.92441406 15.59132813 -15.28632812 15.05765625 -14.62890625 14.5078125 C-12.89194996 13.0777243 -12.89194996 13.0777243 -12 11 C-11.34 11 -10.68 11 -10 11 C-9.67 10.01 -9.34 9.02 -9 8 C-6.25713918 5.03474506 -3.47949662 2.08769797 0 0 Z " fill="#0369D6" transform="translate(1425,728)"/>
<path d="M0 0 C1 3 1 3 0.1796875 5.15625 C-4.32385466 13.2464455 -4.32385466 13.2464455 -9 15 C-11.8125 15.1875 -11.8125 15.1875 -14 15 C-13.04882866 13.8274869 -12.08882991 12.66212985 -11.125 11.5 C-10.59132812 10.8503125 -10.05765625 10.200625 -9.5078125 9.53125 C-8.76144531 8.77328125 -8.76144531 8.77328125 -8 8 C-7.34 8 -6.68 8 -6 8 C-5.7525 7.4225 -5.505 6.845 -5.25 6.25 C-3.83316683 3.6997003 -2.12372463 1.98214299 0 0 Z " fill="#0168D2" transform="translate(181,180)"/>
<path d="M0 0 C0.66 0 1.32 0 2 0 C0.43717018 3.76603869 -1.9063475 6.13639151 -4.7890625 8.984375 C-5.25234955 9.44483215 -5.7156366 9.90528931 -6.19296265 10.37969971 C-7.66565898 11.84125078 -9.14517403 13.29567168 -10.625 14.75 C-11.62806322 15.74302611 -12.63067257 16.73651089 -13.6328125 17.73046875 C-16.08330835 20.15897941 -18.5399667 22.58114675 -21 25 C-21 22 -21 22 -18.875 19.75 C-17.92625 18.8425 -16.9775 17.935 -16 17 C-14.41737105 15.13876645 -12.86758723 13.25566863 -11.33203125 11.35546875 C-10.89246094 10.90816406 -10.45289062 10.46085938 -10 10 C-9.34 10 -8.68 10 -8 10 C-7.7525 9.4225 -7.505 8.845 -7.25 8.25 C-5.81700012 5.67060021 -4.21575324 3.93878408 -2 2 C-1.34 2 -0.68 2 0 2 C0 1.34 0 0.68 0 0 Z " fill="#002C6E" transform="translate(119,238)"/>
<path d="M0 0 C0.33 0.66 0.66 1.32 1 2 C0.40832031 2.43570313 -0.18335938 2.87140625 -0.79296875 3.3203125 C-6.00921735 7.25164505 -11.01634881 11.03269761 -14 17 C-14.66 17 -15.32 17 -16 17 C-16.226875 17.5775 -16.45375 18.155 -16.6875 18.75 C-18.33038023 21.5663661 -20.39533227 23.08077114 -23 25 C-21.46535784 21.54705514 -19.37011726 18.92779191 -17 16 C-16.360625 15.01 -15.72125 14.02 -15.0625 13 C-10.98397709 7.06760304 -6.11983352 3.56863742 0 0 Z " fill="#003076" transform="translate(176,170)"/>
<path d="M0 0 C0 3 0 3 -2.47851562 5.8190918 C-3.61342476 6.9535252 -4.75660841 8.07971791 -5.90625 9.19921875 C-6.50554321 9.79426712 -7.10483643 10.38931549 -7.72229004 11.00239563 C-9.64128092 12.90457052 -11.57043112 14.79606205 -13.5 16.6875 C-14.80146301 17.97392 -16.10225318 19.2610211 -17.40234375 20.54882812 C-20.59380369 23.70718002 -23.79441498 26.85598797 -27 30 C-27 27 -27 27 -24.95214844 24.61157227 C-23.54497559 23.22796509 -23.54497559 23.22796509 -22.109375 21.81640625 C-21.60835266 21.31962875 -21.10733032 20.82285126 -20.59112549 20.3110199 C-18.98431372 18.7210101 -17.36742145 17.14170897 -15.75 15.5625 C-14.67509653 14.50264712 -13.60086944 13.44210778 -12.52734375 12.38085938 C-10.54417337 10.42217613 -8.55647873 8.46853981 -6.56542969 6.51782227 C-4.36423722 4.35747797 -2.17651901 2.18515599 0 0 Z " fill="#01285F" transform="translate(1564,675)"/>
<path d="M0 0 C-1.32 0.33 -2.64 0.66 -4 1 C-4 1.66 -4 2.32 -4 3 C-4.66 3 -5.32 3 -6 3 C-6 3.66 -6 4.32 -6 5 C-6.66 5 -7.32 5 -8 5 C-8.23847656 5.61359375 -8.47695312 6.2271875 -8.72265625 6.859375 C-10.31040628 9.52019156 -11.60317853 10.07717732 -14.4375 11.25 C-15.21996094 11.58515625 -16.00242187 11.9203125 -16.80859375 12.265625 C-19 13 -19 13 -22 13 C-18.56919448 9.26647635 -15.49421531 7.24710766 -11 5 C-10.13375 4.13375 -9.2675 3.2675 -8.375 2.375 C-5.56024719 -0.43975281 -3.72472221 -1.8623611 0 0 Z " fill="#0282F1" transform="translate(1389,777)"/>
<path d="M0 0 C0.33 0.99 0.66 1.98 1 3 C-3.29 7.29 -7.58 11.58 -12 16 C-12.33 14.68 -12.66 13.36 -13 12 C-8.71 8.04 -4.42 4.08 0 0 Z M-16 17 C-15.34 17.33 -14.68 17.66 -14 18 C-14.99 18.66 -15.98 19.32 -17 20 C-16.67 19.01 -16.34 18.02 -16 17 Z " fill="#003382" transform="translate(1481,678)"/>
<path d="M0 0 C0.66 0.66 1.32 1.32 2 2 C1.01 2.8971875 1.01 2.8971875 0 3.8125 C-2.3373846 5.87501834 -2.3373846 5.87501834 -2 9 C-7.34883721 14 -7.34883721 14 -10 14 C-10 12.68 -10 11.36 -10 10 C-9.34 10 -8.68 10 -8 10 C-7.7525 9.195625 -7.505 8.39125 -7.25 7.5625 C-6 5 -6 5 -3.875 4.1875 C-3.25625 4.125625 -2.6375 4.06375 -2 4 C-2 3.34 -2 2.68 -2 2 C-1.34 2 -0.68 2 0 2 C0 1.34 0 0.68 0 0 Z " fill="#01327A" transform="translate(1294,858)"/>
<path d="M0 0 C0.33 0.99 0.66 1.98 1 3 C-4.33333333 8.33333333 -9.66666667 13.66666667 -15 19 C-15.33 18.01 -15.66 17.02 -16 16 C-10.72 10.72 -5.44 5.44 0 0 Z " fill="#016FE7" transform="translate(1428,730)"/>
<path d="M0 0 C-4.80239407 4.77744657 -8.07011948 7.85562749 -15 8 C-9.77977827 0.84848745 -9.77977827 0.84848745 -5.25 -0.5 C-2 -1 -2 -1 0 0 Z " fill="#0059C2" transform="translate(174,195)"/>
<path d="M0 0 C0.69897461 1.77050781 0.69897461 1.77050781 1 4 C-0.26342773 5.83105469 -0.26342773 5.83105469 -2.18359375 7.671875 C-2.86357422 8.33574219 -3.54355469 8.99960937 -4.24414062 9.68359375 C-4.96794922 10.36550781 -5.69175781 11.04742188 -6.4375 11.75 C-7.15744141 12.44738281 -7.87738281 13.14476562 -8.61914062 13.86328125 C-10.40211461 15.58721636 -12.19567826 17.29846609 -14 19 C-14.33 18.01 -14.66 17.02 -15 16 C-14.08476563 15.09636719 -13.16953125 14.19273437 -12.2265625 13.26171875 C-11.02590942 12.07044577 -9.82539585 10.87903217 -8.625 9.6875 C-8.02171875 9.09259766 -7.4184375 8.49769531 -6.796875 7.88476562 C-6.21679688 7.30791016 -5.63671875 6.73105469 -5.0390625 6.13671875 C-4.50490723 5.60780029 -3.97075195 5.07888184 -3.42041016 4.53393555 C-1.78498535 2.8489902 -1.78498535 2.8489902 0 0 Z " fill="#0167D4" transform="translate(1372,779)"/>
<path d="M0 0 C0.33 0.99 0.66 1.98 1 3 C0.45730469 3.51949219 -0.08539063 4.03898438 -0.64453125 4.57421875 C-4.36371768 8.19958787 -7.43795322 11.45818981 -10 16 C-11.93456778 18.39182926 -13.95438106 20.70281627 -16 23 C-16.66 22.67 -17.32 22.34 -18 22 C-17.46890625 21.43152344 -16.9378125 20.86304688 -16.390625 20.27734375 C-11.64207971 15.15417774 -11.64207971 15.15417774 -7.875 9.3125 C-5.68163242 5.43755061 -3.24400118 3.02281928 0 0 Z " fill="#0165CD" transform="translate(166,190)"/>
<path d="M0 0 C0.66 0.33 1.32 0.66 2 1 C-2.29 5.62 -6.58 10.24 -11 15 C-11.66 14.01 -12.32 13.02 -13 12 C-8.84792208 7.7373638 -4.63678779 3.73204871 0 0 Z " fill="#003D99" transform="translate(1356,807)"/>
<path d="M0 0 C0.66 0.66 1.32 1.32 2 2 C0.29798107 3.756532 -1.41115103 5.50507087 -3.125 7.25 C-3.599375 7.74113281 -4.07375 8.23226562 -4.5625 8.73828125 C-7.8004632 12.02000071 -11.08565821 14.56079592 -15 17 C-13.67879172 14.06769807 -12.25361803 12.01335101 -9.9609375 9.765625 C-9.38085938 9.19199219 -8.80078125 8.61835938 -8.203125 8.02734375 C-7.59984375 7.44082031 -6.9965625 6.85429687 -6.375 6.25 C-5.76398438 5.64800781 -5.15296875 5.04601562 -4.5234375 4.42578125 C-3.02011376 2.94594695 -1.51065144 1.47235324 0 0 Z " fill="#002363" transform="translate(145,217)"/>
<path d="M0 0 C2.08984375 0.42578125 2.08984375 0.42578125 4 1 C3.54109375 1.38671875 3.0821875 1.7734375 2.609375 2.171875 C-0.12744976 4.49472627 -2.7783615 6.76604825 -5.25 9.375 C-7 11 -7 11 -10 11 C-8.49804334 7.1768376 -6.23286627 5.4443623 -3 3 C-2.484375 2.401875 -1.96875 1.80375 -1.4375 1.1875 C-0.963125 0.795625 -0.48875 0.40375 0 0 Z " fill="#0169D9" transform="translate(1401,748)"/>
<path d="M0 0 C0.556875 0.268125 1.11375 0.53625 1.6875 0.8125 C0.883125 1.43125 0.07875 2.05 -0.75 2.6875 C-3.35124519 4.55414041 -3.35124519 4.55414041 -4.3125 6.8125 C-4.9725 6.8125 -5.6325 6.8125 -6.3125 6.8125 C-6.539375 7.451875 -6.76625 8.09125 -7 8.75 C-8.3125 10.8125 -8.3125 10.8125 -10.9375 11.5625 C-11.72125 11.645 -12.505 11.7275 -13.3125 11.8125 C-3.18946908 -0.2586056 -3.18946908 -0.2586056 0 0 Z " fill="#004DB1" transform="translate(1419.3125,732.1875)"/>
<path d="M0 0 C0.66 0.33 1.32 0.66 2 1 C1.01 2.485 1.01 2.485 0 4 C-0.66 4 -1.32 4 -2 4 C-2.20367187 4.54140625 -2.40734375 5.0828125 -2.6171875 5.640625 C-4.55312808 8.94375526 -7.28699336 11.24122847 -10.125 13.75 C-10.68832031 14.25660156 -11.25164062 14.76320312 -11.83203125 15.28515625 C-13.21651531 16.52884532 -14.60761488 17.76516305 -16 19 C-16 16 -16 16 -14.53125 14.19067383 C-13.8609375 13.53607178 -13.190625 12.88146973 -12.5 12.20703125 C-11.778125 11.49482422 -11.05625 10.78261719 -10.3125 10.04882812 C-9.549375 9.31083984 -8.78625 8.57285156 -8 7.8125 C-6.8553125 6.68811523 -6.8553125 6.68811523 -5.6875 5.54101562 C-3.79819161 3.68713177 -1.90224794 1.84058931 0 0 Z " fill="#09A4F3" transform="translate(175,184)"/>
<path d="M0 0 C1.65 0 3.3 0 5 0 C1.47244094 3.77952756 1.47244094 3.77952756 -0.875 4.875 C-3.67636341 6.35807475 -5.49539984 8.44320501 -7.6328125 10.7578125 C-9 12 -9 12 -11 12 C-9.63088196 8.8510285 -8.1247864 6.9521513 -5.5 4.75 C-4.8915625 4.22921875 -4.283125 3.7084375 -3.65625 3.171875 C-2 2 -2 2 0 2 C0 1.34 0 0.68 0 0 Z " fill="#00307B" transform="translate(157,206)"/>
<path d="M0 0 C0 3.54957438 -0.48588719 3.88424715 -2.84375 6.35546875 C-3.72353516 7.28842773 -3.72353516 7.28842773 -4.62109375 8.24023438 C-5.24113281 8.88283203 -5.86117187 9.52542969 -6.5 10.1875 C-7.43005859 11.16879883 -7.43005859 11.16879883 -8.37890625 12.16992188 C-9.9127616 13.78636944 -11.45321411 15.39593746 -13 17 C-13.66 16.34 -14.32 15.68 -15 15 C-10.05 10.05 -5.1 5.1 0 0 Z " fill="#023883" transform="translate(218,141)"/>
<path d="M0 0 C0.66 0.33 1.32 0.66 2 1 C-0.25788718 7.6325436 -4.20121828 11.97324765 -9 17 C-9 13.64237115 -8.60537275 13.15484034 -6.625 10.625 C-4.5514611 7.85832345 -3.1026303 5.3078909 -2 2 C-1.34 2 -0.68 2 0 2 C0 1.34 0 0.68 0 0 Z " fill="#003C8D" transform="translate(153,197)"/>
<path d="M0 0 C0 4.13781054 -1.71509607 5.20919996 -4.5 8.1875 C-5.3353125 9.08855469 -6.170625 9.98960937 -7.03125 10.91796875 C-7.6809375 11.60503906 -8.330625 12.29210937 -9 13 C-9.66 12.01 -10.32 11.02 -11 10 C-9.68 9.34 -8.36 8.68 -7 8 C-7 7.34 -7 6.68 -7 6 C-5.46875 4.4921875 -5.46875 4.4921875 -3.5 2.875 C-2.8503125 2.33617187 -2.200625 1.79734375 -1.53125 1.2421875 C-0.77328125 0.62730469 -0.77328125 0.62730469 0 0 Z M-14 16 C-14 16.99 -14 17.98 -14 19 C-14.66 18.67 -15.32 18.34 -16 18 C-15.34 17.34 -14.68 16.68 -14 16 Z " fill="#012B6C" transform="translate(229,130)"/>
<path d="M0 0 C0.99 0.33 1.98 0.66 3 1 C-0.96 4.96 -4.92 8.92 -9 13 C-9.66 12.34 -10.32 11.68 -11 11 C-7.37 7.37 -3.74 3.74 0 0 Z " fill="#002058" transform="translate(1506,648)"/>
<path d="M0 0 C-1.53643852 3.68069887 -3.78150945 5.98775204 -6.625 8.75 C-7.85089844 9.94882812 -7.85089844 9.94882812 -9.1015625 11.171875 C-9.72804688 11.77515625 -10.35453125 12.3784375 -11 13 C-11.66 12.34 -12.32 11.68 -13 11 C-11.21427748 9.16052663 -9.42197551 7.32842259 -7.625 5.5 C-7.11710937 4.97535156 -6.60921875 4.45070313 -6.0859375 3.91015625 C-2.2265625 0 -2.2265625 0 0 0 Z " fill="#004AAB" transform="translate(1349,805)"/>
<path d="M0 0 C0.66 0.33 1.32 0.66 2 1 C-4.93 6.94 -4.93 6.94 -12 13 C-12.66 12.67 -13.32 12.34 -14 12 C-12.42301238 10.36884105 -10.83815634 8.74528667 -9.25 7.125 C-8.36828125 6.22007812 -7.4865625 5.31515625 -6.578125 4.3828125 C-4.38251545 2.35353701 -2.80635623 0.96392236 0 0 Z " fill="#006CE3" transform="translate(1370,789)"/>
<path d="M0 0 C0.99 0.33 1.98 0.66 3 1 C-0.3 3.97 -3.6 6.94 -7 10 C-7.33 8.68 -7.66 7.36 -8 6 C-2.25 1.125 -2.25 1.125 0 0 Z " fill="#13A9FC" transform="translate(1392,761)"/>
<path d="M0 0 C0 3 0 3 -2.625 5.91796875 C-3.74249406 7.01550756 -4.86785643 8.10507895 -6 9.1875 C-6.57234375 9.74630859 -7.1446875 10.30511719 -7.734375 10.88085938 C-9.14962788 12.26073093 -10.57397155 13.63126734 -12 15 C-12 12 -12 12 -9.5625 9.5 C-8.2940625 8.2625 -8.2940625 8.2625 -7 7 C-6.67 6.01 -6.34 5.02 -6 4 C-4.04402816 2.60287726 -2.04563599 1.26220093 0 0 Z " fill="#012E6A" transform="translate(69,291)"/>
<path d="M0 0 C2.125 0.375 2.125 0.375 4 1 C-1.75 6 -1.75 6 -4 6 C-4 6.66 -4 7.32 -4 8 C-5.32 8.33 -6.64 8.66 -8 9 C-7.04270084 7.87411986 -6.08412105 6.7493285 -5.125 5.625 C-4.59132813 4.99851562 -4.05765625 4.37203125 -3.5078125 3.7265625 C-2.38567993 2.44163349 -1.20628025 1.20628025 0 0 Z " fill="#003E9F" transform="translate(1339,818)"/>
<path d="M0 0 C0.33 0.99 0.66 1.98 1 3 C0.01 3.66 -0.98 4.32 -2 5 C-2.7425 6.2375 -2.7425 6.2375 -3.5 7.5 C-5 10 -5 10 -8 12 C-8 8 -8 8 -6.25 5.859375 C-5.5075 5.16328125 -4.765 4.4671875 -4 3.75 C-3.2575 3.04359375 -2.515 2.3371875 -1.75 1.609375 C-1.1725 1.07828125 -0.595 0.5471875 0 0 Z " fill="#003A8F" transform="translate(1467,691)"/>
<path d="M0 0 C0.66 0.33 1.32 0.66 2 1 C0.92173635 2.27513763 -0.16285519 3.54492569 -1.25 4.8125 C-1.85328125 5.52019531 -2.4565625 6.22789063 -3.078125 6.95703125 C-4.92370398 8.91889671 -6.79945332 10.45669625 -9 12 C-9 9 -9 9 -7.03125 6.73828125 C-5.77828125 5.53751953 -5.77828125 5.53751953 -4.5 4.3125 C-3.6646875 3.50425781 -2.829375 2.69601563 -1.96875 1.86328125 C-1.3190625 1.24839844 -0.669375 0.63351563 0 0 Z " fill="#001D4D" transform="translate(258,100)"/>
<path d="M0 0 C0.66 0.33 1.32 0.66 2 1 C0.04761147 3.00612399 -1.91137822 5.00492433 -3.875 7 C-4.43058594 7.57234375 -4.98617188 8.1446875 -5.55859375 8.734375 C-7.00134404 10.19450782 -8.4974374 11.60149298 -10 13 C-10.66 13 -11.32 13 -12 13 C-10.44997253 9.11602311 -7.99523379 6.97020381 -4.875 4.25 C-3.96492188 3.45078125 -3.05484375 2.6515625 -2.1171875 1.828125 C-1.06917969 0.92320312 -1.06917969 0.92320312 0 0 Z " fill="#001F5A" transform="translate(1460,781)"/>
<path d="M0 0 C0.66 0.66 1.32 1.32 2 2 C0.75264433 2.6509259 -0.49801832 3.29551669 -1.75 3.9375 C-2.44609375 4.29714844 -3.1421875 4.65679688 -3.859375 5.02734375 C-5.90224433 5.95558182 -7.81115376 6.53166578 -10 7 C-8.73721868 3.21165605 -7.47887048 2.77988722 -4 1 C-1.8125 0.1875 -1.8125 0.1875 0 0 Z " fill="#0046A6" transform="translate(1428,725)"/>
<path d="M0 0 C0.33 0.66 0.66 1.32 1 2 C-0.36328125 4.78515625 -0.36328125 4.78515625 -2.3125 8.0625 C-2.94800781 9.14660156 -3.58351562 10.23070312 -4.23828125 11.34765625 C-6 14 -6 14 -8 15 C-6.27588087 9.42976898 -4.54566212 3.89628182 0 0 Z " fill="#0056BE" transform="translate(186,175)"/>
<path d="M0 0 C0.33 0.66 0.66 1.32 1 2 C-1.35013847 5.7863342 -3.87660726 7.36782371 -8 9 C-8.99 8.67 -9.98 8.34 -11 8 C-10.34 8 -9.68 8 -9 8 C-8.67 7.01 -8.34 6.02 -8 5 C-5.39757586 3.35179805 -4.13751221 3 -1 3 C-0.67 2.01 -0.34 1.02 0 0 Z " fill="#0192F6" transform="translate(1395,768)"/>
<path d="M0 0 C0.33 0.66 0.66 1.32 1 2 C-0.98 4.31 -2.96 6.62 -5 9 C-5.66 8.34 -6.32 7.68 -7 7 C-4.69 4.69 -2.38 2.38 0 0 Z " fill="#002264" transform="translate(1506,653)"/>
<path d="M0 0 C1 3 1 3 -0.1875 5.5625 C-2.04089755 8.05500015 -3.0620874 9.08190231 -6 10 C-6.99 9.67 -7.98 9.34 -9 9 C-8.195625 8.38125 -7.39125 7.7625 -6.5625 7.125 C-3.96125481 5.25835959 -3.96125481 5.25835959 -3 3 C-2.34 3 -1.68 3 -1 3 C-0.67 2.01 -0.34 1.02 0 0 Z " fill="#0790ED" transform="translate(176,185)"/>
<path d="M0 0 C0.99 0.33 1.98 0.66 3 1 C1.92319498 2.13125022 0.83824365 3.25474919 -0.25 4.375 C-0.85328125 5.00148438 -1.4565625 5.62796875 -2.078125 6.2734375 C-3.9700588 7.97310161 -5.68201309 8.98459866 -8 10 C-6.34908222 5.70761377 -3.26245434 3.1206085 0 0 Z " fill="#001E55" transform="translate(1278,874)"/>
<path d="M0 0 C0.33 0.99 0.66 1.98 1 3 C-1.31 5.31 -3.62 7.62 -6 10 C-6.66 9.34 -7.32 8.68 -8 8 C-7.04578192 6.85073734 -6.08647955 5.70569459 -5.125 4.5625 C-4.59132813 3.92441406 -4.05765625 3.28632812 -3.5078125 2.62890625 C-2 1 -2 1 0 0 Z " fill="#0058C0" transform="translate(1356,796)"/>
<path d="M0 0 C0 3 0 3 -1.4609375 4.82421875 C-2.09257813 5.43910156 -2.72421875 6.05398438 -3.375 6.6875 C-4.00148438 7.31011719 -4.62796875 7.93273437 -5.2734375 8.57421875 C-7 10 -7 10 -9 10 C-7.61811547 6.78956118 -6.07578097 4.95063635 -3.375 2.75 C-2.74335937 2.22921875 -2.11171875 1.7084375 -1.4609375 1.171875 C-0.73777344 0.59179688 -0.73777344 0.59179688 0 0 Z " fill="#A1F3FD" transform="translate(1395,761)"/>
<path d="M0 0 C0.33 0.99 0.66 1.98 1 3 C-1.31 5.31 -3.62 7.62 -6 10 C-6.66 9.67 -7.32 9.34 -8 9 C-6.85459775 7.68712379 -5.70866567 6.37470979 -4.5625 5.0625 C-3.92441406 4.33160156 -3.28632812 3.60070312 -2.62890625 2.84765625 C-1.77458541 1.87860647 -0.91348825 0.91348825 0 0 Z " fill="#002971" transform="translate(1481,678)"/>
<path d="M0 0 C0.66 0.33 1.32 0.66 2 1 C-1.3 4.3 -4.6 7.6 -8 11 C-8.33 10.01 -8.66 9.02 -9 8 C-6.03 5.36 -3.06 2.72 0 0 Z " fill="#058CF3" transform="translate(1382,771)"/>
<path d="M0 0 C0.99 0.33 1.98 0.66 3 1 C0.36 3.64 -2.28 6.28 -5 9 C-5.33 8.01 -5.66 7.02 -6 6 C-4.02 4.02 -2.04 2.04 0 0 Z " fill="#012763" transform="translate(1490,664)"/>
<path d="M0 0 C-3.42346555 3.14958831 -6.44262737 3.56179109 -11 4 C-9.875 2.0625 -9.875 2.0625 -8 0 C-2.77333333 -1.38666667 -2.77333333 -1.38666667 0 0 Z " fill="#004CB1" transform="translate(170,199)"/>
<path d="M0 0 C-1.299375 0.5878125 -1.299375 0.5878125 -2.625 1.1875 C-6.25871505 3.13893957 -8.91700883 5.28403159 -12 8 C-11.38722388 5.03824877 -10.74627478 3.61941217 -9 1 C-3.72897196 -1.24299065 -3.72897196 -1.24299065 0 0 Z " fill="#0066D3" transform="translate(179,181)"/>
<path d="M0 0 C-1.13499394 3.29148243 -1.99283376 3.9959869 -5.125 5.75 C-6.548125 6.36875 -6.548125 6.36875 -8 7 C-6.76759083 3.3027725 -4.20634615 0 0 0 Z " fill="#00409F" transform="translate(1372,798)"/>
<path d="M0 0 C0.33 0.99 0.66 1.98 1 3 C-1.64 5.97 -4.28 8.94 -7 12 C-7 8.19654123 -5.86213669 7.22298985 -3.5 4.3125 C-2.8503125 3.50425781 -2.200625 2.69601562 -1.53125 1.86328125 C-1.0259375 1.24839844 -0.520625 0.63351562 0 0 Z " fill="#00398A" transform="translate(1374,763)"/>
<path d="M0 0 C0.99 0.33 1.98 0.66 3 1 C2.0479279 2.00596297 1.08812654 3.00461563 0.125 4 C-0.40867187 4.556875 -0.94234375 5.11375 -1.4921875 5.6875 C-3 7 -3 7 -5 7 C-3.75023244 3.34683329 -3.32901247 2.21934164 0 0 Z " fill="#015AC6" transform="translate(1425,728)"/>
<path d="M0 0 C0.33 1.32 0.66 2.64 1 4 C-1.97 6.475 -1.97 6.475 -5 9 C-4.42647107 5.12867972 -2.51295648 2.91827204 0 0 Z " fill="#0273E6" transform="translate(1372,779)"/>
<path d="M0 0 C0.66 0.33 1.32 0.66 2 1 C1.01 2.485 1.01 2.485 0 4 C-0.66 4 -1.32 4 -2 4 C-2.66 5.32 -3.32 6.64 -4 8 C-4.66 8 -5.32 8 -6 8 C-4.55746343 4.63408134 -2.66735273 2.48952921 0 0 Z " fill="#62E4FC" transform="translate(175,184)"/>
<path d="M0 0 C0.66 0 1.32 0 2 0 C1.65120368 3.25543229 0.97866739 4.01873107 -1.5625 6.25 C-2.366875 6.8275 -3.17125 7.405 -4 8 C-4 7.01 -4 6.02 -4 5 C-3.34 5 -2.68 5 -2 5 C-1.34 3.35 -0.68 1.7 0 0 Z " fill="#002362" transform="translate(1288,863)"/>
<path d="M0 0 C0.33 0.99 0.66 1.98 1 3 C-1.97 5.475 -1.97 5.475 -5 8 C-4.45773019 4.20411134 -2.79872437 2.52788007 0 0 Z " fill="#0794FD" transform="translate(1408,750)"/>
<path d="M0 0 C0.33 1.32 0.66 2.64 1 4 C-0.32 4.99 -1.64 5.98 -3 7 C-2.625 4.0625 -2.625 4.0625 -2 1 C-1.34 0.67 -0.68 0.34 0 0 Z " fill="#003892" transform="translate(1449,713)"/>
<path d="M0 0 C0 3 0 3 -1.53125 4.60546875 C-2.1809375 5.12753906 -2.830625 5.64960938 -3.5 6.1875 C-4.1496875 6.71730469 -4.799375 7.24710937 -5.46875 7.79296875 C-5.9740625 8.19128906 -6.479375 8.58960938 -7 9 C-5.64978174 4.58110387 -3.73884332 2.65654657 0 0 Z " fill="#002663" transform="translate(104,254)"/>
<path d="M0 0 C0.33 1.32 0.66 2.64 1 4 C-1.97 6.475 -1.97 6.475 -5 9 C-3.7508258 5.54074837 -2.32472205 2.85306797 0 0 Z " fill="#0054B5" transform="translate(166,186)"/>
<path d="M0 0 C0.66 0.33 1.32 0.66 2 1 C0.02 3.31 -1.96 5.62 -4 8 C-4.66 7.34 -5.32 6.68 -6 6 C-4.02 4.02 -2.04 2.04 0 0 Z " fill="#024496" transform="translate(209,150)"/>
<path d="M0 0 C0.33 0.99 0.66 1.98 1 3 C-0.65 4.32 -2.3 5.64 -4 7 C-4.66 6.67 -5.32 6.34 -6 6 C-4.02 4.02 -2.04 2.04 0 0 Z " fill="#23CFFD" transform="translate(1394,764)"/>
<path d="M0 0 C1.65 0 3.3 0 5 0 C3.25 2.0625 3.25 2.0625 1 4 C-1.25 3.75 -1.25 3.75 -3 3 C-2.01 2.67 -1.02 2.34 0 2 C0 1.34 0 0.68 0 0 Z " fill="#003786" transform="translate(157,206)"/>
</svg>
