<?xml version="1.0" encoding="UTF-8"?>
<svg version="1.1" xmlns="http://www.w3.org/2000/svg" width="1024" height="1024">
<path d="M0 0 C337.92 0 675.84 0 1024 0 C1024 337.92 1024 675.84 1024 1024 C686.08 1024 348.16 1024 0 1024 C0 686.08 0 348.16 0 0 Z " fill="#11233B" transform="translate(0,0)"/>
<path d="M0 0 C0.75925781 0.05542969 1.51851562 0.11085937 2.30078125 0.16796875 C5.86114725 1.12944238 7.21306145 1.9805668 9.6875 4.8125 C10.47185622 8.95200349 10.38434258 13.07098081 10.359375 17.2734375 C10.37176208 18.51991562 10.38414917 19.76639374 10.39691162 21.05064392 C10.42047294 23.7175963 10.43535619 26.38282986 10.43481445 29.04971313 C10.43414215 33.18473596 10.46654548 37.31904504 10.50585938 41.45385742 C10.54326669 45.52707532 10.57925341 49.60024679 10.60327148 53.67356873 C10.66254995 63.49733158 10.8390413 73.30749891 11.1875 83.125 C11.22327148 84.26308105 11.25904297 85.40116211 11.29589844 86.57373047 C11.36515003 88.52043552 11.45191813 90.46667978 11.56420898 92.41137695 C11.67149386 94.50077654 11.660538 96.59558697 11.62890625 98.6875 C13.35799771 103.79182903 17.50098151 105.15954209 22.125 107.5 C24.05752259 108.54032352 25.98716791 109.58600764 27.9140625 110.63671875 C28.88633789 111.16313965 29.85861328 111.68956055 30.86035156 112.23193359 C43.89416545 119.51871348 55.88873667 128.70555364 67.6875 137.8125 C68.4412793 138.39354492 69.19505859 138.97458984 69.97167969 139.57324219 C75.22770211 143.63086544 80.463987 147.71313269 85.6875 151.8125 C86.52861328 152.47137207 86.52861328 152.47137207 87.38671875 153.14355469 C99.22865898 162.43597694 99.22865898 162.43597694 100.6875 166.8125 C100.71511732 168.93797749 100.6780108 171.06448845 100.60717773 173.18896484 C100.54994789 175.16780167 100.54994789 175.16780167 100.49156189 177.18661499 C100.46022313 178.24544451 100.46022313 178.24544451 100.42825127 179.32566452 C100.30987384 183.87741407 100.27385831 188.43067089 100.22816372 192.98363304 C100.18358588 196.97316465 100.10689855 200.95677028 99.95727539 204.94384766 C98.67057624 221.86724461 98.67057624 221.86724461 103.41577148 237.48196411 C107.51767687 241.6635506 112.1648628 244.23445543 117.44934082 246.6526947 C121.07119702 248.52952636 123.89363906 251.18600153 126.8125 254 C127.59247093 254.74020386 127.59247093 254.74020386 128.38819885 255.49536133 C140.59467844 267.31330478 147.7828125 279.46145535 148.06405008 296.56668091 C148.07529621 297.85436371 148.08654235 299.14204651 148.09812927 300.46875 C148.11674458 301.85400365 148.1361046 303.23924747 148.1561476 304.6244812 C148.20785061 308.39405107 148.24677368 312.16365406 148.2827502 315.93340302 C148.30659398 318.33237032 148.33395338 320.73127222 148.36249435 323.13018799 C148.78543308 358.73369828 148.82116936 394.33743851 148.79103968 429.94298667 C148.78364774 438.9154837 148.78236756 447.88797935 148.78124207 456.860479 C148.77908844 472.84302387 148.7725323 488.82556345 148.76293945 504.80810547 C148.75366718 520.27327448 148.74663534 535.73844202 148.74243164 551.20361328 C148.74203756 552.64932146 148.74203756 552.64932146 148.74163551 554.12423587 C148.74032985 558.96250962 148.73906629 563.80078339 148.73782361 568.63905716 C148.72756674 608.3635418 148.71005364 648.08802054 148.6875 687.8125 C149.69127686 687.78631592 150.69505371 687.76013184 151.72924805 687.7331543 C155.46567352 687.64241832 159.20200235 687.58516738 162.93920898 687.5378418 C164.55428461 687.51275041 166.16924726 687.47866874 167.78393555 687.43530273 C170.11014706 687.37440714 172.43485359 687.34623876 174.76171875 687.32421875 C175.83857185 687.28550911 175.83857185 687.28550911 176.93717957 687.24601746 C180.90245219 687.2438163 182.51270772 687.66913628 185.62036133 690.21801758 C188.85950342 694.28349095 189.04078181 696.60159332 188.6875 701.8125 C187.28289303 704.68555972 185.94239001 706.55760999 183.6875 708.8125 C181.1236923 709.02903964 178.66526875 709.11935763 176.09855652 709.12440491 C175.30187929 709.13375362 174.50520206 709.14310233 173.68438309 709.15273434 C170.98384416 709.1818245 168.28341669 709.19648015 165.58276367 709.21118164 C163.63515581 709.22882514 161.68755503 709.24726613 159.73996162 709.26643944 C154.3574683 709.31651033 148.97495402 709.35334386 143.5923388 709.38747287 C138.97953949 709.41802853 134.36680367 709.45536391 129.75405258 709.49239808 C113.74435335 709.61993639 97.73450198 709.71528469 81.72453487 709.80150092 C79.6865905 709.81250491 77.64864692 709.82364596 75.61070347 709.83481884 C39.92148382 710.02994487 4.23242253 710.15783971 -31.457304 710.20535851 C-34.38795864 710.20933812 -37.31861315 710.21340041 -40.24926758 710.2175293 C-40.97592208 710.21854104 -41.70257659 710.21955279 -42.45125093 710.2205952 C-54.49148003 710.23798338 -66.53151777 710.2796708 -78.57165124 710.32955229 C-91.15313476 710.38123066 -103.73451649 710.41041622 -116.31610519 710.4177013 C-123.29625473 710.42233135 -130.27606811 710.43677672 -137.25610924 710.4774456 C-143.72614384 710.51514083 -150.19575812 710.52280073 -156.66589355 710.50943947 C-159.03275186 710.50949359 -161.3996353 710.51985912 -163.76639748 710.5411911 C-166.98716475 710.56869326 -170.20577796 710.5594492 -173.42655945 710.54075623 C-174.83328156 710.56594862 -174.83328156 710.56594862 -176.26842231 710.59164995 C-182.40851128 710.50215783 -182.40851128 710.50215783 -185.0074631 708.51940358 C-188.56475063 704.42478601 -189.05936553 701.36028102 -188.81640625 696.15625 C-188.05119691 692.59713679 -186.14753993 690.95606677 -183.3125 688.8125 C-182.9825 688.4825 -182.6525 688.1525 -182.3125 687.8125 C-179.86419574 687.72406207 -177.44429401 687.69721248 -174.99609375 687.71484375 C-174.26503922 687.7162587 -173.53398468 687.71767365 -172.78077698 687.71913147 C-170.43714368 687.72474592 -168.09360461 687.73730078 -165.75 687.75 C-164.16471492 687.75501314 -162.57942834 687.75957637 -160.99414062 687.76367188 C-157.1002239 687.77472003 -153.20637795 687.79199428 -149.3125 687.8125 C-149.31342179 686.62257257 -149.31434359 685.43264515 -149.31529331 684.20665932 C-149.37496132 606.26937337 -149.40061253 528.33208874 -149.09256786 349.21118522 C-149.0672787 343.90839377 -149.05223951 338.6056351 -149.04177856 333.30279541 C-149.02789259 326.35249182 -148.99383062 319.40256513 -148.94425392 312.452425 C-148.92964331 309.99695425 -148.92146801 307.5414344 -148.92059898 305.08592033 C-148.91825926 301.81409621 -148.89161 298.54336364 -148.85839844 295.27172852 C-148.86342912 294.34563089 -148.8684598 293.41953327 -148.87364292 292.46537209 C-148.66790912 279.59761132 -141.79796475 268.03392757 -132.8125 259.125 C-131.77609375 258.16013672 -131.77609375 258.16013672 -130.71875 257.17578125 C-128.73892027 255.23130562 -126.94992884 253.26868965 -125.14453125 251.16796875 C-120.81295485 246.16609866 -116.17526646 241.49136006 -111.5 236.8125 C-110.64212891 235.94238281 -109.78425781 235.07226562 -108.90039062 234.17578125 C-107.6715918 232.94408203 -107.6715918 232.94408203 -106.41796875 231.6875 C-105.67699951 230.94242188 -104.93603027 230.19734375 -104.17260742 229.4296875 C-102.3125 227.8125 -102.3125 227.8125 -100.3125 227.8125 C-100.37163574 227.03350342 -100.43077148 226.25450684 -100.49169922 225.4519043 C-100.79289129 221.24020582 -101.05891683 217.02730571 -101.3125 212.8125 C-101.3705481 211.86715393 -101.42859619 210.92180786 -101.48840332 209.94781494 C-101.8788847 203.34091757 -102.14780332 196.7394209 -102.32177734 190.12329102 C-102.39914574 187.78444779 -102.50872843 185.44645602 -102.64990234 183.1105957 C-103.75892831 164.27427698 -103.75892831 164.27427698 -99.79931641 158.67129517 C-95.89476022 154.88474284 -91.36657124 152.37622107 -86.52996826 149.95779419 C-83.30022048 148.28967049 -80.45439303 146.2567318 -77.484375 144.16015625 C-75.34606633 142.72830559 -73.20542248 141.29993633 -71.0625 139.875 C-70.49188843 139.49508911 -69.92127686 139.11517822 -69.33337402 138.72375488 C-62.64523709 134.27531029 -55.9310261 129.87315691 -49.10351562 125.64038086 C-47.4157553 124.59234137 -45.73716708 123.52937823 -44.06835938 122.45141602 C-39.47597955 119.53375147 -34.99867926 117.21485273 -29.9375 115.203125 C-23.44252453 112.41808818 -17.60091475 109.60260702 -13.3125 103.8125 C-10.36252707 94.91586217 -11.42041719 85.14165257 -11.9175415 75.91537476 C-12.53295427 64.13909715 -12.3304877 52.36158527 -12.14654732 40.57613659 C-12.08316511 36.41563273 -12.05353937 32.25679391 -12.05399895 28.09581661 C-12.04962312 24.84498474 -12.01404652 21.59443458 -11.984375 18.34375 C-11.99159576 17.15258072 -11.99881653 15.96141144 -12.0062561 14.73414612 C-11.86997223 5.66265218 -11.86997223 5.66265218 -8.89550781 2.59179688 C-5.49684733 0.2506402 -4.05748069 -0.36142265 0 0 Z " fill="#F5F6F7" transform="translate(512.3125,153.1875)"/>
<path d="M0 0 C4.38154052 1.75261621 7.8873539 3.76985266 11.73046875 6.40234375 C13.07068987 7.30859504 14.41102649 8.21467553 15.75146484 9.12060547 C16.44786072 9.59342957 17.14425659 10.06625366 17.86175537 10.55340576 C20.69404279 12.46954323 23.54192474 14.36175305 26.39016724 16.25405884 C29.30138143 18.19074265 32.20526609 20.13826216 35.10864258 22.08666992 C36.58489177 23.07525155 38.06310586 24.06090492 39.54321289 25.04370117 C62.77703608 40.47936485 62.77703608 40.47936485 68.0625 50.375 C68.61035156 51.37273437 69.15820312 52.37046875 69.72265625 53.3984375 C71.82097568 57.67207891 72.12454396 60.81473267 72.12304783 65.53800488 C72.12420167 66.20837401 72.12535552 66.87874315 72.12654433 67.56942651 C72.12920624 69.83180594 72.1246923 72.09411523 72.12025452 74.35649109 C72.12069031 75.98837657 72.12156535 77.62026198 72.12284368 79.25214702 C72.12508714 83.74899951 72.12106937 88.24582833 72.11606562 92.74267781 C72.11175919 97.58725112 72.11320768 102.43182302 72.1139679 107.27639771 C72.11449301 115.67412827 72.11134753 124.07185108 72.10573006 132.4695797 C72.09761334 144.61138265 72.09499966 156.75318184 72.09374207 168.8949872 C72.09155182 188.59283539 72.08489246 208.29067945 72.07543945 227.98852539 C72.06626464 247.12654601 72.05918414 266.26456551 72.05493164 285.40258789 C72.05466892 286.58166297 72.05440619 287.76073806 72.05413551 288.97554269 C72.0528305 294.89043892 72.05156678 300.80533517 72.05032361 306.72023141 C72.03995184 355.81349062 72.02205962 404.90674477 72 454 C48.24 454 24.48 454 0 454 C0 304.18 0 154.36 0 0 Z " fill="#11233C" transform="translate(566,386)"/>
<path d="M0 0 C1.43779927 0.79251085 2.87483705 1.5864033 4.31155396 2.38087463 C5.11188616 2.82282449 5.91221836 3.26477434 6.73680305 3.72011662 C9.47182119 5.26682437 12.08034769 6.95027451 14.6796875 8.71484375 C15.68185303 9.39426025 16.68401855 10.07367676 17.71655273 10.77368164 C18.75884033 11.4877417 19.80112793 12.20180176 20.875 12.9375 C21.41714142 13.307612 21.95928284 13.677724 22.51785278 14.05905151 C35.73940872 23.09018484 48.80925247 32.37902881 61.1875 42.546875 C63.14669511 44.16111832 63.14669511 44.16111832 66 46 C66.36076355 47.83499146 66.36076355 47.83499146 66.34057617 50.08251953 C66.34034958 50.92324005 66.34012299 51.76396057 66.33988953 52.63015747 C66.32440567 53.53853363 66.30892181 54.44690979 66.29296875 55.3828125 C66.28872391 56.31221649 66.28447906 57.24162048 66.28010559 58.19918823 C66.26328012 61.17475056 66.22562103 64.14964156 66.1875 67.125 C66.17245816 69.13931315 66.15876888 71.15363689 66.14648438 73.16796875 C66.11336394 78.11223879 66.06155529 83.05600549 66 88 C62.98452898 86.85299916 60.24207223 85.65995838 57.5390625 83.8984375 C56.90991943 83.49415527 56.28077637 83.08987305 55.63256836 82.67333984 C54.63882202 82.03066162 54.63882202 82.03066162 53.625 81.375 C48.13864087 77.90303921 42.61976416 74.5180429 36.9375 71.375 C36.34340332 71.03259277 35.74930664 70.69018555 35.13720703 70.33740234 C30.961316 68.07727331 27.71342223 67.50385029 23 68 C20.38969508 70.61030492 20.74746852 71.694397 20.74108028 75.33228493 C20.73423149 76.47158443 20.7273827 77.61088393 20.72032636 78.78470767 C20.72294322 80.0479456 20.72556007 81.31118354 20.72825623 82.61270142 C20.72397184 83.96118443 20.71880951 85.30966488 20.71284157 86.65814149 C20.69891478 90.38162983 20.69748668 94.1050367 20.69798481 97.82854724 C20.69635123 101.84616584 20.68322341 105.86374829 20.67144775 109.88134766 C20.65249982 116.8786162 20.64083987 123.87586718 20.63390923 130.8731575 C20.62365544 141.13818257 20.60151239 151.4031567 20.57652331 161.66815524 C20.53576029 178.51752869 20.50342699 195.36690723 20.47680664 212.21630859 C20.41916166 248.66293119 20.34482433 285.10951819 20.26491486 321.5560983 C20.25227853 327.33440923 20.24004774 333.11272084 20.22813376 338.89103331 C20.07867531 411.26311312 19.64138268 483.63067305 19 556 C12.07 556 5.14 556 -2 556 C-2.03417745 506.93292541 -2.0661264 457.8658503 -2.08468628 408.79876709 C-2.08496239 408.07067362 -2.08523851 407.34258015 -2.08552299 406.59242325 C-2.09151107 390.76280608 -2.09705111 374.93318879 -2.10213066 359.10357131 C-2.10462498 351.33890428 -2.10721813 343.57423729 -2.10986328 335.80957031 C-2.1101248 335.03695944 -2.11038632 334.26434856 -2.11065576 333.46832524 C-2.11915374 308.49901153 -2.13415771 283.52970696 -2.15259444 258.56039878 C-2.17153153 232.86632227 -2.18378746 207.17225081 -2.18782998 181.47816744 C-2.18840615 177.83551972 -2.18905742 174.19287201 -2.18975449 170.5502243 C-2.18988933 169.83341328 -2.19002418 169.11660226 -2.19016311 168.37806969 C-2.19251163 156.91475058 -2.20174695 145.45144723 -2.21366407 133.9881345 C-2.22554139 122.41800474 -2.22975056 110.84789418 -2.22700275 99.27775815 C-2.22573338 93.02735789 -2.22755055 86.77700328 -2.23841095 80.52661133 C-2.28295531 53.61346079 -1.94688711 26.85035445 0 0 Z " fill="#13233B" transform="translate(524,284)"/>
<path d="M0 0 C0 64.02 0 128.04 0 194 C-23.1 194 -46.2 194 -70 194 C-71.1492452 169.86585088 -71.1492452 169.86585088 -71.12939453 158.25854492 C-71.13114685 156.94184311 -71.13289917 155.6251413 -71.13470459 154.26853943 C-71.13916746 150.73629083 -71.13753823 147.20407222 -71.1343255 143.67182326 C-71.13174986 139.94139651 -71.13415301 136.21097192 -71.13571167 132.48054504 C-71.13751552 126.23694406 -71.13517138 119.99335502 -71.13037109 113.74975586 C-71.12490075 106.55186746 -71.12671829 99.35400727 -71.1321975 92.15611953 C-71.13674282 85.93311485 -71.13737316 79.71011862 -71.13475883 73.48711282 C-71.13320785 69.78827566 -71.13297039 66.08945175 -71.13629532 62.39061546 C-71.1397347 58.28016875 -71.13496118 54.16977055 -71.12939453 50.05932617 C-71.13243088 48.24440674 -71.13243088 48.24440674 -71.13552856 46.39282227 C-71.10605185 34.63303432 -71.10605185 34.63303432 -70 29 C-67.46606445 26.95117188 -67.46606445 26.95117188 -64.05078125 25.46875 C-63.4304451 25.18994995 -62.81010895 24.9111499 -62.17097473 24.62390137 C-60.12667242 23.7162692 -58.06588762 22.85723549 -56 22 C-54.58180163 21.38838071 -53.16432828 20.77507772 -51.74755859 20.16015625 C-47.24741546 18.22448602 -42.71936423 16.35988973 -38.1875 14.5 C-36.66061345 13.86895842 -35.1339201 13.23744912 -33.60742188 12.60546875 C-30.58710496 11.35579918 -27.56462008 10.11159571 -24.54052734 8.87109375 C-21.41435654 7.58715345 -18.29621036 6.28563819 -15.18212891 4.97265625 C-14.40476883 4.64688599 -13.62740875 4.32111572 -12.82649231 3.98547363 C-11.34350104 3.36364367 -9.86219289 2.73777954 -8.38285828 2.1072998 C-5.42549342 0.87212982 -3.23914078 0 0 0 Z " fill="#11213A" transform="translate(456,647)"/>
<path d="M0 0 C0 100.98 0 201.96 0 306 C-5.31969378 308.65984689 -10.48722546 311.10188109 -16 313.25 C-17.01900391 313.6521875 -17.01900391 313.6521875 -18.05859375 314.0625 C-19.70445553 314.71157225 -21.35204272 315.35626669 -23 316 C-23.4811109 277.76594276 -23.85092288 239.53234293 -24.07237192 201.29586899 C-24.09863543 196.77748193 -24.12581633 192.25910083 -24.15356445 187.74072266 C-24.15907297 186.84122934 -24.16458149 185.94173603 -24.17025694 185.01498534 C-24.26153265 170.46736321 -24.42704533 155.92149121 -24.62020872 141.37490593 C-24.81688871 126.43844374 -24.93329464 111.50289527 -24.97585839 96.56519139 C-25.0046173 87.35330666 -25.09526933 78.14636819 -25.2662458 68.9360074 C-25.37762991 62.61204201 -25.41072451 56.29061638 -25.38352893 49.96574233 C-25.37012373 46.31919364 -25.38998184 42.68124936 -25.50331497 39.03625107 C-26.13249409 17.79261086 -26.13249409 17.79261086 -20.85681129 11.40517282 C-15.67621802 6.82116675 -7.28155824 0 0 0 Z " fill="#112139" transform="translate(456,314)"/>
<path d="M0 0 C0 102.96 0 205.92 0 312 C-20 323 -20 323 -22 323 C-22.02301595 291.32331197 -22.04061281 259.64662641 -22.05106533 227.96993193 C-22.05231543 224.19536802 -22.05360981 220.42080412 -22.05493164 216.64624023 C-22.05519395 215.89506993 -22.05545626 215.14389962 -22.05572652 214.36996657 C-22.06002955 202.34704819 -22.06788611 190.3241348 -22.0771528 178.30121934 C-22.0866412 165.88324778 -22.09208696 153.46527876 -22.09408849 141.04730374 C-22.095315 134.10663421 -22.0982364 127.16597518 -22.10573006 120.22530937 C-22.10835199 117.57105899 -22.11082752 114.91680851 -22.11329651 112.26255798 C-22.11465569 110.96439107 -22.11601488 109.66622415 -22.11741525 108.32871884 C-22.12131349 101.96402546 -22.11146212 95.59986294 -22.07190037 89.23528194 C-22.05685254 86.76174381 -22.04184753 84.28820541 -22.02688599 81.81466675 C-22.01914569 80.60108154 -22.0114054 79.38749632 -22.00343055 78.1371358 C-21.96974183 70.49412872 -22.06703144 62.86316878 -22.24852163 55.22233933 C-22.35869391 50.12526905 -22.40654002 45.0286636 -22.44403732 39.93059742 C-22.47685225 37.53407266 -22.53775865 35.13774084 -22.62898266 32.74272811 C-23.29699067 14.82955465 -23.29699067 14.82955465 -19.40510106 10.03531909 C-15.60844226 6.77762092 -11.4246033 4.58523948 -6.78561932 2.75956911 C-0.29833613 0 -0.29833613 0 0 0 Z " fill="#112139" transform="translate(500,285)"/>
<path d="M0 0 C0 74.58 0 149.16 0 226 C-24 236 -24 236 -25 236 C-25.11686778 209.44408193 -25.20500523 182.88820248 -25.25906086 156.33207893 C-25.28482839 144.00124636 -25.31995145 131.67057368 -25.37719727 119.33984375 C-25.42707633 108.59077498 -25.45930156 97.84182204 -25.47044247 87.09264076 C-25.47695352 81.40243621 -25.49222662 75.71256298 -25.52865028 70.02246475 C-25.56268059 64.66264445 -25.57303861 59.30329081 -25.56553841 53.94337273 C-25.56690979 51.98022739 -25.57680006 50.01706586 -25.59602737 48.05401421 C-25.77287535 29.06083902 -25.77287535 29.06083902 -20 21 C-18.92685547 19.43378906 -18.92685547 19.43378906 -17.83203125 17.8359375 C-17.16558594 17.02382813 -16.49914062 16.21171875 -15.8125 15.375 C-15.13832031 14.53710938 -14.46414063 13.69921875 -13.76953125 12.8359375 C-13.18558594 12.23007812 -12.60164063 11.62421875 -12 11 C-11.34 11 -10.68 11 -10 11 C-9.74347656 10.41734375 -9.48695313 9.8346875 -9.22265625 9.234375 C-7.89214174 6.80289161 -6.41556987 5.18264447 -4.4375 3.25 C-3.81746094 2.63640625 -3.19742187 2.0228125 -2.55859375 1.390625 C-1 0 -1 0 0 0 Z " fill="#16253D" transform="translate(411,414)"/>
<path d="M0 0 C0.08027936 45.94380121 -0.11901203 91.88263814 -0.44538212 137.82519376 C-0.50766007 146.60510036 -0.56727195 155.3850246 -0.62675762 164.16495049 C-0.74839343 182.10998675 -0.87316112 200.05499981 -1 218 C-7.93 218 -14.86 218 -22 218 C-22.13171394 196.60416098 -22.26220218 175.20831486 -22.39115143 153.81245899 C-22.45108079 143.87358541 -22.51141124 133.93471458 -22.57275391 123.99584961 C-22.6263422 115.31318601 -22.67910881 106.63051784 -22.73096704 97.94784373 C-22.75834371 93.36859978 -22.7860783 88.78935876 -22.81480408 84.21012306 C-22.96547231 60.13976567 -23.03035764 36.07083345 -23 12 C-21.87576205 11.38334976 -21.87576205 11.38334976 -20.72881222 10.75424194 C-19.25284242 9.94462509 -19.25284242 9.94462509 -17.74705505 9.11865234 C-16.77197715 8.58380219 -15.79689924 8.04895203 -14.79227352 7.49789429 C-12.73086044 6.36674591 -10.67008616 5.23443328 -8.60961914 4.1015625 C-7.71879639 3.61429688 -6.82797363 3.12703125 -5.91015625 2.625 C-4.53549194 1.87089844 -4.53549194 1.87089844 -3.13305664 1.1015625 C-1 0 -1 0 0 0 Z " fill="#122139" transform="translate(501,623)"/>
<path d="M0 0 C5 2 5 2 7 5 C5.68 4.67 4.36 4.34 3 4 C2.67 151.84 2.34 299.68 2 452 C24.44 452 46.88 452 70 452 C70 322.64 70 193.28 70 60 C70.33 60 70.66 60 71 60 C72.10385272 100.58642641 72.13576258 141.15812219 72.10353777 181.75579918 C72.09623283 191.21993295 72.09487403 200.68406527 72.09374207 210.14820145 C72.09157562 227.01367981 72.08498234 243.87915322 72.07543945 260.74462891 C72.06620199 277.08772762 72.05915252 293.43082497 72.05493164 309.77392578 C72.05466892 310.78831609 72.05440619 311.80270639 72.05413551 312.84783579 C72.05283008 317.93882458 72.05156647 323.02981337 72.05032361 328.12080216 C72.0400263 370.08053918 72.02162976 412.040267 72 454 C48.24 454 24.48 454 0 454 C0 304.18 0 154.36 0 0 Z " fill="#070D23" transform="translate(566,386)"/>
<path d="M0 0 C0.99 0.33 1.98 0.66 3 1 C1.68 1.33 0.36 1.66 -1 2 C-1 100.67 -1 199.34 -1 301 C-0.34 301.33 0.32 301.66 1 302 C-0.32 302.66 -1.64 303.32 -3 304 C-3.06860516 265.56104154 -3.12149775 227.12209228 -3.15319599 188.68308503 C-3.15694829 184.14923758 -3.16083124 179.61539024 -3.16479492 175.08154297 C-3.16558185 174.17890193 -3.16636878 173.27626089 -3.16717956 172.34626709 C-3.1802481 157.71385014 -3.20390987 143.08146841 -3.23145839 128.44907238 C-3.25947237 113.44476026 -3.27616775 98.44046664 -3.28226548 83.43612945 C-3.28639027 74.17104619 -3.29943705 64.90606244 -3.3237494 55.64100979 C-3.33955719 49.29523731 -3.34441166 42.94951657 -3.34050413 36.60372581 C-3.33857481 32.93767731 -3.34161688 29.27180318 -3.35761642 25.60578537 C-3.37480307 21.63899019 -3.36899719 17.67242543 -3.36076355 13.70559692 C-3.36950207 12.53635622 -3.3782406 11.36711552 -3.38724393 10.16244328 C-3.38127078 9.10647572 -3.37529764 8.05050816 -3.36914349 6.96254158 C-3.37028265 6.0458967 -3.37142181 5.12925183 -3.37259549 4.18482983 C-3.24963898 3.46383599 -3.12668247 2.74284214 -3 2 C-2.01 1.34 -1.02 0.68 0 0 Z " fill="#282E3F" transform="translate(436,326)"/>
<path d="M0 0 C0.33 0 0.66 0 1 0 C1.13152343 27.22857158 1.26195808 54.4571482 1.39115143 81.68573093 C1.45118374 94.33288884 1.51155156 106.98004496 1.57275391 119.62719727 C1.62619459 130.67062699 1.67896028 141.71405972 1.73096704 152.7574963 C1.75843989 158.58653337 1.78621551 164.41556858 1.81480408 170.2446003 C1.94985582 197.82996443 2.0344863 225.41428819 2 253 C2.83144531 252.54947266 2.83144531 252.54947266 3.6796875 252.08984375 C4.76636719 251.51943359 4.76636719 251.51943359 5.875 250.9375 C6.59429687 250.55464844 7.31359375 250.17179688 8.0546875 249.77734375 C9.01761719 249.39255859 9.01761719 249.39255859 10 249 C10.66 249.33 11.32 249.66 12 250 C10.37829621 251.00533667 8.75252763 252.00411907 7.125 253 C6.22007812 253.556875 5.31515625 254.11375 4.3828125 254.6875 C2 256 2 256 0 256 C0 171.52 0 87.04 0 0 Z " fill="#363F52" transform="translate(478,352)"/>
<path d="M0 0 C0.33 0 0.66 0 1 0 C1.01030746 1.14780945 1.02061493 2.2956189 1.03123474 3.47821045 C1.13043014 14.47470853 1.23325553 25.47116794 1.33933926 36.46760178 C1.39372518 42.11640774 1.44697678 47.7652189 1.49731445 53.4140625 C1.79710196 87.69382675 1.79710196 87.69382675 2.67295837 121.96258545 C3.03401974 132.99567099 3 143.93709272 3 155 C36.165 155.495 36.165 155.495 70 156 C70 156.33 70 156.66 70 157 C47.23 157 24.46 157 1 157 C-0.14882047 132.87477006 -0.14882047 132.87477006 -0.11352539 121.1315918 C-0.1132417 119.78860984 -0.11340477 118.44562774 -0.1139679 117.10264587 C-0.11424881 113.53787304 -0.10846932 109.97313552 -0.10139394 106.40837073 C-0.09503993 102.65284907 -0.09454726 98.89732614 -0.09336853 95.14179993 C-0.09029007 88.06638142 -0.08212489 80.9909788 -0.07201904 73.91556722 C-0.06074811 65.84510299 -0.0553201 57.7746379 -0.05032361 49.70416772 C-0.03993835 33.13610259 -0.02240821 16.56805334 0 0 Z " fill="#535B6B" transform="translate(385,684)"/>
<path d="M0 0 C0.33 0 0.66 0 1 0 C1 13.53 1 27.06 1 41 C-0.32 40.34 -1.64 39.68 -3 39 C-2.67 38.34 -2.34 37.68 -2 37 C-1.85532052 34.31503963 -1.76587812 31.65182817 -1.71875 28.96484375 C-1.70034058 28.1709877 -1.68193115 27.37713165 -1.66296387 26.55921936 C-1.58414122 23.15509749 -1.51639885 19.75077548 -1.44775391 16.34643555 C-1.39615037 13.86496822 -1.33886126 11.38367766 -1.28125 8.90234375 C-1.26767456 8.12632309 -1.25409912 7.35030243 -1.2401123 6.55076599 C-1.11282745 1.11282745 -1.11282745 1.11282745 0 0 Z " fill="#040C21" transform="translate(589,331)"/>
<path d="M0 0 C9 5 9 5 11 8 C8.0280615 6.87548273 5.66559313 5.77706209 3 4 C2.34 11.92 1.68 19.84 1 28 C0.67 28 0.34 28 0 28 C0 18.76 0 9.52 0 0 Z " fill="#060A1B" transform="translate(524,284)"/>
<path d="M0 0 C0.33 0.99 0.66 1.98 1 3 C-0.84732493 6.69464986 -3.26474436 9.91180815 -6 13 C-6.66 13 -7.32 13 -8 13 C-8.66 14.32 -9.32 15.64 -10 17 C-9.65806126 11.52898009 -6.27704522 8.10038245 -3 4 C-1.99593287 2.66972673 -0.99475047 1.33725438 0 0 Z " fill="#151C2F" transform="translate(399,425)"/>
<path d="M0 0 C0.33 0 0.66 0 1 0 C1 6.93 1 13.86 1 21 C1.66 21.33 2.32 21.66 3 22 C1.68 22.33 0.36 22.66 -1 23 C-1.13690844 15.27227893 -0.75166913 7.69118596 0 0 Z " fill="#070F23" transform="translate(387,818)"/>
<path d="M0 0 C0.66 0.66 1.32 1.32 2 2 C0.71034824 3.37562854 -0.62689293 4.70766393 -2 6 C-2.66 6 -3.32 6 -4 6 C-4.33 10.29 -4.66 14.58 -5 19 C-5.33 19 -5.66 19 -6 19 C-6.16249454 16.58063683 -6.28097817 14.17218141 -6.375 11.75 C-6.42527344 11.06808594 -6.47554688 10.38617188 -6.52734375 9.68359375 C-6.5859375 7.671875 -6.5859375 7.671875 -6 4 C-2.9765625 1.515625 -2.9765625 1.515625 0 0 Z " fill="#293444" transform="translate(485,293)"/>
<path d="M0 0 C0 5.94 0 11.88 0 18 C-0.33 18 -0.66 18 -1 18 C-1.04898437 17.00097656 -1.09796875 16.00195312 -1.1484375 14.97265625 C-1.22320312 13.68230469 -1.29796875 12.39195312 -1.375 11.0625 C-1.44460938 9.77472656 -1.51421875 8.48695313 -1.5859375 7.16015625 C-1.72257812 6.11730469 -1.85921875 5.07445312 -2 4 C-2.66 3.67 -3.32 3.34 -4 3 C-1.125 0 -1.125 0 0 0 Z " fill="#282F3C" transform="translate(411,414)"/>
<path d="M0 0 C0.66 0.33 1.32 0.66 2 1 C1.01 1.33 0.02 1.66 -1 2 C-1 2.66 -1 3.32 -1 4 C-1.66 4 -2.32 4 -3 4 C-3.33 4.66 -3.66 5.32 -4 6 C-4.66 6 -5.32 6 -6 6 C-7.33783393 6.31478446 -8.67203709 6.64587656 -10 7 C-10 6.34 -10 5.68 -10 5 C-8.38007835 4.13624104 -6.75388139 3.28424146 -5.125 2.4375 C-4.22007812 1.96183594 -3.31515625 1.48617187 -2.3828125 0.99609375 C-1.20332031 0.50302734 -1.20332031 0.50302734 0 0 Z " fill="#E6EBF0" transform="translate(491,601)"/>
<path d="M0 0 C0.66 0.33 1.32 0.66 2 1 C0.37829621 2.00533667 -1.24747237 3.00411907 -2.875 4 C-4.23238281 4.8353125 -4.23238281 4.8353125 -5.6171875 5.6875 C-8 7 -8 7 -10 7 C-9.67 5.68 -9.34 4.36 -9 3 C-7.88625 2.814375 -7.88625 2.814375 -6.75 2.625 C-4.01820689 2.12410486 -4.01820689 2.12410486 -1.8125 0.875 C-1.214375 0.58625 -0.61625 0.2975 0 0 Z " fill="#0D1121" transform="translate(488,601)"/>
<path d="M0 0 C0.99 0.66 1.98 1.32 3 2 C1.68 2.33 0.36 2.66 -1 3 C-1 7.29 -1 11.58 -1 16 C-1.33 16 -1.66 16 -2 16 C-2.05384521 13.70858714 -2.09272087 11.41681812 -2.125 9.125 C-2.14820313 7.84882812 -2.17140625 6.57265625 -2.1953125 5.2578125 C-2 2 -2 2 0 0 Z " fill="#D7DCE2" transform="translate(479,632)"/>
<path d="M0 0 C3.93673644 1.31224548 6.22719294 2.91910327 9 6 C3.50847458 5.38983051 3.50847458 5.38983051 1.125 3.5625 C0 2 0 2 0 0 Z " fill="#EAEDEE" transform="translate(555,274)"/>
<path d="M0 0 C0.66 0 1.32 0 2 0 C1.67 2.31 1.34 4.62 1 7 C0.34 7 -0.32 7 -1 7 C-1.33 7.99 -1.66 8.98 -2 10 C-1.125 2.25 -1.125 2.25 0 0 Z " fill="#E1E7ED" transform="translate(366,432)"/>
<path d="M0 0 C3.81684226 1.55500981 6.19195732 4.03595495 9 7 C8.67 7.99 8.34 8.98 8 10 C6.85157077 8.71064081 5.70633773 7.41843421 4.5625 6.125 C3.92441406 5.40570313 3.28632812 4.68640625 2.62890625 3.9453125 C1 2 1 2 0 0 Z " fill="#0D1322" transform="translate(604,309)"/>
<path d="M0 0 C2.66666667 1.33333333 5.33333333 2.66666667 8 4 C8 4.66 8 5.32 8 6 C4.65750371 5.40312566 2.53563658 4.26396123 0 2 C0 1.34 0 0.68 0 0 Z " fill="#E9EDF1" transform="translate(565,310)"/>
</svg>
