<?xml version="1.0" encoding="UTF-8"?>
<svg version="1.1" xmlns="http://www.w3.org/2000/svg" width="181" height="192">
<path d="M0 0 C59.73 0 119.46 0 181 0 C181 63.36 181 126.72 181 192 C121.27 192 61.54 192 0 192 C0 128.64 0 65.28 0 0 Z " fill="#F1F1FD" transform="translate(0,0)"/>
<path d="M0 0 C59.73 0 119.46 0 181 0 C181 63.36 181 126.72 181 192 C121.27 192 61.54 192 0 192 C0 128.64 0 65.28 0 0 Z M74 5 C74 10.94 74 16.88 74 23 C69.05 23 64.1 23 59 23 C58.67 27.95 58.34 32.9 58 38 C52.06 38.495 52.06 38.495 46 39 C46 47.91 46 56.82 46 66 C38.6875 62.5 38.6875 62.5 36.3972168 61.39257812 C33.42821556 59.98978766 31.32145813 59 28 59 C28 72.53 28 86.06 28 100 C25.03 100.495 25.03 100.495 22 101 C20.515 101.99 20.515 101.99 19 103 C18.71327639 105.48425883 18.6213227 107.71860892 18.65942383 110.20361328 C18.65898575 110.9451767 18.65854767 111.68674011 18.65809631 112.45077515 C18.66019021 114.90755331 18.68354875 117.36365322 18.70703125 119.8203125 C18.71262509 121.52138903 18.71689619 123.22247038 18.71989441 124.92355347 C18.73135996 129.4051849 18.76084165 133.88652559 18.79400635 138.36804199 C18.82467052 142.93933173 18.83839191 147.51066835 18.85351562 152.08203125 C18.88570987 161.05481539 18.93692671 170.02738354 19 179 C16.69 179 14.38 179 12 179 C11.40929986 180.94603274 11.40929986 180.94603274 11 183 C12.05920162 184.28301675 12.05920162 184.28301675 14.49688816 184.12304783 C15.61686664 184.12212604 16.73684511 184.12120424 17.89076233 184.12025452 C19.17108841 184.12162918 20.45141449 184.12300385 21.77053833 184.12442017 C23.20257591 184.12088055 24.63461326 184.11724573 26.06665039 184.11352539 C27.56431578 184.11324353 29.0619813 184.11340124 30.55964661 184.1139679 C34.63798172 184.11425591 38.71628767 184.10835864 42.79461598 184.10139394 C47.05207628 184.09516095 51.30953718 184.09455665 55.56700134 184.09336853 C63.63473187 184.09025505 71.70244891 184.08204144 79.77017349 184.07201904 C88.95260779 184.06085842 98.13504272 184.05534758 107.31748211 184.05032361 C126.2116624 184.03985884 145.10583012 184.02225907 164 184 C164.59070014 182.05396726 164.59070014 182.05396726 165 180 C164.67 179.67 164.34 179.34 164 179 C162.35 179 160.7 179 159 179 C159 127.52 159 76.04 159 23 C153.39 23 147.78 23 142 23 C142 18.71 142 14.42 142 10 C147.28 10 152.56 10 158 10 C157.67 8.68 157.34 7.36 157 6 C138.85 6 120.7 6 102 6 C101.67 7.32 101.34 8.64 101 10 C102.13701597 11.36532549 102.13701597 11.36532549 105.16015625 11.09765625 C106.44792969 11.08605469 107.73570313 11.07445312 109.0625 11.0625 C110.35285156 11.05347656 111.64320312 11.04445313 112.97265625 11.03515625 C113.97167969 11.02355469 114.97070312 11.01195312 116 11 C116 14.96 116 18.92 116 23 C111.05 23 106.1 23 101 23 C101 28.28 101 33.56 101 39 C98.36 39 95.72 39 93 39 C93 33.72 93 28.44 93 23 C87.72 23 82.44 23 77 23 C77 17.06 77 11.12 77 5 C76.01 5 75.02 5 74 5 Z " fill="#030259" transform="translate(0,0)"/>
<path d="M0 0 C16.83 0 33.66 0 51 0 C51 19.47 51 38.94 51 59 C43.41 59 35.82 59 28 59 C26.45049732 57.45049732 26.78344807 55.90009406 26.68359375 53.74609375 C26.64169922 52.89208984 26.59980469 52.03808594 26.55664062 51.15820312 C26.51732422 50.26037109 26.47800781 49.36253906 26.4375 48.4375 C26.39431641 47.53580078 26.35113281 46.63410156 26.30664062 45.70507812 C26.20021858 43.47021515 26.09820012 41.23523692 26 39 C25.01 38.67 24.02 38.34 23 38 C21 36 21 36 20.8046875 33.1796875 C20.82789063 32.08914062 20.85109375 30.99859375 20.875 29.875 C20.89304688 28.77929688 20.91109375 27.68359375 20.9296875 26.5546875 C20.95289063 25.71164063 20.97609375 24.86859375 21 24 C22.134375 24.020625 23.26875 24.04125 24.4375 24.0625 C27.81575674 24.41577477 27.81575674 24.41577477 29 23 C26.03 23 23.06 23 20 23 C20 27.29 20 31.58 20 36 C17.03 35.505 17.03 35.505 14 35 C14 35.99 14 36.98 14 38 C14.9075 38.103125 15.815 38.20625 16.75 38.3125 C20.26674093 39.05642597 21.60836876 39.3487922 24 42 C24.38047931 45.13810944 24.50552525 47.92340809 24.45410156 51.0612793 C24.45468567 51.98830658 24.45526978 52.91533386 24.45587158 53.87045288 C24.45308183 56.93875396 24.42194747 60.0060871 24.390625 63.07421875 C24.38316579 65.19984913 24.37747135 67.32548639 24.37347412 69.4511261 C24.35819268 75.04907172 24.31888897 80.64660299 24.2746582 86.24438477 C24.23375976 91.95518386 24.2154747 97.66604983 24.1953125 103.37695312 C24.15239737 114.58481758 24.08411549 125.79237435 24 137 C18.72 137 13.44 137 8 137 C8 132.71 8 128.42 8 124 C1.4 124 -5.2 124 -12 124 C-12 128.29 -12 132.58 -12 137 C-16.95 137 -21.9 137 -27 137 C-27 112.58 -27 88.16 -27 63 C-21 60 -21 60 -19 60 C-19 47.46 -19 34.92 -19 22 C-8.875 25.375 -8.875 25.375 -3.9375 27.6875 C-2.52791016 28.34298828 -2.52791016 28.34298828 -1.08984375 29.01171875 C-0.40019531 29.33785156 0.28945313 29.66398437 1 30 C0.67 29.01 0.34 28.02 0 27 C-0.08315752 24.93501108 -0.10735878 22.8674211 -0.09765625 20.80078125 C-0.09515869 19.71192627 -0.09266113 18.62307129 -0.09008789 17.5012207 C-0.08098389 16.11894287 -0.07187988 14.73666504 -0.0625 13.3125 C-0.041875 8.919375 -0.02125 4.52625 0 0 Z " fill="#888BBA" transform="translate(50,42)"/>
<path d="M0 0 C16.83 0 33.66 0 51 0 C51 50.49 51 100.98 51 153 C43.41 153 35.82 153 28 153 C28 127.26 28 101.52 28 75 C18.76 75 9.52 75 0 75 C0 50.25 0 25.5 0 0 Z " fill="#12105F" transform="translate(104,26)"/>
<path d="M0 0 C16.5 0 33 0 50 0 C50 24.75 50 49.5 50 75 C33.5 75 17 75 0 75 C0 50.25 0 25.5 0 0 Z " fill="#1C1A64" transform="translate(78,104)"/>
<path d="M0 0 C0.33 0 0.66 0 1 0 C1 31.35 1 62.7 1 95 C-4.28 95 -9.56 95 -15 95 C-15 90.71 -15 86.42 -15 82 C-21.6 82 -28.2 82 -35 82 C-35 86.29 -35 90.58 -35 95 C-39.95 95 -44.9 95 -50 95 C-50 85.43 -50 75.86 -50 66 C-48.02 65.01 -48.02 65.01 -46 64 C-46.020625 62.700625 -46.04125 61.40125 -46.0625 60.0625 C-46.08399454 58.70834367 -46.07148199 57.35243917 -46 56 C-43.91795642 53.91795642 -39.4661444 54.74178708 -36.58984375 54.68359375 C-35.32679161 54.6524221 -35.32679161 54.6524221 -34.03822327 54.62062073 C-31.33806821 54.55503188 -28.63781283 54.49619724 -25.9375 54.4375 C-24.11131759 54.39432363 -22.28514546 54.35070964 -20.45898438 54.30664062 C-15.97276008 54.19934106 -11.4864345 54.09810034 -7 54 C-8.145896 53.97494385 -9.29179199 53.9498877 -10.47241211 53.92407227 C-14.70853598 53.83016894 -18.94448928 53.72990725 -23.18041992 53.62768555 C-25.01664247 53.5842718 -26.85290708 53.54260161 -28.68920898 53.50268555 C-31.32288311 53.44513831 -33.95634421 53.38140002 -36.58984375 53.31640625 C-37.82890724 53.29133751 -37.82890724 53.29133751 -39.09300232 53.26576233 C-44.88612829 53.11387171 -44.88612829 53.11387171 -46 52 C-46.14115161 49.32941149 -46.04247107 46.67567762 -46 44 C-47.485 44.495 -47.485 44.495 -49 45 C-48.690625 44.360625 -48.38125 43.72125 -48.0625 43.0625 C-46.87185493 39.63064067 -46.53838593 36.49357354 -46.24609375 32.890625 C-46 31 -46 31 -45 30 C-42.19023482 29.83982834 -39.40226404 29.74049466 -36.58984375 29.68359375 C-35.32679161 29.6524221 -35.32679161 29.6524221 -34.03822327 29.62062073 C-31.33806821 29.55503188 -28.63781283 29.49619724 -25.9375 29.4375 C-24.11131759 29.39432363 -22.28514546 29.35070964 -20.45898438 29.30664062 C-15.97276008 29.19934106 -11.4864345 29.09810034 -7 29 C-7.87325928 28.97494385 -8.74651855 28.9498877 -9.64624023 28.92407227 C-12.87602552 28.82912291 -16.10564154 28.72987971 -19.33520508 28.62768555 C-20.73489199 28.58428566 -22.13463359 28.54261436 -23.53442383 28.50268555 C-25.54261495 28.44510555 -27.55061149 28.38086 -29.55859375 28.31640625 C-30.76829834 28.27974854 -31.97800293 28.24309082 -33.22436523 28.20532227 C-36 28 -36 28 -37 27 C-37.0979057 25.50261876 -37.12974864 24.00057108 -37.125 22.5 C-37.12757812 21.6853125 -37.13015625 20.870625 -37.1328125 20.03125 C-37 18 -37 18 -36 17 C-33.6243148 16.9116033 -31.27791326 16.88469695 -28.90234375 16.90234375 C-27.83905602 16.90446617 -27.83905602 16.90446617 -26.75428772 16.90663147 C-24.48198288 16.91224557 -22.20977525 16.92480037 -19.9375 16.9375 C-18.40039204 16.94251319 -16.86328255 16.94707641 -15.32617188 16.95117188 C-11.55074358 16.96221958 -7.77538829 16.97949359 -4 17 C-4 16.01 -4 15.02 -4 14 C-3.34 14 -2.68 14 -2 14 C-2 13.34 -2 12.68 -2 12 C-1.34 12 -0.68 12 0 12 C0 8.04 0 4.08 0 0 Z " fill="#0B0B5A" transform="translate(73,84)"/>
<path d="M0 0 C16.83 0 33.66 0 51 0 C51 0.33 51 0.66 51 1 C34.5 1 18 1 1 1 C1 25.09 1 49.18 1 74 C6.445 73.505 6.445 73.505 12 73 C10.68 72.34 9.36 71.68 8 71 C7.97308315 68.54159395 7.95320198 66.08348118 7.9375 63.625 C7.92912109 62.92632812 7.92074219 62.22765625 7.91210938 61.5078125 C7.88671875 56.2265625 7.88671875 56.2265625 9 54 C9.08963847 52.51899189 9.11757925 51.03400576 9.11352539 49.55029297 C9.11344986 48.62948944 9.11337433 47.70868591 9.11329651 46.75997925 C9.10813522 45.76410797 9.10297394 44.76823669 9.09765625 43.7421875 C9.0962413 42.72399933 9.09482635 41.70581116 9.09336853 40.6567688 C9.087759 37.39614965 9.07520488 34.13559849 9.0625 30.875 C9.05748623 28.66796974 9.05292311 26.46093841 9.04882812 24.25390625 C9.03778648 18.83591419 9.02103905 13.41796195 9 8 C10.5943965 7.99406377 12.18879943 7.98983735 13.78320312 7.98632812 C14.67108521 7.98379028 15.55896729 7.98125244 16.47375488 7.9786377 C20.51606434 8.01282007 24.50926124 8.40807578 28.53125 8.78125 C33.01252337 9.06385282 37.50982458 9 42 9 C42 34.41 42 59.82 42 86 C38.7 86 35.4 86 32 86 C31.93941406 85.16855469 31.87882812 84.33710937 31.81640625 83.48046875 C31.73261719 82.39378906 31.64882812 81.30710937 31.5625 80.1875 C31.48128906 79.10855469 31.40007812 78.02960938 31.31640625 76.91796875 C31.09787539 73.94010095 31.09787539 73.94010095 30 71 C25.545 71.495 25.545 71.495 21 72 C21 72.33 21 72.66 21 73 C22.98 73.33 24.96 73.66 27 74 C27 74.33 27 74.66 27 75 C18.09 75 9.18 75 0 75 C0 50.25 0 25.5 0 0 Z " fill="#7577A9" transform="translate(104,26)"/>
<path d="M0 0 C4.29 0 8.58 0 13 0 C13 51.48 13 102.96 13 156 C14.65 156 16.3 156 18 156 C18 156.99 18 157.98 18 159 C-31.5 159 -81 159 -132 159 C-132 158.01 -132 157.02 -132 156 C-130.02 156 -128.04 156 -126 156 C-126 130.59 -126 105.18 -126 79 C-125.01 79 -124.02 79 -123 79 C-123 104.41 -123 129.82 -123 156 C-112.11 156 -101.22 156 -90 156 C-90 152.04 -90 148.08 -90 144 C-90.66 143.67 -91.32 143.34 -92 143 C-90.68 143 -89.36 143 -88 143 C-88 146.96 -88 150.92 -88 155 C-82.39 155 -76.78 155 -71 155 C-71.33 123.65 -71.66 92.3 -72 60 C-76.455 58.02 -76.455 58.02 -81 56 C-81 55.01 -81 54.02 -81 53 C-78.03 53.495 -78.03 53.495 -75 54 C-75 49.71 -75 45.42 -75 41 C-72.03 41 -69.06 41 -66 41 C-66.495 41.99 -66.495 41.99 -67 43 C-69.31 42.67 -71.62 42.34 -74 42 C-74 45.96 -74 49.92 -74 54 C-71.36 54 -68.72 54 -66 54 C-66 54.33 -66 54.66 -66 55 C-67.65 55.33 -69.3 55.66 -71 56 C-70.5155542 56.4122583 -70.0311084 56.8245166 -69.53198242 57.24926758 C-67.70832867 59.33331874 -67.59077411 60.28540863 -67.48828125 63.01171875 C-67.45516846 63.69451904 -67.42205566 64.37731934 -67.38793945 65.08081055 C-67.36304443 65.94101807 -67.33814941 66.80122559 -67.3125 67.6875 C-67.209375 70.430625 -67.10625 73.17375 -67 76 C-59.41 76.33 -51.82 76.66 -44 77 C-44.06900513 74.24390381 -44.06900513 74.24390381 -44.1394043 71.43212891 C-44.28764528 65.36945211 -44.42191242 59.30659271 -44.54658794 53.24338722 C-44.62271259 49.56631176 -44.70448818 45.88954126 -44.79907227 42.21289062 C-44.89010151 38.66640841 -44.96642514 35.11988968 -45.03244972 31.5728569 C-45.0602767 30.21792118 -45.09345148 28.86308465 -45.13199425 27.50841141 C-45.18496676 25.6148351 -45.21737388 23.72071692 -45.2487793 21.82666016 C-45.27320602 20.74744293 -45.29763275 19.66822571 -45.32279968 18.55630493 C-45.21627579 17.7127243 -45.10975189 16.86914368 -45 16 C-44.01 15.34 -43.02 14.68 -42 14 C-42 34.79 -42 55.58 -42 77 C-32.43 77 -22.86 77 -13 77 C-13 102.74 -13 128.48 -13 155 C-5.41 155 2.18 155 10 155 C10 104.51 10 54.02 10 2 C6.37 2 2.74 2 -1 2 C-0.67 1.34 -0.34 0.68 0 0 Z M-67 80 C-67 104.75 -67 129.5 -67 155 C-50.5 155 -34 155 -17 155 C-17 130.25 -17 105.5 -17 80 C-33.5 80 -50 80 -67 80 Z " fill="#D6D5EB" transform="translate(145,24)"/>
<path d="M0 0 C10.12767475 3.37589158 10.12767475 3.37589158 14.05078125 5.26953125 C14.90905518 5.68090332 15.7673291 6.09227539 16.65161133 6.51611328 C17.52970459 6.9439209 18.40779785 7.37172852 19.3125 7.8125 C20.22733154 8.25319824 21.14216309 8.69389648 22.0847168 9.14794922 C28.75494129 12.36944159 35.39228126 15.65208917 42 19 C42 23.29 42 27.58 42 32 C41.34 32 40.68 32 40 32 C40 32.66 40 33.32 40 34 C39.34 34 38.68 34 38 34 C38 34.99 38 35.98 38 37 C22.16 37.495 22.16 37.495 6 38 C6 40.97 6 43.94 6 47 C15.57 47.33 25.14 47.66 35 48 C35.33 48.66 35.66 49.32 36 50 C23.13 50.33 10.26 50.66 -3 51 C-3.33 53.97 -3.66 56.94 -4 60 C-4.66 61.32 -5.32 62.64 -6 64 C-5.34 64 -4.68 64 -4 64 C-3.67 66.64 -3.34 69.28 -3 72 C16.8 72.495 16.8 72.495 37 73 C33.98515224 76.01484776 30.54101289 75.35708856 26.4921875 75.4140625 C25.65156769 75.43342865 24.81094788 75.4527948 23.94485474 75.4727478 C21.25500697 75.53261658 18.56511657 75.57895771 15.875 75.625 C14.05336656 75.6631731 12.2317513 75.70222444 10.41015625 75.7421875 C5.94025148 75.83832398 1.47026221 75.92232769 -3 76 C-3.0825 77.27875 -3.165 78.5575 -3.25 79.875 C-3.390625 82.0546875 -3.390625 82.0546875 -4 84 C-5.98 84.99 -5.98 84.99 -8 86 C-8 71.15 -8 56.3 -8 41 C-2 38 -2 38 0 38 C0 25.46 0 12.92 0 0 Z " fill="#070756" transform="translate(31,64)"/>
<path d="M0 0 C16.17 0 32.34 0 49 0 C49.20054405 16.76993884 49.20054405 16.76993884 49.24414062 23.92773438 C49.27401111 28.80878939 49.30931642 33.68937468 49.37719727 38.57006836 C49.43159253 42.50584363 49.461436 46.44111512 49.47438622 50.37723732 C49.48361281 51.8775812 49.5016309 53.37789802 49.52865028 54.87802696 C49.56504452 56.98268196 49.56994161 59.08526565 49.56762695 61.19018555 C49.58428154 62.98555 49.58428154 62.98555 49.60127258 64.81718445 C48.82923999 68.90391218 47.12312496 70.35904144 44 73 C42.26043342 74.73956658 42.62809614 77.1936622 42.4375 79.5625 C42.35371094 80.57441406 42.26992187 81.58632812 42.18359375 82.62890625 C42.09271484 83.80259766 42.09271484 83.80259766 42 85 C41.67 85 41.34 85 41 85 C41 59.59 41 34.18 41 8 C37.7 8 34.4 8 31 8 C31 12.62 31 17.24 31 22 C30.67 22 30.34 22 30 22 C30 17.38 30 12.76 30 8 C28.22625 8.020625 26.4525 8.04125 24.625 8.0625 C19.02292994 8.06915329 13.556279 7.68838855 8 7 C8.0721875 7.79535156 8.144375 8.59070313 8.21875 9.41015625 C8.98938979 19.41777018 9.11240121 29.40528792 9.125 39.4375 C9.12749756 40.14633331 9.12999512 40.85516663 9.13256836 41.58547974 C9.13844261 43.61817592 9.13580049 45.65089127 9.1328125 47.68359375 C9.13168457 48.87525146 9.13055664 50.06690918 9.12939453 51.29467773 C9 54 9 54 8 55 C7.76346477 57.52596259 7.57826308 60.03107207 7.4375 62.5625 C7.39431641 63.27341797 7.35113281 63.98433594 7.30664062 64.71679688 C7.20028223 66.47761912 7.09961154 68.2387832 7 70 C10.63 70 14.26 70 18 70 C17.34 70.99 16.68 71.98 16 73 C10.72 73 5.44 73 0 73 C0 48.91 0 24.82 0 0 Z " fill="#07065A" transform="translate(105,27)"/>
<path d="M0 0 C15.51 0 31.02 0 47 0 C46.34 0.66 45.68 1.32 45 2 C44.53709779 4.66242821 44.53709779 4.66242821 44.375 7.625 C44.30023438 8.62789062 44.22546875 9.63078125 44.1484375 10.6640625 C44.09945312 11.43492188 44.05046875 12.20578125 44 13 C43.67 13 43.34 13 43 13 C42.505 9.04 42.505 9.04 42 5 C30.12 5 18.24 5 6 5 C5.67 7.97 5.34 10.94 5 14 C17.21 14 29.42 14 42 14 C41.34 15.32 40.68 16.64 40 18 C28.78 18.33 17.56 18.66 6 19 C5.67 22.3 5.34 25.6 5 29 C17.21 29 29.42 29 42 29 C42.495 30.485 42.495 30.485 43 32 C30.46 32 17.92 32 5 32 C5.33 34.97 5.66 37.94 6 41 C17.55 41.33 29.1 41.66 41 42 C41 42.99 41 43.98 41 45 C23.675 45.495 23.675 45.495 6 46 C6 48.97 6 51.94 6 55 C7.57467041 55.03758423 7.57467041 55.03758423 9.18115234 55.07592773 C13.06881324 55.16996267 16.95629381 55.2701928 20.84375 55.37231445 C22.52762642 55.41567817 24.21154723 55.4573522 25.89550781 55.49731445 C28.31328724 55.55498234 30.73084295 55.6186865 33.1484375 55.68359375 C34.28132706 55.70866249 34.28132706 55.70866249 35.43710327 55.73423767 C40.77225659 55.88612829 40.77225659 55.88612829 43 57 C43 57.66 43 58.32 43 59 C30.79 59.33 18.58 59.66 6 60 C5.67 62.97 5.34 65.94 5 69 C17.21 69 29.42 69 42 69 C41.01 69.66 40.02 70.32 39 71 C41.97 71.66 44.94 72.32 48 73 C48 73.33 48 73.66 48 74 C32.16 74 16.32 74 0 74 C0 49.58 0 25.16 0 0 Z " fill="#040354" transform="translate(79,105)"/>
<path d="M0 0 C16.83 0 33.66 0 51 0 C51 19.47 51 38.94 51 59 C43.41 59 35.82 59 28 59 C28 57.02 28 55.04 28 53 C34.435 52.505 34.435 52.505 41 52 C41 37.48 41 22.96 41 8 C37.7 7.67 34.4 7.34 31 7 C31 16.9 31 26.8 31 37 C30.67 37 30.34 37 30 37 C30 27.1 30 17.2 30 7 C22.74 7 15.48 7 8 7 C8.36581144 11.95095844 8.36581144 11.95095844 8.74829102 16.90063477 C9.05805975 21.44410256 8.79571865 25.51450447 8 30 C1.125 28.125 1.125 28.125 0 27 C-0.08758003 25.00035018 -0.10696576 22.9976389 -0.09765625 20.99609375 C-0.09515869 19.90224365 -0.09266113 18.80839355 -0.09008789 17.68139648 C-0.08098389 16.28091064 -0.07187988 14.8804248 -0.0625 13.4375 C-0.041875 9.003125 -0.02125 4.56875 0 0 Z " fill="#0E0E5C" transform="translate(50,42)"/>
<path d="M0 0 C0.97484848 0.00222061 1.94969696 0.00444122 2.9540863 0.00672913 C4.05515213 0.00680466 5.15621796 0.00688019 6.29064941 0.00695801 C7.48854599 0.01211929 8.68644257 0.01728058 9.92063904 0.02259827 C11.14000656 0.02401321 12.35937408 0.02542816 13.61569214 0.02688599 C17.52856349 0.03250485 21.4413786 0.04506055 25.35423279 0.05775452 C27.99941426 0.06276709 30.64459662 0.06733041 33.28977966 0.07142639 C39.79045005 0.08248041 46.2910874 0.09923688 52.79173279 0.12025452 C53.12173279 1.44025452 53.45173279 2.76025452 53.79173279 4.12025452 C48.51173279 4.12025452 43.23173279 4.12025452 37.79173279 4.12025452 C37.79173279 8.41025452 37.79173279 12.70025452 37.79173279 17.12025452 C43.40173279 17.12025452 49.01173279 17.12025452 54.79173279 17.12025452 C54.79173279 68.60025452 54.79173279 120.08025452 54.79173279 173.12025452 C56.44173279 173.12025452 58.09173279 173.12025452 59.79173279 173.12025452 C60.35423279 175.05775452 60.35423279 175.05775452 60.79173279 177.12025452 C59.79173279 178.12025452 59.79173279 178.12025452 57.29484463 178.24330235 C56.17486615 178.24238055 55.05488768 178.24145876 53.90097046 178.24050903 C51.98048134 178.24257103 51.98048134 178.24257103 50.02119446 178.24467468 C48.58915687 178.24113507 47.15711952 178.23750025 45.7250824 178.23377991 C44.22741701 178.23349804 42.72975149 178.23365575 41.23208618 178.23422241 C37.15375107 178.23451042 33.07544511 178.22861316 28.9971168 178.22164845 C24.7396565 178.21541547 20.4821956 178.21481116 16.22473145 178.21362305 C8.15700092 178.21050957 0.08928388 178.20229595 -7.9784407 178.19227356 C-17.160875 178.18111294 -26.34330993 178.1756021 -35.52574933 178.17057812 C-54.41992961 178.16011335 -73.31409733 178.14251359 -92.20826721 178.12025452 C-92.77076721 176.18275452 -92.77076721 176.18275452 -93.20826721 174.12025452 C-92.20826721 173.12025452 -92.20826721 173.12025452 -88.64576721 173.05775452 C-87.51139221 173.07837952 -86.37701721 173.09900452 -85.20826721 173.12025452 C-85.20826721 173.45025452 -85.20826721 173.78025452 -85.20826721 174.12025452 C-87.18826721 174.12025452 -89.16826721 174.12025452 -91.20826721 174.12025452 C-91.20826721 175.11025452 -91.20826721 176.10025452 -91.20826721 177.12025452 C-41.70826721 177.12025452 7.79173279 177.12025452 58.79173279 177.12025452 C58.79173279 176.13025452 58.79173279 175.14025452 58.79173279 174.12025452 C57.14173279 174.12025452 55.49173279 174.12025452 53.79173279 174.12025452 C53.79173279 122.64025452 53.79173279 71.16025452 53.79173279 18.12025452 C46.1083195 17.63436323 46.1083195 17.63436323 39.79173279 20.12025452 C38.12556164 20.16089284 36.45785184 20.16297552 34.79173279 20.12025452 C34.79173279 19.46025452 34.79173279 18.80025452 34.79173279 18.12025452 C33.9065094 18.12810974 33.9065094 18.12810974 33.00340271 18.13612366 C30.32869024 18.15691499 27.65399478 18.16992153 24.97923279 18.18275452 C24.05046326 18.19113342 23.12169373 18.19951233 22.16477966 18.20814514 C21.27210388 18.2113678 20.3794281 18.21459045 19.45970154 18.21791077 C18.22643127 18.22576599 18.22643127 18.22576599 16.96824646 18.23377991 C14.79173279 18.12025452 14.79173279 18.12025452 11.79173279 17.12025452 C11.79173279 13.16025452 11.79173279 9.20025452 11.79173279 5.12025452 C7.17173279 5.12025452 2.55173279 5.12025452 -2.20826721 5.12025452 C-2.70326721 3.14025452 -2.70326721 3.14025452 -3.20826721 1.12025452 C-2.20826721 0.12025452 -2.20826721 0.12025452 0 0 Z " fill="#A3A2C8" transform="translate(104.20826721191406,5.8797454833984375)"/>
<path d="M0 0 C4.29 0 8.58 0 13 0 C13 51.48 13 102.96 13 156 C14.65 156 16.3 156 18 156 C18 156.99 18 157.98 18 159 C-10.38 159 -38.76 159 -68 159 C-67.67 158.01 -67.34 157.02 -67 156 C-41.59 156 -16.18 156 10 156 C10 105.18 10 54.36 10 2 C6.37 2 2.74 2 -1 2 C-0.67 1.34 -0.34 0.68 0 0 Z " fill="#EAEAFA" transform="translate(145,24)"/>
<path d="M0 0 C0.66 0 1.32 0 2 0 C2 10.56 2 21.12 2 32 C-1.3 31.67 -4.6 31.34 -8 31 C-7.67 30.34 -7.34 29.68 -7 29 C-18.22 28.67 -29.44 28.34 -41 28 C-41 19 -41 19 -40 18 C-37.26105915 17.91141354 -34.5474673 17.88476521 -31.80859375 17.90234375 C-30.57883568 17.90446617 -30.57883568 17.90446617 -29.32423401 17.90663147 C-26.69528618 17.91224711 -24.06642227 17.92480221 -21.4375 17.9375 C-19.65950643 17.94251299 -17.88151154 17.94707624 -16.10351562 17.95117188 C-11.73564455 17.96222161 -7.36783652 17.97949669 -3 18 C-3 17.34 -3 16.68 -3 16 C-21.315 15.505 -21.315 15.505 -40 15 C-40 14.67 -40 14.34 -40 14 C-27.79 14 -15.58 14 -3 14 C-3 10.37 -3 6.74 -3 3 C-2.01 2.01 -1.02 1.02 0 0 Z " fill="#1F1D6A" transform="translate(125,146)"/>
<path d="M0 0 C7.26 0 14.52 0 22 0 C22 5.28 22 10.56 22 16 C18.7 16 15.4 16 12 16 C12 20.29 12 24.58 12 29 C10.02 28.67 8.04 28.34 6 28 C6 28.66 6 29.32 6 30 C1.0276578 28.50829734 -3.41845739 26.39542583 -8 24 C-7.505 22.515 -7.505 22.515 -7 21 C-4.69 21.66 -2.38 22.32 0 23 C0 15.41 0 7.82 0 0 Z " fill="#47487C" transform="translate(58,49)"/>
<path d="M0 0 C0.33 0 0.66 0 1 0 C1 20.79 1 41.58 1 63 C10.24 63 19.48 63 29 63 C29 84.45 29 105.9 29 128 C28.34 128.33 27.68 128.66 27 129 C27 108.21 27 87.42 27 66 C9.84 66 -7.32 66 -25 66 C-25 79.2 -25 92.4 -25 106 C-25.99 106.495 -25.99 106.495 -27 107 C-27 88.19 -27 69.38 -27 50 C-26.34 50 -25.68 50 -25 50 C-24.67 53.96 -24.34 57.92 -24 62 C-16.41 62.33 -8.82 62.66 -1 63 C-1.0407666 61.16260254 -1.0815332 59.32520508 -1.12353516 57.43212891 C-1.25566976 51.36936688 -1.3784377 45.30647218 -1.49477577 39.24338722 C-1.56567392 35.5664166 -1.64036071 31.88960348 -1.72363281 28.21289062 C-1.80381853 24.6663486 -1.87414775 21.1197369 -1.93757248 17.5728569 C-1.96354715 16.21796817 -1.99310612 14.86314337 -2.02626419 13.50841141 C-2.07200894 11.61469834 -2.10396646 9.72066725 -2.13525391 7.82666016 C-2.15746002 6.74744293 -2.17966614 5.66822571 -2.20254517 4.55630493 C-2 2 -2 2 0 0 Z " fill="#F5F6FE" transform="translate(102,38)"/>
<path d="M0 0 C0.33 0 0.66 0 1 0 C1.33 17.16 1.66 34.32 2 52 C2.33 52 2.66 52 3 52 C3.33 49.03 3.66 46.06 4 43 C7.3 43 10.6 43 14 43 C14 47.62 14 52.24 14 57 C11.03 57 8.06 57 5 57 C5 57.66 5 58.32 5 59 C7.97 59 10.94 59 14 59 C14 63.95 14 68.9 14 74 C11.81901042 74.1953125 9.63802083 74.390625 7.45703125 74.5859375 C4.50052922 74.9949187 4.50052922 74.9949187 0 77 C0 51.59 0 26.18 0 0 Z " fill="#1C1B64" transform="translate(132,102)"/>
<path d="M0 0 C13.2 0 26.4 0 40 0 C40 3.3 40 6.6 40 10 C26.8 10 13.6 10 0 10 C0 6.7 0 3.4 0 0 Z " fill="#A7A7D8" transform="translate(28,151)"/>
<path d="M0 0 C13.2 0 26.4 0 40 0 C40 3.3 40 6.6 40 10 C26.8 10 13.6 10 0 10 C0 6.7 0 3.4 0 0 Z " fill="#17175E" transform="translate(28,139)"/>
<path d="M0 0 C13.2 0 26.4 0 40 0 C40 3.3 40 6.6 40 10 C26.8 10 13.6 10 0 10 C0 6.7 0 3.4 0 0 Z " fill="#16155E" transform="translate(28,127)"/>
<path d="M0 0 C13.2 0 26.4 0 40 0 C40 3.3 40 6.6 40 10 C26.8 10 13.6 10 0 10 C0 6.7 0 3.4 0 0 Z " fill="#A8AAD1" transform="translate(28,114)"/>
<path d="M0 0 C0.99 0 1.98 0 3 0 C3 25.41 3 50.82 3 77 C13.89 77 24.78 77 36 77 C36 73.04 36 69.08 36 65 C35.01 64.505 35.01 64.505 34 64 C35.32 64 36.64 64 38 64 C38 67.96 38 71.92 38 76 C43.61 76 49.22 76 55 76 C55 76.33 55 76.66 55 77 C52.69 77 50.38 77 48 77 C48 77.66 48 78.32 48 79 C30.18 79.33 12.36 79.66 -6 80 C-6 79.01 -6 78.02 -6 77 C-4.02 77 -2.04 77 0 77 C0 51.59 0 26.18 0 0 Z " fill="#EEEFFD" transform="translate(19,103)"/>
<path d="M0 0 C-0.33 0.99 -0.66 1.98 -1 3 C-2.32 3.33 -3.64 3.66 -5 4 C-5.33 28.42 -5.66 52.84 -6 78 C-1.05 78 3.9 78 9 78 C9 73.71 9 69.42 9 65 C15.6 65 22.2 65 29 65 C29 69.29 29 73.58 29 78 C28.67 78 28.34 78 28 78 C28 74.04 28 70.08 28 66 C27.01 66.495 27.01 66.495 26 67 C26 70.96 26 74.92 26 79 C15.11 79 4.22 79 -7 79 C-7 53.59 -7 28.18 -7 2 C-7.66 1.67 -8.32 1.34 -9 1 C-5.57367167 -0.61798838 -3.61944899 -1.34053666 0 0 Z " fill="#C5C6E9" transform="translate(29,101)"/>
<path d="M0 0 C8.91 0 17.82 0 27 0 C27 4.29 27 8.58 27 13 C18.09 13 9.18 13 0 13 C0 8.71 0 4.42 0 0 Z " fill="#131261" transform="translate(62,26)"/>
<path d="M0 0 C12.54 0 25.08 0 38 0 C38 2.97 38 5.94 38 9 C25.46 9 12.92 9 0 9 C0 6.03 0 3.06 0 0 Z " fill="#B1B2DF" transform="translate(84,151)"/>
<path d="M0 0 C12.54 0 25.08 0 38 0 C38 2.97 38 5.94 38 9 C25.46 9 12.92 9 0 9 C0 6.03 0 3.06 0 0 Z " fill="#AFB1DD" transform="translate(84,137)"/>
<path d="M0 0 C1.29349365 0.00523682 2.5869873 0.01047363 3.91967773 0.01586914 C4.9496714 0.01799156 4.9496714 0.01799156 6.00047302 0.02015686 C8.20144949 0.0257706 10.40232557 0.03832532 12.60327148 0.05102539 C14.09220231 0.05603863 15.58113473 0.06060184 17.07006836 0.06469727 C20.72700223 0.07574446 24.38387707 0.09301826 28.04077148 0.11352539 C28.04077148 3.41352539 28.04077148 6.71352539 28.04077148 10.11352539 C17.48077148 10.11352539 6.92077148 10.11352539 -3.95922852 10.11352539 C-3.95922852 0.15188856 -3.95922852 0.15188856 0 0 Z " fill="#181767" transform="translate(39.959228515625,87.886474609375)"/>
<path d="M0 0 C10.56 0 21.12 0 32 0 C32 2.97 32 5.94 32 9 C21.44 9 10.88 9 0 9 C0 6.03 0 3.06 0 0 Z " fill="#B8BAE3" transform="translate(36,102)"/>
<path d="M0 0 C0.33 0 0.66 0 1 0 C1.33 8.91 1.66 17.82 2 27 C2.33 19.08 2.66 11.16 3 3 C3.33 3 3.66 3 4 3 C4.33 12.9 4.66 22.8 5 33 C0 32 0 32 -15 25 C-15 37.54 -15 50.08 -15 63 C-15.99 62.67 -16.98 62.34 -18 62 C-18 48.14 -18 34.28 -18 20 C-12 21 -12 21 0 27 C0 18.09 0 9.18 0 0 Z " fill="#EAEBFB" transform="translate(46,39)"/>
<path d="M0 0 C6.6 0 13.2 0 20 0 C20 4.29 20 8.58 20 13 C13.4 13 6.8 13 0 13 C0 8.71 0 4.42 0 0 Z " fill="#0D0C5B" transform="translate(119,10)"/>
<path d="M0 0 C0.33 0 0.66 0 1 0 C1 25.74 1 51.48 1 78 C8.59 78 16.18 78 24 78 C24 78.33 24 78.66 24 79 C-1.41 79 -26.82 79 -53 79 C-53 78.67 -53 78.34 -53 78 C-36.5 78 -20 78 -3 78 C-3 53.25 -3 28.5 -3 3 C-2.67 3 -2.34 3 -2 3 C-1.67 23.46 -1.34 43.92 -1 65 C-0.67 43.55 -0.34 22.1 0 0 Z " fill="#BBBBDD" transform="translate(131,101)"/>
<path d="M0 0 C4.56303176 9.12606352 3.16138224 20.89563594 3.13037109 30.93847656 C3.12500489 32.99812169 3.13035882 35.05754886 3.13671875 37.1171875 C3.14044961 45.4534145 2.77997137 53.69925682 2 62 C1.01 61.34 0.02 60.68 -1 60 C-1.39199829 57.71617126 -1.39199829 57.71617126 -1.41650391 54.83178711 C-1.43307037 53.75404526 -1.44963684 52.67630341 -1.46670532 51.56590271 C-1.46995819 50.39817825 -1.47321106 49.2304538 -1.4765625 48.02734375 C-1.49214203 46.83395889 -1.50772156 45.64057404 -1.52377319 44.411026 C-1.57144953 40.58652415 -1.59911042 36.7622063 -1.625 32.9375 C-1.66141976 29.10935239 -1.70198256 25.28131071 -1.74765015 21.45326233 C-1.77499512 19.06728783 -1.79629429 16.68123546 -1.81118774 14.29515076 C-1.82144989 13.22056107 -1.83171204 12.14597137 -1.84228516 11.03881836 C-1.84878082 10.08776718 -1.85527649 9.136716 -1.86196899 8.15684509 C-1.76034676 6.01948555 -1.76034676 6.01948555 -3 5 C-5.32817964 4.63239269 -7.6618385 4.29758419 -10 4 C-10 3.01 -10 2.02 -10 1 C-6.7 0.67 -3.4 0.34 0 0 Z " fill="#020252" transform="translate(134,96)"/>
<path d="M0 0 C11.22 0 22.44 0 34 0 C34 1.98 34 3.96 34 6 C22.78 6 11.56 6 0 6 C0 4.02 0 2.04 0 0 Z " fill="#1C1C69" transform="translate(86,166)"/>
<path d="M0 0 C11.22 0 22.44 0 34 0 C34 1.98 34 3.96 34 6 C22.78 6 11.56 6 0 6 C0 4.02 0 2.04 0 0 Z " fill="#16165E" transform="translate(86,125)"/>
<path d="M0 0 C11.22 0 22.44 0 34 0 C34 1.98 34 3.96 34 6 C22.78 6 11.56 6 0 6 C0 4.02 0 2.04 0 0 Z " fill="#181861" transform="translate(86,111)"/>
<path d="M0 0 C13.2 0 26.4 0 40 0 C40 3.3 40 6.6 40 10 C26.8 10 13.6 10 0 10 C0 6.7 0 3.4 0 0 Z M2 2 C2 3.98 2 5.96 2 8 C13.88 8 25.76 8 38 8 C38 6.02 38 4.04 38 2 C26.12 2 14.24 2 2 2 Z " fill="#B3B7E7" transform="translate(28,139)"/>
<path d="M0 0 C13.2 0 26.4 0 40 0 C40 3.3 40 6.6 40 10 C26.8 10 13.6 10 0 10 C0 6.7 0 3.4 0 0 Z M2 2 C2 3.98 2 5.96 2 8 C13.88 8 25.76 8 38 8 C38 6.02 38 4.04 38 2 C26.12 2 14.24 2 2 2 Z " fill="#B7B6E5" transform="translate(28,127)"/>
<path d="M0 0 C11.88 0 23.76 0 36 0 C36 1.65 36 3.3 36 5 C24.12 5 12.24 5 0 5 C0 3.35 0 1.7 0 0 Z " fill="#0A0957" transform="translate(30,154)"/>
<path d="M0 0 C11.88 0 23.76 0 36 0 C36 1.65 36 3.3 36 5 C24.12 5 12.24 5 0 5 C0 3.35 0 1.7 0 0 Z " fill="#060559" transform="translate(30,117)"/>
<path d="M0 0 C4.29 0 8.58 0 13 0 C13 25.74 13 51.48 13 78 C12.01 78.495 12.01 78.495 11 79 C11 53.59 11 28.18 11 2 C7.04 2 3.08 2 -1 2 C-0.67 1.34 -0.34 0.68 0 0 Z " fill="#F7F7FE" transform="translate(145,24)"/>
<path d="M0 0 C0.77915771 0.00202423 1.55831543 0.00404846 2.36108398 0.00613403 C3.15635498 0.00517731 3.95162598 0.00422058 4.77099609 0.00323486 C6.45564859 0.0025531 8.1403037 0.00440711 9.82495117 0.00857544 C12.41257595 0.01392378 15.00002714 0.00863034 17.58764648 0.00222778 C19.22045937 0.00288857 20.85327215 0.00416973 22.48608398 0.00613403 C23.2652417 0.0041098 24.04439941 0.00208557 24.84716797 0 C30.30863294 0.02399549 30.30863294 0.02399549 31.42358398 1.13894653 C31.42358398 4.10894653 31.42358398 7.07894653 31.42358398 10.13894653 C18.88358398 10.13894653 6.34358398 10.13894653 -6.57641602 10.13894653 C-6.57641602 0.02889414 -6.57641602 0.02889414 0 0 Z M-4.57641602 2.13894653 C-4.57641602 4.11894653 -4.57641602 6.09894653 -4.57641602 8.13894653 C6.64358398 8.13894653 17.86358398 8.13894653 29.42358398 8.13894653 C29.42358398 6.15894653 29.42358398 4.17894653 29.42358398 2.13894653 C18.20358398 2.13894653 6.98358398 2.13894653 -4.57641602 2.13894653 Z " fill="#B4B6E5" transform="translate(90.576416015625,108.86105346679688)"/>
<path d="M0 0 C0.77915771 0.00202423 1.55831543 0.00404846 2.36108398 0.00613403 C3.15635498 0.00517731 3.95162598 0.00422058 4.77099609 0.00323486 C6.45564859 0.0025531 8.1403037 0.00440711 9.82495117 0.00857544 C12.41257595 0.01392378 15.00002714 0.00863034 17.58764648 0.00222778 C19.22045937 0.00288857 20.85327215 0.00416973 22.48608398 0.00613403 C23.2652417 0.0041098 24.04439941 0.00208557 24.84716797 0 C30.30863294 0.02399549 30.30863294 0.02399549 31.42358398 1.13894653 C31.55639648 2.95144653 31.55639648 2.95144653 31.54858398 5.13894653 C31.55245117 6.22175903 31.55245117 6.22175903 31.55639648 7.32644653 C31.42358398 9.13894653 31.42358398 9.13894653 30.42358398 10.13894653 C27.76902205 10.23990218 25.14103223 10.27865652 22.48608398 10.27175903 C21.29317749 10.27319412 21.29317749 10.27319412 20.07617188 10.2746582 C18.39151938 10.27533996 16.70686427 10.27348596 15.0222168 10.26931763 C12.43459202 10.26396929 9.84714083 10.26926272 7.25952148 10.27566528 C5.6267086 10.2750045 3.99389582 10.27372334 2.36108398 10.27175903 C1.58192627 10.27378326 0.80276855 10.2758075 0 10.27789307 C-5.46146497 10.25389758 -5.46146497 10.25389758 -6.57641602 9.13894653 C-6.70922852 7.32644653 -6.70922852 7.32644653 -6.70141602 5.13894653 C-6.70399414 4.41707153 -6.70657227 3.69519653 -6.70922852 2.95144653 C-6.41408691 -1.0763683 -3.33269502 0.01464253 0 0 Z M-4.57641602 2.13894653 C-4.57641602 4.11894653 -4.57641602 6.09894653 -4.57641602 8.13894653 C6.64358398 8.13894653 17.86358398 8.13894653 29.42358398 8.13894653 C29.42358398 6.15894653 29.42358398 4.17894653 29.42358398 2.13894653 C18.20358398 2.13894653 6.98358398 2.13894653 -4.57641602 2.13894653 Z " fill="#B5B8E4" transform="translate(90.576416015625,122.86105346679688)"/>
<path d="M0 0 C0.97484848 0.00222061 1.94969696 0.00444122 2.9540863 0.00672913 C4.05515213 0.00680466 5.15621796 0.00688019 6.29064941 0.00695801 C8.08749428 0.01469994 8.08749428 0.01469994 9.92063904 0.02259827 C11.14000656 0.02401321 12.35937408 0.02542816 13.61569214 0.02688599 C17.52856349 0.03250485 21.4413786 0.04506055 25.35423279 0.05775452 C27.99941426 0.06276709 30.64459662 0.06733041 33.28977966 0.07142639 C39.79045005 0.08248041 46.2910874 0.09923688 52.79173279 0.12025452 C52.79173279 0.45025452 52.79173279 0.78025452 52.79173279 1.12025452 C34.97173279 1.12025452 17.15173279 1.12025452 -1.20826721 1.12025452 C-1.20826721 2.11025452 -1.20826721 3.10025452 -1.20826721 4.12025452 C-0.87826721 3.46025452 -0.54826721 2.80025452 -0.20826721 2.12025452 C11.34173279 2.12025452 22.89173279 2.12025452 34.79173279 2.12025452 C34.79173279 2.78025452 34.79173279 3.44025452 34.79173279 4.12025452 C28.19173279 4.12025452 21.59173279 4.12025452 14.79173279 4.12025452 C14.79173279 8.41025452 14.79173279 12.70025452 14.79173279 17.12025452 C13.80173279 17.12025452 12.81173279 17.12025452 11.79173279 17.12025452 C11.79173279 13.16025452 11.79173279 9.20025452 11.79173279 5.12025452 C7.17173279 5.12025452 2.55173279 5.12025452 -2.20826721 5.12025452 C-2.53826721 3.80025452 -2.86826721 2.48025452 -3.20826721 1.12025452 C-2.20826721 0.12025452 -2.20826721 0.12025452 0 0 Z " fill="#B4B3D3" transform="translate(104.20826721191406,5.8797454833984375)"/>
<path d="M0 0 C10.89 0 21.78 0 33 0 C33 1.65 33 3.3 33 5 C22.11 5 11.22 5 0 5 C0 3.35 0 1.7 0 0 Z " fill="#040454" transform="translate(87,153)"/>
<path d="M0 0 C10.89 0 21.78 0 33 0 C33 1.65 33 3.3 33 5 C22.11 5 11.22 5 0 5 C0 3.35 0 1.7 0 0 Z " fill="#0D0B5A" transform="translate(87,139)"/>
<path d="M0 0 C0.33 0 0.66 0 1 0 C1 2.97 1 5.94 1 9 C14.2 9 27.4 9 41 9 C41 6.03 41 3.06 41 0 C41.33 0 41.66 0 42 0 C42.22162329 1.62324086 42.42689803 3.248721 42.625 4.875 C42.74101563 5.77992187 42.85703125 6.68484375 42.9765625 7.6171875 C42.98816406 8.79667969 42.98816406 8.79667969 43 10 C41 12 41 12 37.10107422 12.22705078 C35.41891207 12.22673341 33.73672981 12.21539396 32.0546875 12.1953125 C31.1696756 12.1924826 30.2846637 12.18965271 29.37283325 12.18673706 C26.54008588 12.1755224 23.70765216 12.1504157 20.875 12.125 C18.95703581 12.11497185 17.03906667 12.10584572 15.12109375 12.09765625 C10.41394124 12.07557889 5.70702384 12.04104045 1 12 C1 14.97 1 17.94 1 21 C0.67 21 0.34 21 0 21 C0 18.36 0 15.72 0 13 C-0.99 13.33 -1.98 13.66 -3 14 C-2.5359375 13.0409375 -2.5359375 13.0409375 -2.0625 12.0625 C-0.68064597 8.07950896 -0.3463457 4.18349151 0 0 Z " fill="#13145D" transform="translate(27,115)"/>
<path d="M0 0 C4.62 0 9.24 0 14 0 C14 3.63 14 7.26 14 11 C9.38 11 4.76 11 0 11 C0 7.37 0 3.74 0 0 Z " fill="#0D0E5B" transform="translate(41,168)"/>
<path d="M0 0 C3.3 0 6.6 0 10 0 C10 3.96 10 7.92 10 12 C8.68 12 7.36 12 6 12 C6 12.66 6 13.32 6 14 C1.0276578 12.50829734 -3.41845739 10.39542583 -8 8 C-7.67 7.01 -7.34 6.02 -7 5 C-4.69 5.66 -2.38 6.32 0 7 C0 4.69 0 2.38 0 0 Z " fill="#CACDEB" transform="translate(58,65)"/>
<path d="M0 0 C1.29349365 0.00523682 2.5869873 0.01047363 3.91967773 0.01586914 C4.9496714 0.01799156 4.9496714 0.01799156 6.00047302 0.02015686 C8.20144949 0.0257706 10.40232557 0.03832532 12.60327148 0.05102539 C14.09220231 0.05603863 15.58113473 0.06060184 17.07006836 0.06469727 C20.72700223 0.07574446 24.38387707 0.09301826 28.04077148 0.11352539 C28.04077148 3.41352539 28.04077148 6.71352539 28.04077148 10.11352539 C17.48077148 10.11352539 6.92077148 10.11352539 -3.95922852 10.11352539 C-3.95922852 0.15188856 -3.95922852 0.15188856 0 0 Z M-1.95922852 2.11352539 C-1.95922852 4.09352539 -1.95922852 6.07352539 -1.95922852 8.11352539 C7.28077148 8.11352539 16.52077148 8.11352539 26.04077148 8.11352539 C26.04077148 6.13352539 26.04077148 4.15352539 26.04077148 2.11352539 C16.80077148 2.11352539 7.56077148 2.11352539 -1.95922852 2.11352539 Z " fill="#B5B7DC" transform="translate(39.959228515625,87.886474609375)"/>
<path d="M0 0 C3.3 0 6.6 0 10 0 C10 4.95 10 9.9 10 15 C3.06640625 15.09765625 3.06640625 15.09765625 1 15 C0 14 0 14 -0.09765625 10.83984375 C-0.08025391 8.90818359 -0.08025391 8.90818359 -0.0625 6.9375 C-0.05347656 5.64714844 -0.04445312 4.35679688 -0.03515625 3.02734375 C-0.02355469 2.02832031 -0.01195312 1.02929688 0 0 Z " fill="#16155E" transform="translate(136,113)"/>
<path d="M0 0 C3.3 0 6.6 0 10 0 C10 4.62 10 9.24 10 14 C6.7 14 3.4 14 0 14 C0 9.38 0 4.76 0 0 Z " fill="#9C9FCE" transform="translate(136,161)"/>
<path d="M0 0 C3.3 0 6.6 0 10 0 C10 4.62 10 9.24 10 14 C6.7 14 3.4 14 0 14 C0 9.38 0 4.76 0 0 Z " fill="#60619D" transform="translate(136,129)"/>
<path d="M0 0 C9.24 0 18.48 0 28 0 C28 1.65 28 3.3 28 5 C18.76 5 9.52 5 0 5 C0 3.35 0 1.7 0 0 Z " fill="#060554" transform="translate(38,104)"/>
<path d="M0 0 C3.3 0 6.6 0 10 0 C10 4.62 10 9.24 10 14 C6.7 14 3.4 14 0 14 C0 9.38 0 4.76 0 0 Z " fill="#A0A2D4" transform="translate(125,82)"/>
<path d="M0 0 C3.3 0 6.6 0 10 0 C10 4.62 10 9.24 10 14 C6.7 14 3.4 14 0 14 C0 9.38 0 4.76 0 0 Z " fill="#A7A8D8" transform="translate(125,66)"/>
<path d="M0 0 C3.3 0 6.6 0 10 0 C10 4.62 10 9.24 10 14 C6.7 14 3.4 14 0 14 C0 9.38 0 4.76 0 0 Z " fill="#A7AAD9" transform="translate(113,66)"/>
<path d="M0 0 C12.54 0 25.08 0 38 0 C38 2.97 38 5.94 38 9 C25.46 9 12.92 9 0 9 C0 6.03 0 3.06 0 0 Z M2 1 C2 2.98 2 4.96 2 7 C13.22 7 24.44 7 36 7 C36 5.02 36 3.04 36 1 C24.78 1 13.56 1 2 1 Z " fill="#C3C7E7" transform="translate(84,165)"/>
<path d="M0 0 C0.33 0 0.66 0 1 0 C1.33 8.91 1.66 17.82 2 27 C2.33 19.08 2.66 11.16 3 3 C3.33 3 3.66 3 4 3 C4.33 12.9 4.66 22.8 5 33 C1.46302519 32.29260504 -0.69669618 31.84071052 -3.76953125 30.37109375 C-4.43017578 30.05849609 -5.09082031 29.74589844 -5.77148438 29.42382812 C-6.44501953 29.09833984 -7.11855469 28.77285156 -7.8125 28.4375 C-8.50537109 28.10814453 -9.19824219 27.77878906 -9.91210938 27.43945312 C-11.61044948 26.63127749 -13.30555769 25.81631623 -15 25 C-14.67 23.68 -14.34 22.36 -14 21 C-9.24593592 22.84028287 -4.6774547 24.92113125 0 27 C0 18.09 0 9.18 0 0 Z " fill="#CCCFE7" transform="translate(46,39)"/>
<path d="M0 0 C0.33 0 0.66 0 1 0 C1 5.28 1 10.56 1 16 C3.6739124 16.89130413 6.23723823 17.47731534 9 18 C9 18.33 9 18.66 9 19 C-7.83 19 -24.66 19 -42 19 C-42 18.67 -42 18.34 -42 18 C-29.46 18 -16.92 18 -4 18 C-3.67 13.05 -3.34 8.1 -3 3 C-2.34 3 -1.68 3 -1 3 C-0.67 2.01 -0.34 1.02 0 0 Z " fill="#D9DAF1" transform="translate(92,23)"/>
<path d="M0 0 C-0.33 0.99 -0.66 1.98 -1 3 C-2.32 3.33 -3.64 3.66 -5 4 C-5.33 28.42 -5.66 52.84 -6 78 C-6.33 78 -6.66 78 -7 78 C-7 52.92 -7 27.84 -7 2 C-7.66 1.67 -8.32 1.34 -9 1 C-5.57367167 -0.61798838 -3.61944899 -1.34053666 0 0 Z " fill="#9DA0D0" transform="translate(29,101)"/>
<path d="M0 0 C0.99 0 1.98 0 3 0 C3 4.29 3 8.58 3 13 C8.28 13 13.56 13 19 13 C19 13.33 19 13.66 19 14 C18.07316406 14.06058594 17.14632812 14.12117188 16.19140625 14.18359375 C14.99386719 14.26738281 13.79632813 14.35117187 12.5625 14.4375 C11.36753906 14.51871094 10.17257813 14.59992187 8.94140625 14.68359375 C6.11429756 14.67656114 6.11429756 14.67656114 5 16 C3.33382885 16.04063832 1.66611905 16.042721 0 16 C0 15.34 0 14.68 0 14 C-6.6 14 -13.2 14 -20 14 C-20 13.67 -20 13.34 -20 13 C-13.4 13 -6.8 13 0 13 C0 8.71 0 4.42 0 0 Z " fill="#E1E4F9" transform="translate(139,10)"/>
<path d="M0 0 C0.66 0.33 1.32 0.66 2 1 C3.5195764 1.15123831 5.04472502 1.24881693 6.5703125 1.31640625 C7.91416016 1.37924805 7.91416016 1.37924805 9.28515625 1.44335938 C10.22230469 1.48267578 11.15945312 1.52199219 12.125 1.5625 C13.54232422 1.62727539 13.54232422 1.62727539 14.98828125 1.69335938 C17.32537092 1.79959072 19.6625683 1.90163176 22 2 C22 2.66 22 3.32 22 4 C4.675 4.495 4.675 4.495 -13 5 C-13.33 7.31 -13.66 9.62 -14 12 C-14.33 12 -14.66 12 -15 12 C-15 8.7 -15 5.4 -15 2 C-14.00097656 1.93941406 -13.00195312 1.87882812 -11.97265625 1.81640625 C-10.68230469 1.73261719 -9.39195313 1.64882813 -8.0625 1.5625 C-6.77472656 1.48128906 -5.48695312 1.40007813 -4.16015625 1.31640625 C-1.13976043 1.35080812 -1.13976043 1.35080812 0 0 Z " fill="#F8F9FE" transform="translate(117,22)"/>
<path d="M0 0 C2.31 0 4.62 0 7 0 C7 3.96 7 7.92 7 12 C4.69 12 2.38 12 0 12 C0 8.04 0 4.08 0 0 Z " fill="#201F67" transform="translate(115,83)"/>
<path d="M0 0 C2.31 0 4.62 0 7 0 C7 3.96 7 7.92 7 12 C4.69 12 2.38 12 0 12 C0 8.04 0 4.08 0 0 Z " fill="#222166" transform="translate(138,67)"/>
<path d="M0 0 C2.31 0 4.62 0 7 0 C7 3.96 7 7.92 7 12 C4.69 12 2.38 12 0 12 C0 8.04 0 4.08 0 0 Z " fill="#1F1F69" transform="translate(83,66)"/>
<path d="M0 0 C2.31 0 4.62 0 7 0 C7 3.96 7 7.92 7 12 C4.69 12 2.38 12 0 12 C0 8.04 0 4.08 0 0 Z " fill="#1F1E68" transform="translate(138,36)"/>
<path d="M0 0 C0.66 0 1.32 0 2 0 C2 4.62 2 9.24 2 14 C4.97 14 7.94 14 11 14 C11 14.33 11 14.66 11 15 C8.03 15 5.06 15 2 15 C2 19.62 2 24.24 2 29 C1.34 29 0.68 29 0 29 C0 24.38 0 19.76 0 15 C-3.3 15 -6.6 15 -10 15 C-9.67 14.34 -9.34 13.68 -9 13 C-6.03 13.33 -3.06 13.66 0 14 C0 9.38 0 4.76 0 0 Z " fill="#4B4E79" transform="translate(123,51)"/>
<path d="M0 0 C2.31 0 4.62 0 7 0 C7 3.63 7 7.26 7 11 C4.69 11 2.38 11 0 11 C0 7.37 0 3.74 0 0 Z " fill="#171562" transform="translate(138,147)"/>
<path d="M0 0 C2.31 0 4.62 0 7 0 C7 3.63 7 7.26 7 11 C4.69 11 2.38 11 0 11 C0 7.37 0 3.74 0 0 Z " fill="#15135E" transform="translate(138,84)"/>
<path d="M0 0 C2.31 0 4.62 0 7 0 C7 3.63 7 7.26 7 11 C4.69 11 2.38 11 0 11 C0 7.37 0 3.74 0 0 Z " fill="#16155E" transform="translate(83,82)"/>
<path d="M0 0 C2.31 0 4.62 0 7 0 C7 3.63 7 7.26 7 11 C4.69 11 2.38 11 0 11 C0 7.37 0 3.74 0 0 Z " fill="#16165D" transform="translate(138,52)"/>
<path d="M0 0 C2.31 0 4.62 0 7 0 C7 3.63 7 7.26 7 11 C4.69 11 2.38 11 0 11 C0 7.37 0 3.74 0 0 Z " fill="#15145F" transform="translate(126,52)"/>
<path d="M0 0 C2.31 0 4.62 0 7 0 C7 3.63 7 7.26 7 11 C4.69 11 2.38 11 0 11 C0 7.37 0 3.74 0 0 Z " fill="#16145F" transform="translate(115,52)"/>
<path d="M0 0 C2.31 0 4.62 0 7 0 C7 3.63 7 7.26 7 11 C4.69 11 2.38 11 0 11 C0 7.37 0 3.74 0 0 Z " fill="#14135F" transform="translate(83,51)"/>
<path d="M0 0 C2.31 0 4.62 0 7 0 C7 3.63 7 7.26 7 11 C4.69 11 2.38 11 0 11 C0 7.37 0 3.74 0 0 Z " fill="#16155F" transform="translate(71,51)"/>
<path d="M0 0 C2.31 0 4.62 0 7 0 C7 3.63 7 7.26 7 11 C4.69 11 2.38 11 0 11 C0 7.37 0 3.74 0 0 Z " fill="#151461" transform="translate(60,51)"/>
<path d="M0 0 C2.31 0 4.62 0 7 0 C7 3.63 7 7.26 7 11 C4.69 11 2.38 11 0 11 C0 7.37 0 3.74 0 0 Z " fill="#151561" transform="translate(126,36)"/>
<path d="M0 0 C7.71484375 -0.09765625 7.71484375 -0.09765625 10 0 C11 1 11 1 11.09765625 3.94140625 C11.08605469 5.13636719 11.07445313 6.33132812 11.0625 7.5625 C11.05347656 8.76003906 11.04445313 9.95757812 11.03515625 11.19140625 C11.02355469 12.11824219 11.01195313 13.04507813 11 14 C7.37 14 3.74 14 0 14 C0 9.38 0 4.76 0 0 Z M2 2 C2 5.63 2 9.26 2 13 C4.31 13 6.62 13 9 13 C9 9.37 9 5.74 9 2 C6.69 2 4.38 2 2 2 Z " fill="#A6A9DD" transform="translate(81,49)"/>
<path d="M0 0 C3.3 0 6.6 0 10 0 C10 4.95 10 9.9 10 15 C3.06640625 15.09765625 3.06640625 15.09765625 1 15 C0 14 0 14 -0.09765625 10.83984375 C-0.08025391 8.90818359 -0.08025391 8.90818359 -0.0625 6.9375 C-0.05347656 5.64714844 -0.04445312 4.35679688 -0.03515625 3.02734375 C-0.02355469 2.02832031 -0.01195312 1.02929688 0 0 Z M2 2 C2 5.63 2 9.26 2 13 C4.31 13 6.62 13 9 13 C9 9.37 9 5.74 9 2 C6.69 2 4.38 2 2 2 Z " fill="#ACAFD9" transform="translate(136,113)"/>
<path d="M0 0 C6.93359375 -0.09765625 6.93359375 -0.09765625 9 0 C10 1 10 1 10.09765625 4.16015625 C10.08605469 5.44792969 10.07445312 6.73570313 10.0625 8.0625 C10.05347656 9.35285156 10.04445312 10.64320312 10.03515625 11.97265625 C10.02355469 12.97167969 10.01195312 13.97070312 10 15 C6.7 15 3.4 15 0 15 C0 10.05 0 5.1 0 0 Z M1 2 C1 5.63 1 9.26 1 13 C3.31 13 5.62 13 8 13 C8 9.37 8 5.74 8 2 C5.69 2 3.38 2 1 2 Z " fill="#AEB1E0" transform="translate(125,50)"/>
<path d="M0 0 C3.3 0 6.6 0 10 0 C10 4.95 10 9.9 10 15 C3.06640625 15.09765625 3.06640625 15.09765625 1 15 C0 14 0 14 -0.09765625 10.83984375 C-0.08025391 8.90818359 -0.08025391 8.90818359 -0.0625 6.9375 C-0.05347656 5.64714844 -0.04445313 4.35679688 -0.03515625 3.02734375 C-0.02355469 2.02832031 -0.01195313 1.02929688 0 0 Z M2 2 C2 5.63 2 9.26 2 13 C4.31 13 6.62 13 9 13 C9 9.37 9 5.74 9 2 C6.69 2 4.38 2 2 2 Z " fill="#B7B9EA" transform="translate(113,50)"/>
<path d="M0 0 C2.31 0 4.62 0 7 0 C7 3.3 7 6.6 7 10 C2.25 9.125 2.25 9.125 0 8 C0 5.36 0 2.72 0 0 Z " fill="#1E1C61" transform="translate(60,66)"/>
<path d="M0 0 C3.3 0 6.6 0 10 0 C10 4.62 10 9.24 10 14 C6.7 14 3.4 14 0 14 C0 9.38 0 4.76 0 0 Z M2 2 C2 5.63 2 9.26 2 13 C4.31 13 6.62 13 9 13 C9 9.37 9 5.74 9 2 C6.69 2 4.38 2 2 2 Z " fill="#B3B7E3" transform="translate(136,145)"/>
<path d="M0 0 C0 0.99 0 1.98 0 3 C-10.23 3 -20.46 3 -31 3 C-30.67 2.34 -30.34 1.68 -30 1 C-26.04900721 0.85712894 -22.09799792 0.71472426 -18.14697266 0.57275391 C-16.14094158 0.5005736 -14.13492385 0.42802266 -12.12890625 0.35546875 C-10.87207031 0.31035156 -9.61523438 0.26523438 -8.3203125 0.21875 C-7.15773926 0.17685547 -5.99516602 0.13496094 -4.79736328 0.09179688 C-3.19880994 0.03933955 -1.59941382 0 0 0 Z " fill="#010055" transform="translate(69,98)"/>
<path d="M0 0 C3.3 0 6.6 0 10 0 C10 4.62 10 9.24 10 14 C6.7 14 3.4 14 0 14 C0 9.38 0 4.76 0 0 Z M2 2 C2 5.63 2 9.26 2 13 C4.31 13 6.62 13 9 13 C9 9.37 9 5.74 9 2 C6.69 2 4.38 2 2 2 Z " fill="#B5B8E0" transform="translate(136,82)"/>
<path d="M0 0 C3.3 0 6.6 0 10 0 C10 4.62 10 9.24 10 14 C6.7 14 3.4 14 0 14 C0 9.38 0 4.76 0 0 Z M2 1 C2 4.63 2 8.26 2 12 C4.31 12 6.62 12 9 12 C9 8.37 9 4.74 9 1 C6.69 1 4.38 1 2 1 Z " fill="#B8B9E5" transform="translate(136,51)"/>
<path d="M0 0 C3.3 0 6.6 0 10 0 C10 4.62 10 9.24 10 14 C6.7 14 3.4 14 0 14 C0 9.38 0 4.76 0 0 Z M1 2 C1 5.63 1 9.26 1 13 C3.31 13 5.62 13 8 13 C8 9.37 8 5.74 8 2 C5.69 2 3.38 2 1 2 Z " fill="#B8BCE7" transform="translate(70,49)"/>
<path d="M0 0 C3.3 0 6.6 0 10 0 C10 4.62 10 9.24 10 14 C6.7 14 3.4 14 0 14 C0 9.38 0 4.76 0 0 Z M2 2 C2 5.63 2 9.26 2 13 C4.31 13 6.62 13 9 13 C9 9.37 9 5.74 9 2 C6.69 2 4.38 2 2 2 Z " fill="#B4B7E4" transform="translate(58,49)"/>
<path d="M0 0 C3.3 0 6.6 0 10 0 C10 4.62 10 9.24 10 14 C6.7 14 3.4 14 0 14 C0 9.38 0 4.76 0 0 Z M1 1 C1 4.63 1 8.26 1 12 C3.31 12 5.62 12 8 12 C8 8.37 8 4.74 8 1 C5.69 1 3.38 1 1 1 Z " fill="#B4B6EB" transform="translate(125,35)"/>
<path d="M0 0 C1.98 0 3.96 0 6 0 C6 3.3 6 6.6 6 10 C4.02 10 2.04 10 0 10 C0 6.7 0 3.4 0 0 Z " fill="#080657" transform="translate(138,163)"/>
<path d="M0 0 C1.98 0 3.96 0 6 0 C6 3.3 6 6.6 6 10 C4.02 10 2.04 10 0 10 C0 6.7 0 3.4 0 0 Z " fill="#070655" transform="translate(138,100)"/>
<path d="M0 0 C1.98 0 3.96 0 6 0 C6 3.3 6 6.6 6 10 C4.02 10 2.04 10 0 10 C0 6.7 0 3.4 0 0 Z " fill="#06054E" transform="translate(127,84)"/>
<path d="M0 0 C1.98 0 3.96 0 6 0 C6 3.3 6 6.6 6 10 C4.02 10 2.04 10 0 10 C0 6.7 0 3.4 0 0 Z " fill="#060353" transform="translate(127,68)"/>
<path d="M0 0 C1.98 0 3.96 0 6 0 C6 3.3 6 6.6 6 10 C4.02 10 2.04 10 0 10 C0 6.7 0 3.4 0 0 Z " fill="#050355" transform="translate(115,68)"/>
<path d="M0 0 C1.98 0 3.96 0 6 0 C6 3.3 6 6.6 6 10 C4.02 10 2.04 10 0 10 C0 6.7 0 3.4 0 0 Z " fill="#070454" transform="translate(72,67)"/>
<path d="M0 0 C1.98 0 3.96 0 6 0 C6 3.3 6 6.6 6 10 C4.02 10 2.04 10 0 10 C0 6.7 0 3.4 0 0 Z " fill="#030252" transform="translate(115,37)"/>
<path d="M0 0 C0.33 0 0.66 0 1 0 C1 6.27 1 12.54 1 19 C-5.93 19 -12.86 19 -20 19 C-15.5 15.625 -15.5 15.625 -11.25 15.8125 C-10.45078125 15.83957031 -9.6515625 15.86664063 -8.828125 15.89453125 C-8.22484375 15.92933594 -7.6215625 15.96414062 -7 16 C-7 16.33 -7 16.66 -7 17 C-4.69 17.33 -2.38 17.66 0 18 C0 12.06 0 6.12 0 0 Z " fill="#060451" transform="translate(153,160)"/>
<path d="M0 0 C1.66611905 -0.042721 3.33382885 -0.04063832 5 0 C6.84014432 1.84014432 6.17355864 4.7198786 6.1875 7.1875 C6.20167969 8.31542969 6.21585937 9.44335938 6.23046875 10.60546875 C5.99598481 14.05913901 5.23587122 16.78087298 4 20 C3.67 20 3.34 20 3 20 C2.67 13.73 2.34 7.46 2 1 C1.34 0.67 0.68 0.34 0 0 Z " fill="#ACACC9" transform="translate(74,80)"/>
<path d="M0 0 C0.33 0 0.66 0 1 0 C1 4.62 1 9.24 1 14 C7.93 14 14.86 14 22 14 C22 14.33 22 14.66 22 15 C21.04287109 15.07347656 21.04287109 15.07347656 20.06640625 15.1484375 C18.82697266 15.26058594 18.82697266 15.26058594 17.5625 15.375 C16.73878906 15.44460937 15.91507813 15.51421875 15.06640625 15.5859375 C14.04353516 15.79089844 14.04353516 15.79089844 13 16 C12.67 16.66 12.34 17.32 12 18 C7.18550592 17.51855059 4.39828259 17.1991413 0 15 C0 10.05 0 5.1 0 0 Z " fill="#1F2165" transform="translate(112,82)"/>
<path d="M0 0 C0.66 0 1.32 0 2 0 C2.02685938 2.14576637 2.04633088 4.29162645 2.0625 6.4375 C2.07410156 7.63246094 2.08570312 8.82742187 2.09765625 10.05859375 C2 13 2 13 1 14 C-0.51928038 14.07179964 -2.04167482 14.08392007 -3.5625 14.0625 C-4.38878906 14.05347656 -5.21507813 14.04445313 -6.06640625 14.03515625 C-6.70449219 14.02355469 -7.34257813 14.01195313 -8 14 C-7.34 13.34 -6.68 12.68 -6 12 C-4.02 12 -2.04 12 0 12 C0 8.04 0 4.08 0 0 Z " fill="#9EA2D1" transform="translate(90,81)"/>
<path d="M0 0 C0.33 0 0.66 0 1 0 C1 3.96 1 7.92 1 12 C-3.62 12 -8.24 12 -13 12 C-13 11.34 -13 10.68 -13 10 C-9.79984144 8.93328048 -8.11455706 9.05154528 -4.8125 9.4375 C-2.4303125 9.7159375 -2.4303125 9.7159375 0 10 C0 6.7 0 3.4 0 0 Z " fill="#19195B" transform="translate(115,11)"/>
<path d="M0 0 C-0.33 0.99 -0.66 1.98 -1 3 C-2.98 3.33 -4.96 3.66 -7 4 C-7 3.34 -7 2.68 -7 2 C-7.66 1.67 -8.32 1.34 -9 1 C-5.57367167 -0.61798838 -3.61944899 -1.34053666 0 0 Z " fill="#CECFE7" transform="translate(29,101)"/>
<path d="M0 0 C0.99 0 1.98 0 3 0 C3 2.64 3 5.28 3 8 C1.68 7.67 0.36 7.34 -1 7 C-0.67 4.69 -0.34 2.38 0 0 Z " fill="#02005B" transform="translate(128,85)"/>
<path d="M0 0 C3.63 0 7.26 0 11 0 C11 0.33 11 0.66 11 1 C10.04287109 1.07347656 10.04287109 1.07347656 9.06640625 1.1484375 C8.24011719 1.22320312 7.41382813 1.29796875 6.5625 1.375 C5.32693359 1.47941406 5.32693359 1.47941406 4.06640625 1.5859375 C3.04353516 1.79089844 3.04353516 1.79089844 2 2 C1.67 2.66 1.34 3.32 1 4 C-1.64 3.67 -4.28 3.34 -7 3 C-7 2.67 -7 2.34 -7 2 C-4.69 2 -2.38 2 0 2 C0 1.34 0 0.68 0 0 Z " fill="#211F72" transform="translate(123,96)"/>
<path d="M0 0 C3.3 0 6.6 0 10 0 C8 2 8 2 4.875 2.125 C3.92625 2.08375 2.9775 2.0425 2 2 C2 2.99 2 3.98 2 5 C1.34 5 0.68 5 0 5 C0 3.35 0 1.7 0 0 Z " fill="#A3A7D2" transform="translate(113,50)"/>
<path d="M0 0 C4.75 0.875 4.75 0.875 7 2 C6.67 2.99 6.34 3.98 6 5 C4.02 4.34 2.04 3.68 0 3 C0 2.01 0 1.02 0 0 Z " fill="#E3E7F7" transform="translate(64,77)"/>
<path d="M0 0 C1.65 0 3.3 0 5 0 C5 2.97 5 5.94 5 9 C2.6120592 6.6120592 2.64618276 5.23091381 2 2 C1.34 1.34 0.68 0.68 0 0 Z " fill="#B7BAE0" transform="translate(117,137)"/>
</svg>
